{
	"asset":{
		"generator":"Khronos glTF Blender I/O v4.5.47",
		"version":"2.0"
	},
	"scene":0,
	"scenes":[
		{
			"extras":{
				"vs":{
					"export_list":[
						{
							"name":"Collection.dmx",
							"collection":{
								"name":"Collection",
								"type":"Collection"
							},
							"ob_type":"COLLECTION",
							"icon":"GROUP"
						},
						{
							"name":"Collection 2.dmx",
							"collection":{
								"name":"Collection 2",
								"type":"Collection"
							},
							"ob_type":"COLLECTION",
							"icon":"GROUP"
						}
					]
				},
				"GodotPipelineProps":{
					"mesh_data":0,
					"global_UI":1,
					"collision_UI":1,
					"display_wire":0,
					"export_UI":1,
					"col_types":6,
					"save_path":"E:\\game git repo\\project_tidal\\models\\Structures\\ship_segment\\ship_segment.gltf",
					"counter":2
				},
				"rflow_props":{}
			},
			"name":"Scene",
			"nodes":[
				0,
				1,
				2,
				3,
				4,
				5,
				6,
				7,
				8,
				9,
				10
			]
		}
	],
	"nodes":[
		{
			"mesh":0,
			"name":"Shell",
			"translation":[
				0,
				0,
				18.951622009277344
			]
		},
		{
			"mesh":1,
			"name":"BoxLP",
			"translation":[
				0.5355695486068726,
				3.134173631668091,
				4.256907939910889
			]
		},
		{
			"mesh":2,
			"name":"Broken wallLP",
			"translation":[
				-0.24039876461029053,
				2.8248190879821777,
				-7.876524925231934
			]
		},
		{
			"mesh":3,
			"name":"CargoNetLP",
			"rotation":[
				0.9958314299583435,
				0,
				0,
				0.09121247380971909
			],
			"translation":[
				-0.6141979694366455,
				5.176515579223633,
				1.498894214630127
			]
		},
		{
			"mesh":4,
			"name":"Chair",
			"rotation":[
				0,
				0,
				-1,
				0
			],
			"scale":[
				-1,
				-1,
				-1
			],
			"translation":[
				-2.5742459297180176,
				2.2370574474334717,
				-1.6956803798675537
			]
		},
		{
			"mesh":5,
			"name":"Chair.001",
			"translation":[
				-2.5742459297180176,
				2.2370574474334717,
				-5.900671482086182
			]
		},
		{
			"mesh":6,
			"name":"Chair.002",
			"translation":[
				-2.5742459297180176,
				2.2370574474334717,
				2.4795565605163574
			]
		},
		{
			"mesh":7,
			"name":"FloorgrateLP",
			"translation":[
				-0.5204854011535645,
				0.20610737800598145,
				-1.737168550491333
			]
		},
		{
			"mesh":8,
			"name":"Pipe1",
			"rotation":[
				0.704672634601593,
				-0.058622121810913086,
				-0.058622121810913086,
				0.7046725749969482
			],
			"scale":[
				0.19633369147777557,
				9.524872779846191,
				0.19633369147777557
			],
			"translation":[
				2.2475409507751465,
				5.603594779968262,
				-4.757626056671143
			]
		},
		{
			"mesh":9,
			"name":"Pipe2",
			"translation":[
				0.8491004705429077,
				5.529568195343018,
				-2.2065699100494385
			]
		},
		{
			"mesh":10,
			"name":"Pipe4",
			"translation":[
				0.40039098262786865,
				5.590415954589844,
				3.0624303817749023
			]
		}
	],
	"materials":[
		{
			"doubleSided":true,
			"name":"Material.001",
			"normalTexture":{
				"index":0
			},
			"pbrMetallicRoughness":{
				"baseColorTexture":{
					"index":1
				},
				"metallicRoughnessTexture":{
					"index":2
				}
			}
		},
		{
			"alphaMode":"BLEND",
			"doubleSided":true,
			"name":"internalsmaterial",
			"normalTexture":{
				"index":3
			},
			"pbrMetallicRoughness":{
				"baseColorTexture":{
					"index":4
				},
				"metallicRoughnessTexture":{
					"index":5
				}
			}
		}
	],
	"meshes":[
		{
			"name":"Cube.011",
			"primitives":[
				{
					"attributes":{
						"POSITION":0,
						"NORMAL":1,
						"TEXCOORD_0":2
					},
					"indices":3,
					"material":0
				}
			]
		},
		{
			"name":"Cube.016",
			"primitives":[
				{
					"attributes":{
						"POSITION":4,
						"NORMAL":5,
						"TEXCOORD_0":6
					},
					"indices":7,
					"material":1
				}
			]
		},
		{
			"name":"Cube.014",
			"primitives":[
				{
					"attributes":{
						"POSITION":8,
						"NORMAL":9,
						"TEXCOORD_0":10
					},
					"indices":11,
					"material":1
				}
			]
		},
		{
			"name":"Plane.002",
			"primitives":[
				{
					"attributes":{
						"POSITION":12,
						"NORMAL":13,
						"TEXCOORD_0":14
					},
					"indices":15,
					"material":1
				}
			]
		},
		{
			"name":"Cube.007",
			"primitives":[
				{
					"attributes":{
						"POSITION":16,
						"NORMAL":17,
						"TEXCOORD_0":18
					},
					"indices":19,
					"material":1
				}
			]
		},
		{
			"name":"Cube.018",
			"primitives":[
				{
					"attributes":{
						"POSITION":20,
						"NORMAL":21,
						"TEXCOORD_0":22
					},
					"indices":19,
					"material":1
				}
			]
		},
		{
			"name":"Cube.019",
			"primitives":[
				{
					"attributes":{
						"POSITION":23,
						"NORMAL":24,
						"TEXCOORD_0":25
					},
					"indices":19,
					"material":1
				}
			]
		},
		{
			"name":"Cube.010",
			"primitives":[
				{
					"attributes":{
						"POSITION":26,
						"NORMAL":27,
						"TEXCOORD_0":28
					},
					"indices":29,
					"material":1
				}
			]
		},
		{
			"name":"Cylinder.002",
			"primitives":[
				{
					"attributes":{
						"POSITION":30,
						"NORMAL":31,
						"TEXCOORD_0":32
					},
					"indices":33,
					"material":1
				}
			]
		},
		{
			"name":"Cylinder.001",
			"primitives":[
				{
					"attributes":{
						"POSITION":34,
						"NORMAL":35,
						"TEXCOORD_0":36
					},
					"indices":37,
					"material":1
				}
			]
		},
		{
			"name":"Cylinder",
			"primitives":[
				{
					"attributes":{
						"POSITION":38,
						"NORMAL":39,
						"TEXCOORD_0":40
					},
					"indices":41,
					"material":1
				}
			]
		}
	],
	"textures":[
		{
			"sampler":0,
			"source":0
		},
		{
			"sampler":0,
			"source":1
		},
		{
			"sampler":0,
			"source":2
		},
		{
			"sampler":0,
			"source":3
		},
		{
			"sampler":0,
			"source":4
		},
		{
			"sampler":0,
			"source":5
		}
	],
	"images":[
		{
			"mimeType":"image/png",
			"name":"shipframe_normal",
			"uri":"shipframe_normal.png"
		},
		{
			"mimeType":"image/png",
			"name":"shipframe_basecolor",
			"uri":"shipframe_basecolor.png"
		},
		{
			"mimeType":"image/png",
			"name":"shipframe_metallic-shipframe_rough",
			"uri":"shipframe_metallic-shipframe_rough.png"
		},
		{
			"mimeType":"image/png",
			"name":"shipinternal_normal",
			"uri":"shipinternal_normal.png"
		},
		{
			"mimeType":"image/png",
			"name":"shipinternal_basecolor",
			"uri":"shipinternal_basecolor.png"
		},
		{
			"mimeType":"image/png",
			"name":"shipinternal_metallic-shipinternal_rough",
			"uri":"shipinternal_metallic-shipinternal_rough.png"
		}
	],
	"accessors":[
		{
			"bufferView":0,
			"componentType":5126,
			"count":1160,
			"max":[
				6.9366350173950195,
				6.341407299041748,
				-13.87833309173584
			],
			"min":[
				-4.324854373931885,
				-0.17383906245231628,
				-27.728944778442383
			],
			"type":"VEC3"
		},
		{
			"bufferView":1,
			"componentType":5126,
			"count":1160,
			"type":"VEC3"
		},
		{
			"bufferView":2,
			"componentType":5126,
			"count":1160,
			"type":"VEC2"
		},
		{
			"bufferView":3,
			"componentType":5123,
			"count":2652,
			"type":"SCALAR"
		},
		{
			"bufferView":4,
			"componentType":5126,
			"count":68,
			"max":[
				1.212841510772705,
				1.181213140487671,
				0.29578208923339844
			],
			"min":[
				-1.2128419876098633,
				-1.1812132596969604,
				-0.29578208923339844
			],
			"type":"VEC3"
		},
		{
			"bufferView":5,
			"componentType":5126,
			"count":68,
			"type":"VEC3"
		},
		{
			"bufferView":6,
			"componentType":5126,
			"count":68,
			"type":"VEC2"
		},
		{
			"bufferView":7,
			"componentType":5123,
			"count":204,
			"type":"SCALAR"
		},
		{
			"bufferView":8,
			"componentType":5126,
			"count":33,
			"max":[
				3.3482656478881836,
				2.7677173614501953,
				0.11763572692871094
			],
			"min":[
				-3.3482656478881836,
				-2.7677173614501953,
				-0.11763763427734375
			],
			"type":"VEC3"
		},
		{
			"bufferView":9,
			"componentType":5126,
			"count":33,
			"type":"VEC3"
		},
		{
			"bufferView":10,
			"componentType":5126,
			"count":33,
			"type":"VEC2"
		},
		{
			"bufferView":11,
			"componentType":5123,
			"count":69,
			"type":"SCALAR"
		},
		{
			"bufferView":12,
			"componentType":5126,
			"count":36,
			"max":[
				3.07275390625,
				0.7788348197937012,
				3.079472303390503
			],
			"min":[
				-3.07275390625,
				-1.1428675651550293,
				-3.072754383087158
			],
			"type":"VEC3"
		},
		{
			"bufferView":13,
			"componentType":5126,
			"count":36,
			"type":"VEC3"
		},
		{
			"bufferView":14,
			"componentType":5126,
			"count":36,
			"type":"VEC2"
		},
		{
			"bufferView":15,
			"componentType":5123,
			"count":150,
			"type":"SCALAR"
		},
		{
			"bufferView":16,
			"componentType":5126,
			"count":456,
			"max":[
				1.2260890007019043,
				2.0534508228302,
				1.0034503936767578
			],
			"min":[
				-1.2260890007019043,
				-2.0534508228302,
				-1.0034503936767578
			],
			"type":"VEC3"
		},
		{
			"bufferView":17,
			"componentType":5126,
			"count":456,
			"type":"VEC3"
		},
		{
			"bufferView":18,
			"componentType":5126,
			"count":456,
			"type":"VEC2"
		},
		{
			"bufferView":19,
			"componentType":5123,
			"count":1704,
			"type":"SCALAR"
		},
		{
			"bufferView":20,
			"componentType":5126,
			"count":456,
			"max":[
				1.2260890007019043,
				2.0534508228302,
				1.0034503936767578
			],
			"min":[
				-1.2260890007019043,
				-2.0534508228302,
				-1.0034503936767578
			],
			"type":"VEC3"
		},
		{
			"bufferView":21,
			"componentType":5126,
			"count":456,
			"type":"VEC3"
		},
		{
			"bufferView":22,
			"componentType":5126,
			"count":456,
			"type":"VEC2"
		},
		{
			"bufferView":23,
			"componentType":5126,
			"count":456,
			"max":[
				1.2260890007019043,
				2.0534508228302,
				1.0034503936767578
			],
			"min":[
				-1.2260890007019043,
				-2.0534508228302,
				-1.0034503936767578
			],
			"type":"VEC3"
		},
		{
			"bufferView":24,
			"componentType":5126,
			"count":456,
			"type":"VEC3"
		},
		{
			"bufferView":25,
			"componentType":5126,
			"count":456,
			"type":"VEC2"
		},
		{
			"bufferView":26,
			"componentType":5126,
			"count":8,
			"max":[
				3.628352165222168,
				0.09337377548217773,
				6.173138618469238
			],
			"min":[
				-3.6283512115478516,
				-0.09337377548217773,
				-6.173139572143555
			],
			"type":"VEC3"
		},
		{
			"bufferView":27,
			"componentType":5126,
			"count":8,
			"type":"VEC3"
		},
		{
			"bufferView":28,
			"componentType":5126,
			"count":8,
			"type":"VEC2"
		},
		{
			"bufferView":29,
			"componentType":5123,
			"count":18,
			"type":"SCALAR"
		},
		{
			"bufferView":30,
			"componentType":5126,
			"count":125,
			"max":[
				6.226128578186035,
				0.9920781850814819,
				2.0607268810272217
			],
			"min":[
				-6.226128578186035,
				-0.16974064707756042,
				-1.068724274635315
			],
			"type":"VEC3"
		},
		{
			"bufferView":31,
			"componentType":5126,
			"count":125,
			"type":"VEC3"
		},
		{
			"bufferView":32,
			"componentType":5126,
			"count":125,
			"type":"VEC2"
		},
		{
			"bufferView":33,
			"componentType":5123,
			"count":348,
			"type":"SCALAR"
		},
		{
			"bufferView":34,
			"componentType":5126,
			"count":54,
			"max":[
				0.1283111572265625,
				0.12831127643585205,
				6.224845886230469
			],
			"min":[
				-0.1283111572265625,
				-0.1283111721277237,
				-5.970922946929932
			],
			"type":"VEC3"
		},
		{
			"bufferView":35,
			"componentType":5126,
			"count":54,
			"type":"VEC3"
		},
		{
			"bufferView":36,
			"componentType":5126,
			"count":54,
			"type":"VEC2"
		},
		{
			"bufferView":37,
			"componentType":5123,
			"count":144,
			"type":"SCALAR"
		},
		{
			"bufferView":38,
			"componentType":5126,
			"count":344,
			"max":[
				0.19371509552001953,
				0.19371643662452698,
				1.613450527191162
			],
			"min":[
				-0.19371509552001953,
				-0.19371509552001953,
				-11.04023265838623
			],
			"type":"VEC3"
		},
		{
			"bufferView":39,
			"componentType":5126,
			"count":344,
			"type":"VEC3"
		},
		{
			"bufferView":40,
			"componentType":5126,
			"count":344,
			"type":"VEC2"
		},
		{
			"bufferView":41,
			"componentType":5123,
			"count":960,
			"type":"SCALAR"
		}
	],
	"bufferViews":[
		{
			"buffer":0,
			"byteLength":13920,
			"byteOffset":0,
			"target":34962
		},
		{
			"buffer":0,
			"byteLength":13920,
			"byteOffset":13920,
			"target":34962
		},
		{
			"buffer":0,
			"byteLength":9280,
			"byteOffset":27840,
			"target":34962
		},
		{
			"buffer":0,
			"byteLength":5304,
			"byteOffset":37120,
			"target":34963
		},
		{
			"buffer":0,
			"byteLength":816,
			"byteOffset":42424,
			"target":34962
		},
		{
			"buffer":0,
			"byteLength":816,
			"byteOffset":43240,
			"target":34962
		},
		{
			"buffer":0,
			"byteLength":544,
			"byteOffset":44056,
			"target":34962
		},
		{
			"buffer":0,
			"byteLength":408,
			"byteOffset":44600,
			"target":34963
		},
		{
			"buffer":0,
			"byteLength":396,
			"byteOffset":45008,
			"target":34962
		},
		{
			"buffer":0,
			"byteLength":396,
			"byteOffset":45404,
			"target":34962
		},
		{
			"buffer":0,
			"byteLength":264,
			"byteOffset":45800,
			"target":34962
		},
		{
			"buffer":0,
			"byteLength":138,
			"byteOffset":46064,
			"target":34963
		},
		{
			"buffer":0,
			"byteLength":432,
			"byteOffset":46204,
			"target":34962
		},
		{
			"buffer":0,
			"byteLength":432,
			"byteOffset":46636,
			"target":34962
		},
		{
			"buffer":0,
			"byteLength":288,
			"byteOffset":47068,
			"target":34962
		},
		{
			"buffer":0,
			"byteLength":300,
			"byteOffset":47356,
			"target":34963
		},
		{
			"buffer":0,
			"byteLength":5472,
			"byteOffset":47656,
			"target":34962
		},
		{
			"buffer":0,
			"byteLength":5472,
			"byteOffset":53128,
			"target":34962
		},
		{
			"buffer":0,
			"byteLength":3648,
			"byteOffset":58600,
			"target":34962
		},
		{
			"buffer":0,
			"byteLength":3408,
			"byteOffset":62248,
			"target":34963
		},
		{
			"buffer":0,
			"byteLength":5472,
			"byteOffset":65656,
			"target":34962
		},
		{
			"buffer":0,
			"byteLength":5472,
			"byteOffset":71128,
			"target":34962
		},
		{
			"buffer":0,
			"byteLength":3648,
			"byteOffset":76600,
			"target":34962
		},
		{
			"buffer":0,
			"byteLength":5472,
			"byteOffset":80248,
			"target":34962
		},
		{
			"buffer":0,
			"byteLength":5472,
			"byteOffset":85720,
			"target":34962
		},
		{
			"buffer":0,
			"byteLength":3648,
			"byteOffset":91192,
			"target":34962
		},
		{
			"buffer":0,
			"byteLength":96,
			"byteOffset":94840,
			"target":34962
		},
		{
			"buffer":0,
			"byteLength":96,
			"byteOffset":94936,
			"target":34962
		},
		{
			"buffer":0,
			"byteLength":64,
			"byteOffset":95032,
			"target":34962
		},
		{
			"buffer":0,
			"byteLength":36,
			"byteOffset":95096,
			"target":34963
		},
		{
			"buffer":0,
			"byteLength":1500,
			"byteOffset":95132,
			"target":34962
		},
		{
			"buffer":0,
			"byteLength":1500,
			"byteOffset":96632,
			"target":34962
		},
		{
			"buffer":0,
			"byteLength":1000,
			"byteOffset":98132,
			"target":34962
		},
		{
			"buffer":0,
			"byteLength":696,
			"byteOffset":99132,
			"target":34963
		},
		{
			"buffer":0,
			"byteLength":648,
			"byteOffset":99828,
			"target":34962
		},
		{
			"buffer":0,
			"byteLength":648,
			"byteOffset":100476,
			"target":34962
		},
		{
			"buffer":0,
			"byteLength":432,
			"byteOffset":101124,
			"target":34962
		},
		{
			"buffer":0,
			"byteLength":288,
			"byteOffset":101556,
			"target":34963
		},
		{
			"buffer":0,
			"byteLength":4128,
			"byteOffset":101844,
			"target":34962
		},
		{
			"buffer":0,
			"byteLength":4128,
			"byteOffset":105972,
			"target":34962
		},
		{
			"buffer":0,
			"byteLength":2752,
			"byteOffset":110100,
			"target":34962
		},
		{
			"buffer":0,
			"byteLength":1920,
			"byteOffset":112852,
			"target":34963
		}
	],
	"samplers":[
		{
			"magFilter":9728,
			"minFilter":9984
		}
	],
	"buffers":[
		{
			"byteLength":114772,
			"uri":"ship_segment.bin"
		}
	]
}
