{
	"asset":{
		"generator":"Khronos glTF Blender I/O v4.5.47",
		"version":"2.0"
	},
	"scene":0,
	"scenes":[
		{
			"extras":{
				"vs":{
					"export_list":[
						{
							"name":"Collection.dmx",
							"collection":{
								"name":"Collection",
								"type":"Collection"
							},
							"ob_type":"COLLECTION",
							"icon":"GROUP"
						},
						{
							"name":"HD.dmx",
							"collection":{
								"name":"HD",
								"type":"Collection"
							},
							"ob_type":"COLLECTION",
							"icon":"GROUP"
						}
					]
				},
				"GodotPipelineProps":{
					"mesh_data":0,
					"export_UI":1,
					"export_textures":0,
					"save_path":"E:\\game git repo\\project_tidal\\models\\props\\ship_debris.gltf",
					"counter":2
				},
				"UVPackerProps":{
					"uvp_width":2048,
					"uvp_height":2048,
					"uvp_padding":4.0,
					"uvp_stats":"62.98% \u00a6 0.16s"
				},
				"rflow_props":{}
			},
			"name":"Scene",
			"nodes":[
				0,
				1,
				2,
				3,
				4,
				5,
				6
			]
		}
	],
	"nodes":[
		{
			"mesh":0,
			"name":"Cube"
		},
		{
			"mesh":1,
			"name":"Cube.001",
			"translation":[
				10.118237495422363,
				0,
				-4.047294616699219
			]
		},
		{
			"mesh":2,
			"name":"Cube.002",
			"translation":[
				8.904048919677734,
				0,
				-3.2378358840942383
			]
		},
		{
			"mesh":3,
			"name":"Cube.003",
			"translation":[
				4.249659538269043,
				0,
				2.145066022872925
			]
		},
		{
			"mesh":4,
			"name":"Cube.004",
			"translation":[
				-4.284191131591797,
				1.860758662223816,
				-14.762011528015137
			]
		},
		{
			"mesh":5,
			"name":"Cube.005",
			"translation":[
				-6.475672245025635,
				0,
				0.6880400776863098
			]
		},
		{
			"mesh":6,
			"name":"Cube.006",
			"translation":[
				-3.1973628997802734,
				0,
				3.1164169311523438
			]
		}
	],
	"materials":[
		{
			"doubleSided":true,
			"name":"Material.001",
			"pbrMetallicRoughness":{
				"baseColorFactor":[
					0.800000011920929,
					0.800000011920929,
					0.800000011920929,
					1
				]
			}
		}
	],
	"meshes":[
		{
			"name":"Cube.001",
			"primitives":[
				{
					"attributes":{
						"POSITION":0,
						"NORMAL":1,
						"TEXCOORD_0":2
					},
					"indices":3,
					"material":0
				}
			]
		},
		{
			"name":"Cube.002",
			"primitives":[
				{
					"attributes":{
						"POSITION":4,
						"NORMAL":5,
						"TEXCOORD_0":6
					},
					"indices":7,
					"material":0
				}
			]
		},
		{
			"name":"Cube.003",
			"primitives":[
				{
					"attributes":{
						"POSITION":8,
						"NORMAL":9,
						"TEXCOORD_0":10
					},
					"indices":11,
					"material":0
				}
			]
		},
		{
			"name":"Cube.004",
			"primitives":[
				{
					"attributes":{
						"POSITION":12,
						"NORMAL":13,
						"TEXCOORD_0":14
					},
					"indices":15,
					"material":0
				}
			]
		},
		{
			"name":"Cube.005",
			"primitives":[
				{
					"attributes":{
						"POSITION":16,
						"NORMAL":17,
						"TEXCOORD_0":18
					},
					"indices":19,
					"material":0
				}
			]
		},
		{
			"name":"Cube.006",
			"primitives":[
				{
					"attributes":{
						"POSITION":20,
						"NORMAL":21,
						"TEXCOORD_0":22
					},
					"indices":23,
					"material":0
				}
			]
		},
		{
			"name":"Cube.007",
			"primitives":[
				{
					"attributes":{
						"POSITION":24,
						"NORMAL":25,
						"TEXCOORD_0":26
					},
					"indices":27,
					"material":0
				}
			]
		}
	],
	"accessors":[
		{
			"bufferView":0,
			"componentType":5126,
			"count":78,
			"max":[
				0.7142869234085083,
				1.599156379699707,
				0.7140236496925354
			],
			"min":[
				-0.6449979543685913,
				-1.5739773511886597,
				-2.5366878509521484
			],
			"type":"VEC3"
		},
		{
			"bufferView":1,
			"componentType":5126,
			"count":78,
			"type":"VEC3"
		},
		{
			"bufferView":2,
			"componentType":5126,
			"count":78,
			"type":"VEC2"
		},
		{
			"bufferView":3,
			"componentType":5123,
			"count":180,
			"type":"SCALAR"
		},
		{
			"bufferView":4,
			"componentType":5126,
			"count":146,
			"max":[
				1.3434423208236694,
				1.9717434644699097,
				6.028579235076904
			],
			"min":[
				-1.213411808013916,
				-1.6216334104537964,
				4.102270126342773
			],
			"type":"VEC3"
		},
		{
			"bufferView":5,
			"componentType":5126,
			"count":146,
			"type":"VEC3"
		},
		{
			"bufferView":6,
			"componentType":5126,
			"count":146,
			"type":"VEC2"
		},
		{
			"bufferView":7,
			"componentType":5123,
			"count":432,
			"type":"SCALAR"
		},
		{
			"bufferView":8,
			"componentType":5126,
			"count":52,
			"max":[
				0.517960786819458,
				1.7587859630584717,
				-5.075956344604492
			],
			"min":[
				-0.6845927834510803,
				-2.0938870906829834,
				-9.359432220458984
			],
			"type":"VEC3"
		},
		{
			"bufferView":9,
			"componentType":5126,
			"count":52,
			"type":"VEC3"
		},
		{
			"bufferView":10,
			"componentType":5126,
			"count":52,
			"type":"VEC2"
		},
		{
			"bufferView":11,
			"componentType":5123,
			"count":108,
			"type":"SCALAR"
		},
		{
			"bufferView":12,
			"componentType":5126,
			"count":186,
			"max":[
				1.9053341150283813,
				3.9288406372070312,
				12.814128875732422
			],
			"min":[
				-0.20042015612125397,
				-1.1450684070587158,
				9.696250915527344
			],
			"type":"VEC3"
		},
		{
			"bufferView":13,
			"componentType":5126,
			"count":186,
			"type":"VEC3"
		},
		{
			"bufferView":14,
			"componentType":5126,
			"count":186,
			"type":"VEC2"
		},
		{
			"bufferView":15,
			"componentType":5123,
			"count":528,
			"type":"SCALAR"
		},
		{
			"bufferView":16,
			"componentType":5126,
			"count":106,
			"max":[
				-1.7391549348831177,
				0.8639125227928162,
				4.596871376037598
			],
			"min":[
				-3.9115662574768066,
				-0.4842533469200134,
				-9.212959289550781
			],
			"type":"VEC3"
		},
		{
			"bufferView":17,
			"componentType":5126,
			"count":106,
			"type":"VEC3"
		},
		{
			"bufferView":18,
			"componentType":5126,
			"count":106,
			"type":"VEC2"
		},
		{
			"bufferView":19,
			"componentType":5123,
			"count":240,
			"type":"SCALAR"
		},
		{
			"bufferView":20,
			"componentType":5126,
			"count":106,
			"max":[
				-5.900182723999023,
				3.051274061203003,
				3.141052484512329
			],
			"min":[
				-10.580841064453125,
				-0.41611480712890625,
				-7.631414413452148
			],
			"type":"VEC3"
		},
		{
			"bufferView":21,
			"componentType":5126,
			"count":106,
			"type":"VEC3"
		},
		{
			"bufferView":22,
			"componentType":5126,
			"count":106,
			"type":"VEC2"
		},
		{
			"bufferView":23,
			"componentType":5123,
			"count":240,
			"type":"SCALAR"
		},
		{
			"bufferView":24,
			"componentType":5126,
			"count":96,
			"max":[
				-2.595853805541992,
				3.8003904819488525,
				12.726850509643555
			],
			"min":[
				-4.292171001434326,
				-2.1473288536071777,
				6.341619491577148
			],
			"type":"VEC3"
		},
		{
			"bufferView":25,
			"componentType":5126,
			"count":96,
			"type":"VEC3"
		},
		{
			"bufferView":26,
			"componentType":5126,
			"count":96,
			"type":"VEC2"
		},
		{
			"bufferView":27,
			"componentType":5123,
			"count":228,
			"type":"SCALAR"
		}
	],
	"bufferViews":[
		{
			"buffer":0,
			"byteLength":936,
			"byteOffset":0,
			"target":34962
		},
		{
			"buffer":0,
			"byteLength":936,
			"byteOffset":936,
			"target":34962
		},
		{
			"buffer":0,
			"byteLength":624,
			"byteOffset":1872,
			"target":34962
		},
		{
			"buffer":0,
			"byteLength":360,
			"byteOffset":2496,
			"target":34963
		},
		{
			"buffer":0,
			"byteLength":1752,
			"byteOffset":2856,
			"target":34962
		},
		{
			"buffer":0,
			"byteLength":1752,
			"byteOffset":4608,
			"target":34962
		},
		{
			"buffer":0,
			"byteLength":1168,
			"byteOffset":6360,
			"target":34962
		},
		{
			"buffer":0,
			"byteLength":864,
			"byteOffset":7528,
			"target":34963
		},
		{
			"buffer":0,
			"byteLength":624,
			"byteOffset":8392,
			"target":34962
		},
		{
			"buffer":0,
			"byteLength":624,
			"byteOffset":9016,
			"target":34962
		},
		{
			"buffer":0,
			"byteLength":416,
			"byteOffset":9640,
			"target":34962
		},
		{
			"buffer":0,
			"byteLength":216,
			"byteOffset":10056,
			"target":34963
		},
		{
			"buffer":0,
			"byteLength":2232,
			"byteOffset":10272,
			"target":34962
		},
		{
			"buffer":0,
			"byteLength":2232,
			"byteOffset":12504,
			"target":34962
		},
		{
			"buffer":0,
			"byteLength":1488,
			"byteOffset":14736,
			"target":34962
		},
		{
			"buffer":0,
			"byteLength":1056,
			"byteOffset":16224,
			"target":34963
		},
		{
			"buffer":0,
			"byteLength":1272,
			"byteOffset":17280,
			"target":34962
		},
		{
			"buffer":0,
			"byteLength":1272,
			"byteOffset":18552,
			"target":34962
		},
		{
			"buffer":0,
			"byteLength":848,
			"byteOffset":19824,
			"target":34962
		},
		{
			"buffer":0,
			"byteLength":480,
			"byteOffset":20672,
			"target":34963
		},
		{
			"buffer":0,
			"byteLength":1272,
			"byteOffset":21152,
			"target":34962
		},
		{
			"buffer":0,
			"byteLength":1272,
			"byteOffset":22424,
			"target":34962
		},
		{
			"buffer":0,
			"byteLength":848,
			"byteOffset":23696,
			"target":34962
		},
		{
			"buffer":0,
			"byteLength":480,
			"byteOffset":24544,
			"target":34963
		},
		{
			"buffer":0,
			"byteLength":1152,
			"byteOffset":25024,
			"target":34962
		},
		{
			"buffer":0,
			"byteLength":1152,
			"byteOffset":26176,
			"target":34962
		},
		{
			"buffer":0,
			"byteLength":768,
			"byteOffset":27328,
			"target":34962
		},
		{
			"buffer":0,
			"byteLength":456,
			"byteOffset":28096,
			"target":34963
		}
	],
	"buffers":[
		{
			"byteLength":28552,
			"uri":"ship_debris.bin"
		}
	]
}
