{
	"asset":{
		"generator":"Khronos glTF Blender I/O v4.5.49",
		"version":"2.0"
	},
	"scene":0,
	"scenes":[
		{
			"extras":{
				"GodotPipelineProps":{
					"mesh_data":1,
					"global_UI":1,
					"export_UI":1,
					"string_setter_UI":1,
					"path_UI":1,
					"collision_UI":1,
					"save_path":"A:\\Godot Projects\\project_tidal\\scenes\\Level1_FINALTEXTUREDBUTBETTER.gltf",
					"counter":28,
					"discard_mesh":0,
					"col_types":4,
					"body_types":0
				},
				"subrect_atlas1":{
					"name":"ExteriorTowerTexAtlas",
					"type":"Object"
				},
				"duv_hotspotmaterial1":{
					"name":"ExteriorTowerTexAtlas",
					"type":"Material"
				},
				"trim_atlas":{},
				"uv_box":{},
				"uvtransferxmax":0.9687499403953552,
				"uvtransferxmin":0.9374999403953552,
				"uvtransferymax":0.75,
				"uvtransferymin":0.5,
				"subrect_atlas":{
					"name":"ExteriorTowerTexAtlas",
					"type":"Object"
				},
				"duv_hotspotmaterial":{
					"name":"ExteriorTowerTexAtlas",
					"type":"Material"
				},
				"duv_usemirrory":1,
				"duv_useorientation":0
			},
			"name":"Scene",
			"nodes":[
				0,
				1,
				2,
				3,
				4,
				5,
				6,
				7
			]
		}
	],
	"nodes":[
		{
			"extras":{
				"collision":"trimesh"
			},
			"mesh":0,
			"name":"FirstTower",
			"translation":[
				-82.32479858398438,
				-178.74642944335938,
				-449.2918701171875
			]
		},
		{
			"extras":{
				"collision":"trimesh"
			},
			"mesh":1,
			"name":"BossTower",
			"translation":[
				-351.9136047363281,
				-181.41555786132812,
				-1092.521240234375
			]
		},
		{
			"extras":{
				"collision":"trimesh"
			},
			"mesh":2,
			"name":"BasaltCliff",
			"translation":[
				0,
				1,
				3.6343936920166016
			]
		},
		{
			"extras":{
				"collision":"trimesh"
			},
			"mesh":3,
			"name":"LevelTerrain",
			"translation":[
				0,
				1,
				3.6343936920166016
			]
		},
		{
			"extras":{
				"collision":"trimesh"
			},
			"mesh":4,
			"name":"WaterfallLeft",
			"translation":[
				-97.38370513916016,
				-6.270284652709961,
				-31.0609188079834
			]
		},
		{
			"extras":{
				"collision":"trimesh"
			},
			"mesh":5,
			"name":"WaterfallRight",
			"translation":[
				97.3836669921875,
				-6.270284652709961,
				-31.0609188079834
			]
		},
		{
			"extras":{
				"collision":"trimesh"
			},
			"mesh":6,
			"name":"SecondTower",
			"rotation":[
				0,
				0.443887859582901,
				0,
				0.8960824608802795
			],
			"translation":[
				-390.39361572265625,
				-178.74642944335938,
				-685.4669189453125
			]
		},
		{
			"extras":{
				"collision":"trimesh"
			},
			"mesh":7,
			"name":"WatchTower",
			"translation":[
				0,
				1,
				3.6343936920166016
			]
		}
	],
	"materials":[
		{
			"doubleSided":true,
			"name":"ExteriorTowerTexAtlas",
			"normalTexture":{
				"index":0
			},
			"pbrMetallicRoughness":{
				"baseColorTexture":{
					"index":1
				},
				"metallicRoughnessTexture":{
					"index":2
				}
			}
		},
		{
			"doubleSided":true,
			"name":"BossTowerMat",
			"normalTexture":{
				"index":3
			},
			"pbrMetallicRoughness":{
				"baseColorTexture":{
					"index":4
				},
				"metallicRoughnessTexture":{
					"index":5
				}
			}
		},
		{
			"doubleSided":true,
			"name":"BasaltMat",
			"normalTexture":{
				"index":6
			},
			"pbrMetallicRoughness":{
				"baseColorTexture":{
					"index":7
				},
				"metallicRoughnessTexture":{
					"index":8
				}
			}
		},
		{
			"doubleSided":true,
			"name":"TerrainTexture",
			"normalTexture":{
				"index":9
			},
			"pbrMetallicRoughness":{
				"baseColorTexture":{
					"index":10
				},
				"metallicRoughnessTexture":{
					"index":11
				}
			}
		},
		{
			"doubleSided":true,
			"name":"Triplanar",
			"normalTexture":{
				"index":12
			},
			"pbrMetallicRoughness":{
				"baseColorTexture":{
					"index":13
				},
				"metallicRoughnessTexture":{
					"index":14
				}
			}
		}
	],
	"meshes":[
		{
			"extras":{
				"collision":"trimesh"
			},
			"name":"Cube.004",
			"primitives":[
				{
					"attributes":{
						"POSITION":0,
						"NORMAL":1,
						"TEXCOORD_0":2
					},
					"indices":3,
					"material":0
				}
			]
		},
		{
			"extras":{
				"collision":"trimesh"
			},
			"name":"Cube.020",
			"primitives":[
				{
					"attributes":{
						"POSITION":4,
						"NORMAL":5,
						"TEXCOORD_0":6
					},
					"indices":7,
					"material":1
				}
			]
		},
		{
			"extras":{
				"collision":"trimesh"
			},
			"name":"Cube.022",
			"primitives":[
				{
					"attributes":{
						"POSITION":8,
						"NORMAL":9,
						"TEXCOORD_0":10
					},
					"indices":11,
					"material":2
				}
			]
		},
		{
			"extras":{
				"collision":"trimesh"
			},
			"name":"Cube.025",
			"primitives":[
				{
					"attributes":{
						"POSITION":12,
						"NORMAL":13,
						"TEXCOORD_0":14
					},
					"indices":15,
					"material":3
				}
			]
		},
		{
			"extras":{
				"collision":"trimesh"
			},
			"name":"Cube.026",
			"primitives":[
				{
					"attributes":{
						"POSITION":16,
						"NORMAL":17,
						"TEXCOORD_0":18
					},
					"indices":19
				}
			]
		},
		{
			"extras":{
				"collision":"trimesh"
			},
			"name":"Cube.027",
			"primitives":[
				{
					"attributes":{
						"POSITION":20,
						"NORMAL":21,
						"TEXCOORD_0":22
					},
					"indices":23
				}
			]
		},
		{
			"extras":{
				"collision":"trimesh"
			},
			"name":"Cube.028",
			"primitives":[
				{
					"attributes":{
						"POSITION":24,
						"NORMAL":25,
						"TEXCOORD_0":26
					},
					"indices":27,
					"material":0
				}
			]
		},
		{
			"extras":{
				"collision":"trimesh"
			},
			"name":"Cube.008",
			"primitives":[
				{
					"attributes":{
						"POSITION":28,
						"NORMAL":29,
						"TEXCOORD_0":30
					},
					"indices":31,
					"material":4
				}
			]
		}
	],
	"textures":[
		{
			"sampler":0,
			"source":0
		},
		{
			"sampler":0,
			"source":1
		},
		{
			"sampler":0,
			"source":2
		},
		{
			"sampler":0,
			"source":3
		},
		{
			"sampler":0,
			"source":4
		},
		{
			"sampler":0,
			"source":5
		},
		{
			"sampler":0,
			"source":6
		},
		{
			"sampler":0,
			"source":7
		},
		{
			"sampler":0,
			"source":8
		},
		{
			"sampler":0,
			"source":9
		},
		{
			"sampler":0,
			"source":10
		},
		{
			"sampler":0,
			"source":11
		},
		{
			"sampler":0,
			"source":12
		},
		{
			"sampler":0,
			"source":13
		},
		{
			"sampler":0,
			"source":14
		}
	],
	"images":[
		{
			"mimeType":"image/png",
			"name":"ExteriorTowerTexAtlas_NormalScaled",
			"uri":"ExteriorTowerTexAtlas_NormalScaled.png"
		},
		{
			"mimeType":"image/png",
			"name":"ExteriorTowerTexAtlas_BaseColorScaled",
			"uri":"ExteriorTowerTexAtlas_BaseColorScaled.png"
		},
		{
			"mimeType":"image/png",
			"name":"ExteriorTowerTexAtlas_MetallicScaled-ExteriorTowerTexAtlas_RoughnessScaled",
			"uri":"ExteriorTowerTexAtlas_MetallicScaled-ExteriorTowerTexAtlas_RoughnessScaled.png"
		},
		{
			"mimeType":"image/png",
			"name":"BossTowerMat_NormalScaled",
			"uri":"BossTowerMat_NormalScaled.png"
		},
		{
			"mimeType":"image/png",
			"name":"BossTowerMat_BaseColorScaled",
			"uri":"BossTowerMat_BaseColorScaled.png"
		},
		{
			"mimeType":"image/png",
			"name":"BossTowerMat_MetallicScaled-BossTowerMat_RoughnessScaled",
			"uri":"BossTowerMat_MetallicScaled-BossTowerMat_RoughnessScaled.png"
		},
		{
			"mimeType":"image/png",
			"name":"BasaltMat_NormalScaled",
			"uri":"BasaltMat_NormalScaled.png"
		},
		{
			"mimeType":"image/png",
			"name":"BasaltMat_Base_colorScaled",
			"uri":"BasaltMat_Base_colorScaled.png"
		},
		{
			"mimeType":"image/png",
			"name":"BasaltMat_MetallicScaled-BasaltMat_RoughnessScaled",
			"uri":"BasaltMat_MetallicScaled-BasaltMat_RoughnessScaled.png"
		},
		{
			"mimeType":"image/png",
			"name":"LandscapeTriplanarStoneTexture_NormalScaled",
			"uri":"LandscapeTriplanarStoneTexture_NormalScaled.png"
		},
		{
			"mimeType":"image/png",
			"name":"LandscapeTriplanarStoneTexture_BaseColorScaled",
			"uri":"LandscapeTriplanarStoneTexture_BaseColorScaled.png"
		},
		{
			"mimeType":"image/png",
			"name":"LandscapeTriplanarStoneTexture_MetallicScaled-LandscapeTriplanarStoneTexture_RoughnessScaled",
			"uri":"LandscapeTriplanarStoneTexture_MetallicScaled-LandscapeTriplanarStoneTexture_RoughnessScaled.png"
		},
		{
			"mimeType":"image/png",
			"name":"SpawnTowerMetalTex_NormalScaled",
			"uri":"SpawnTowerMetalTex_NormalScaled.png"
		},
		{
			"mimeType":"image/png",
			"name":"SpawnTowerMetalTex_BaseColorScaled",
			"uri":"SpawnTowerMetalTex_BaseColorScaled.png"
		},
		{
			"mimeType":"image/png",
			"name":"SpawnTowerMetalTex_MetallicScaled-SpawnTowerMetalTex_RoughnessScaled",
			"uri":"SpawnTowerMetalTex_MetallicScaled-SpawnTowerMetalTex_RoughnessScaled.png"
		}
	],
	"accessors":[
		{
			"bufferView":0,
			"componentType":5126,
			"count":8709,
			"max":[
				126.19627380371094,
				235.1693115234375,
				113.49014282226562
			],
			"min":[
				-126.19627380371094,
				-43.255706787109375,
				-113.4901123046875
			],
			"type":"VEC3"
		},
		{
			"bufferView":1,
			"componentType":5126,
			"count":8709,
			"type":"VEC3"
		},
		{
			"bufferView":2,
			"componentType":5126,
			"count":8709,
			"type":"VEC2"
		},
		{
			"bufferView":3,
			"componentType":5123,
			"count":21924,
			"type":"SCALAR"
		},
		{
			"bufferView":4,
			"componentType":5126,
			"count":318,
			"max":[
				98.12516021728516,
				332.3514709472656,
				65.72856140136719
			],
			"min":[
				-98.11310577392578,
				1.69562226801645e-05,
				-50.113914489746094
			],
			"type":"VEC3"
		},
		{
			"bufferView":5,
			"componentType":5126,
			"count":318,
			"type":"VEC3"
		},
		{
			"bufferView":6,
			"componentType":5126,
			"count":318,
			"type":"VEC2"
		},
		{
			"bufferView":7,
			"componentType":5123,
			"count":996,
			"type":"SCALAR"
		},
		{
			"bufferView":8,
			"componentType":5126,
			"count":9204,
			"max":[
				385.3392333984375,
				-1.648850440979004,
				8.384923934936523
			],
			"min":[
				-385.3392333984375,
				-476.7724609375,
				-51.79649353027344
			],
			"type":"VEC3"
		},
		{
			"bufferView":9,
			"componentType":5126,
			"count":9204,
			"type":"VEC3"
		},
		{
			"bufferView":10,
			"componentType":5126,
			"count":9204,
			"type":"VEC2"
		},
		{
			"bufferView":11,
			"componentType":5123,
			"count":22236,
			"type":"SCALAR"
		},
		{
			"bufferView":12,
			"componentType":5126,
			"count":1830,
			"max":[
				1870.73486328125,
				9.624902725219727,
				-45.05370330810547
			],
			"min":[
				-2018.6256103515625,
				-472.7757263183594,
				-1176.535400390625
			],
			"type":"VEC3"
		},
		{
			"bufferView":13,
			"componentType":5126,
			"count":1830,
			"type":"VEC3"
		},
		{
			"bufferView":14,
			"componentType":5126,
			"count":1830,
			"type":"VEC2"
		},
		{
			"bufferView":15,
			"componentType":5123,
			"count":10053,
			"type":"SCALAR"
		},
		{
			"bufferView":16,
			"componentType":5126,
			"count":81,
			"max":[
				55.92516326904297,
				0.8525528907775879,
				52.730560302734375
			],
			"min":[
				-57.69300079345703,
				-395.2430419921875,
				-33.310455322265625
			],
			"type":"VEC3"
		},
		{
			"bufferView":17,
			"componentType":5126,
			"count":81,
			"type":"VEC3"
		},
		{
			"bufferView":18,
			"componentType":5126,
			"count":81,
			"type":"VEC2"
		},
		{
			"bufferView":19,
			"componentType":5123,
			"count":384,
			"type":"SCALAR"
		},
		{
			"bufferView":20,
			"componentType":5126,
			"count":81,
			"max":[
				57.69300842285156,
				0.8525528907775879,
				52.730560302734375
			],
			"min":[
				-55.9251594543457,
				-395.2430419921875,
				-33.310455322265625
			],
			"type":"VEC3"
		},
		{
			"bufferView":21,
			"componentType":5126,
			"count":81,
			"type":"VEC3"
		},
		{
			"bufferView":22,
			"componentType":5126,
			"count":81,
			"type":"VEC2"
		},
		{
			"bufferView":23,
			"componentType":5123,
			"count":384,
			"type":"SCALAR"
		},
		{
			"bufferView":24,
			"componentType":5126,
			"count":8709,
			"max":[
				113.78117370605469,
				235.1693115234375,
				126.0810546875
			],
			"min":[
				-113.78115844726562,
				-43.255706787109375,
				-126.08111572265625
			],
			"type":"VEC3"
		},
		{
			"bufferView":25,
			"componentType":5126,
			"count":8709,
			"type":"VEC3"
		},
		{
			"bufferView":26,
			"componentType":5126,
			"count":8709,
			"type":"VEC2"
		},
		{
			"bufferView":27,
			"componentType":5123,
			"count":21924,
			"type":"SCALAR"
		},
		{
			"bufferView":28,
			"componentType":5126,
			"count":807,
			"max":[
				71.83134460449219,
				77.89617919921875,
				19.28057098388672
			],
			"min":[
				-71.83134460449219,
				-461.6037902832031,
				-196.12290954589844
			],
			"type":"VEC3"
		},
		{
			"bufferView":29,
			"componentType":5126,
			"count":807,
			"type":"VEC3"
		},
		{
			"bufferView":30,
			"componentType":5126,
			"count":807,
			"type":"VEC2"
		},
		{
			"bufferView":31,
			"componentType":5123,
			"count":2694,
			"type":"SCALAR"
		}
	],
	"bufferViews":[
		{
			"buffer":0,
			"byteLength":104508,
			"byteOffset":0,
			"target":34962
		},
		{
			"buffer":0,
			"byteLength":104508,
			"byteOffset":104508,
			"target":34962
		},
		{
			"buffer":0,
			"byteLength":69672,
			"byteOffset":209016,
			"target":34962
		},
		{
			"buffer":0,
			"byteLength":43848,
			"byteOffset":278688,
			"target":34963
		},
		{
			"buffer":0,
			"byteLength":3816,
			"byteOffset":322536,
			"target":34962
		},
		{
			"buffer":0,
			"byteLength":3816,
			"byteOffset":326352,
			"target":34962
		},
		{
			"buffer":0,
			"byteLength":2544,
			"byteOffset":330168,
			"target":34962
		},
		{
			"buffer":0,
			"byteLength":1992,
			"byteOffset":332712,
			"target":34963
		},
		{
			"buffer":0,
			"byteLength":110448,
			"byteOffset":334704,
			"target":34962
		},
		{
			"buffer":0,
			"byteLength":110448,
			"byteOffset":445152,
			"target":34962
		},
		{
			"buffer":0,
			"byteLength":73632,
			"byteOffset":555600,
			"target":34962
		},
		{
			"buffer":0,
			"byteLength":44472,
			"byteOffset":629232,
			"target":34963
		},
		{
			"buffer":0,
			"byteLength":21960,
			"byteOffset":673704,
			"target":34962
		},
		{
			"buffer":0,
			"byteLength":21960,
			"byteOffset":695664,
			"target":34962
		},
		{
			"buffer":0,
			"byteLength":14640,
			"byteOffset":717624,
			"target":34962
		},
		{
			"buffer":0,
			"byteLength":20106,
			"byteOffset":732264,
			"target":34963
		},
		{
			"buffer":0,
			"byteLength":972,
			"byteOffset":752372,
			"target":34962
		},
		{
			"buffer":0,
			"byteLength":972,
			"byteOffset":753344,
			"target":34962
		},
		{
			"buffer":0,
			"byteLength":648,
			"byteOffset":754316,
			"target":34962
		},
		{
			"buffer":0,
			"byteLength":768,
			"byteOffset":754964,
			"target":34963
		},
		{
			"buffer":0,
			"byteLength":972,
			"byteOffset":755732,
			"target":34962
		},
		{
			"buffer":0,
			"byteLength":972,
			"byteOffset":756704,
			"target":34962
		},
		{
			"buffer":0,
			"byteLength":648,
			"byteOffset":757676,
			"target":34962
		},
		{
			"buffer":0,
			"byteLength":768,
			"byteOffset":758324,
			"target":34963
		},
		{
			"buffer":0,
			"byteLength":104508,
			"byteOffset":759092,
			"target":34962
		},
		{
			"buffer":0,
			"byteLength":104508,
			"byteOffset":863600,
			"target":34962
		},
		{
			"buffer":0,
			"byteLength":69672,
			"byteOffset":968108,
			"target":34962
		},
		{
			"buffer":0,
			"byteLength":43848,
			"byteOffset":1037780,
			"target":34963
		},
		{
			"buffer":0,
			"byteLength":9684,
			"byteOffset":1081628,
			"target":34962
		},
		{
			"buffer":0,
			"byteLength":9684,
			"byteOffset":1091312,
			"target":34962
		},
		{
			"buffer":0,
			"byteLength":6456,
			"byteOffset":1100996,
			"target":34962
		},
		{
			"buffer":0,
			"byteLength":5388,
			"byteOffset":1107452,
			"target":34963
		}
	],
	"samplers":[
		{
			"magFilter":9728,
			"minFilter":9984
		}
	],
	"buffers":[
		{
			"byteLength":1112840,
			"uri":"Level1_FINALTEXTUREDBUTBETTER.bin"
		}
	]
}
