{
	"asset":{
		"generator":"Khronos glTF Blender I/O v4.5.49",
		"version":"2.0"
	},
	"scene":0,
	"scenes":[
		{
			"extras":{
				"GodotPipelineProps":{
					"mesh_data":1,
					"global_UI":1,
					"export_UI":1,
					"string_setter_UI":1,
					"path_UI":1,
					"collision_UI":1,
					"save_path":"A:\\Godot Projects\\project_tidal\\scenes\\Level1_FINAL.gltf",
					"counter":26,
					"discard_mesh":0,
					"col_types":4,
					"body_types":0
				},
				"subrect_atlas1":{
					"name":"ExteriorTowerTexAtlas",
					"type":"Object"
				},
				"duv_hotspotmaterial1":{
					"name":"NewTowerMat",
					"type":"Material"
				},
				"trim_atlas":{},
				"uv_box":{},
				"uvtransferxmax":0.9687499403953552,
				"uvtransferxmin":0.9374999403953552,
				"uvtransferymax":0.75,
				"uvtransferymin":0.5,
				"subrect_atlas":{
					"name":"ExteriorTowerTexAtlas",
					"type":"Object"
				},
				"duv_hotspotmaterial":{
					"name":"NewTowerMat",
					"type":"Material"
				},
				"duv_usemirrory":1,
				"duv_useorientation":0
			},
			"name":"Scene",
			"nodes":[
				0,
				1,
				2,
				3,
				4,
				5,
				6,
				7
			]
		}
	],
	"nodes":[
		{
			"extras":{
				"collision":"trimesh"
			},
			"mesh":0,
			"name":"FirstTower",
			"translation":[
				-82.32479858398438,
				-178.74642944335938,
				-449.2918701171875
			]
		},
		{
			"extras":{
				"collision":"trimesh"
			},
			"mesh":1,
			"name":"BossTower",
			"translation":[
				-351.9136047363281,
				-181.41555786132812,
				-1092.521240234375
			]
		},
		{
			"extras":{
				"collision":"trimesh"
			},
			"mesh":2,
			"name":"BasaltCliff",
			"translation":[
				0,
				1,
				3.6343936920166016
			]
		},
		{
			"extras":{
				"collision":"trimesh"
			},
			"mesh":3,
			"name":"LevelTerrain",
			"translation":[
				0,
				1,
				3.6343936920166016
			]
		},
		{
			"extras":{
				"collision":"trimesh"
			},
			"mesh":4,
			"name":"WaterfallLeft",
			"translation":[
				-97.38370513916016,
				-6.270284652709961,
				-31.0609188079834
			]
		},
		{
			"extras":{
				"collision":"trimesh"
			},
			"mesh":5,
			"name":"WaterfallRight",
			"translation":[
				97.3836669921875,
				-6.270284652709961,
				-31.0609188079834
			]
		},
		{
			"extras":{
				"collision":"trimesh"
			},
			"mesh":6,
			"name":"SecondTower",
			"rotation":[
				0,
				0.443887859582901,
				0,
				0.8960824608802795
			],
			"translation":[
				-390.39361572265625,
				-178.74642944335938,
				-685.4669189453125
			]
		},
		{
			"extras":{
				"collision":"trimesh"
			},
			"mesh":7,
			"name":"WatchTower",
			"translation":[
				0,
				1,
				3.6343936920166016
			]
		}
	],
	"materials":[
		{
			"doubleSided":true,
			"name":"NewTowerMat",
			"normalTexture":{
				"index":0
			},
			"pbrMetallicRoughness":{
				"baseColorTexture":{
					"index":1
				},
				"metallicRoughnessTexture":{
					"index":2
				}
			}
		},
		{
			"doubleSided":true,
			"name":"BasaltMat",
			"pbrMetallicRoughness":{
				"baseColorFactor":[
					0.800000011920929,
					0.800000011920929,
					0.800000011920929,
					1
				],
				"metallicFactor":0,
				"roughnessFactor":0.5
			}
		},
		{
			"doubleSided":true,
			"name":"StartTowerMat",
			"pbrMetallicRoughness":{
				"baseColorFactor":[
					0.800000011920929,
					0.800000011920929,
					0.800000011920929,
					1
				],
				"metallicFactor":0,
				"roughnessFactor":0.5
			}
		}
	],
	"meshes":[
		{
			"extras":{
				"collision":"trimesh"
			},
			"name":"Cube.004",
			"primitives":[
				{
					"attributes":{
						"POSITION":0,
						"NORMAL":1,
						"TEXCOORD_0":2
					},
					"indices":3,
					"material":0
				}
			]
		},
		{
			"extras":{
				"collision":"trimesh"
			},
			"name":"Cube.020",
			"primitives":[
				{
					"attributes":{
						"POSITION":4,
						"NORMAL":5,
						"TEXCOORD_0":6
					},
					"indices":7
				}
			]
		},
		{
			"extras":{
				"collision":"trimesh"
			},
			"name":"Cube.022",
			"primitives":[
				{
					"attributes":{
						"POSITION":8,
						"NORMAL":9,
						"TEXCOORD_0":10
					},
					"indices":11,
					"material":1
				}
			]
		},
		{
			"extras":{
				"collision":"trimesh"
			},
			"name":"Cube.025",
			"primitives":[
				{
					"attributes":{
						"POSITION":12,
						"NORMAL":13,
						"TEXCOORD_0":14
					},
					"indices":15,
					"material":2
				},
				{
					"attributes":{
						"POSITION":16,
						"NORMAL":17,
						"TEXCOORD_0":18
					},
					"indices":19
				}
			]
		},
		{
			"extras":{
				"collision":"trimesh"
			},
			"name":"Cube.026",
			"primitives":[
				{
					"attributes":{
						"POSITION":20,
						"NORMAL":21,
						"TEXCOORD_0":22
					},
					"indices":23
				}
			]
		},
		{
			"extras":{
				"collision":"trimesh"
			},
			"name":"Cube.027",
			"primitives":[
				{
					"attributes":{
						"POSITION":24,
						"NORMAL":25,
						"TEXCOORD_0":26
					},
					"indices":27
				}
			]
		},
		{
			"extras":{
				"collision":"trimesh"
			},
			"name":"Cube.028",
			"primitives":[
				{
					"attributes":{
						"POSITION":28,
						"NORMAL":29,
						"TEXCOORD_0":30
					},
					"indices":31,
					"material":0
				}
			]
		},
		{
			"extras":{
				"collision":"trimesh"
			},
			"name":"Cube.008",
			"primitives":[
				{
					"attributes":{
						"POSITION":32,
						"NORMAL":33,
						"TEXCOORD_0":34
					},
					"indices":35,
					"material":2
				}
			]
		}
	],
	"textures":[
		{
			"sampler":0,
			"source":0
		},
		{
			"sampler":0,
			"source":1
		},
		{
			"sampler":0,
			"source":2
		}
	],
	"images":[
		{
			"mimeType":"image/png",
			"name":"DefaultMaterial_Normal",
			"uri":"DefaultMaterial_Normal.png"
		},
		{
			"mimeType":"image/png",
			"name":"DefaultMaterial_BaseColor",
			"uri":"DefaultMaterial_BaseColor.png"
		},
		{
			"mimeType":"image/png",
			"name":"DefaultMaterial_Metallic-DefaultMaterial_Roughness",
			"uri":"DefaultMaterial_Metallic-DefaultMaterial_Roughness.png"
		}
	],
	"accessors":[
		{
			"bufferView":0,
			"componentType":5126,
			"count":8709,
			"max":[
				126.19627380371094,
				235.1693115234375,
				113.49014282226562
			],
			"min":[
				-126.19627380371094,
				-43.255706787109375,
				-113.4901123046875
			],
			"type":"VEC3"
		},
		{
			"bufferView":1,
			"componentType":5126,
			"count":8709,
			"type":"VEC3"
		},
		{
			"bufferView":2,
			"componentType":5126,
			"count":8709,
			"type":"VEC2"
		},
		{
			"bufferView":3,
			"componentType":5123,
			"count":21924,
			"type":"SCALAR"
		},
		{
			"bufferView":4,
			"componentType":5126,
			"count":266,
			"max":[
				98.12516021728516,
				332.3514709472656,
				65.72856140136719
			],
			"min":[
				-98.11310577392578,
				1.69562226801645e-05,
				-50.113914489746094
			],
			"type":"VEC3"
		},
		{
			"bufferView":5,
			"componentType":5126,
			"count":266,
			"type":"VEC3"
		},
		{
			"bufferView":6,
			"componentType":5126,
			"count":266,
			"type":"VEC2"
		},
		{
			"bufferView":7,
			"componentType":5123,
			"count":996,
			"type":"SCALAR"
		},
		{
			"bufferView":8,
			"componentType":5126,
			"count":9204,
			"max":[
				385.3392333984375,
				-1.648850440979004,
				8.384923934936523
			],
			"min":[
				-385.3392333984375,
				-476.7724609375,
				-51.79649353027344
			],
			"type":"VEC3"
		},
		{
			"bufferView":9,
			"componentType":5126,
			"count":9204,
			"type":"VEC3"
		},
		{
			"bufferView":10,
			"componentType":5126,
			"count":9204,
			"type":"VEC2"
		},
		{
			"bufferView":11,
			"componentType":5123,
			"count":22236,
			"type":"SCALAR"
		},
		{
			"bufferView":12,
			"componentType":5126,
			"count":141,
			"max":[
				-263.51708984375,
				-114.52137756347656,
				-737.6209716796875
			],
			"min":[
				-466.46014404296875,
				-181.0867156982422,
				-1065.8814697265625
			],
			"type":"VEC3"
		},
		{
			"bufferView":13,
			"componentType":5126,
			"count":141,
			"type":"VEC3"
		},
		{
			"bufferView":14,
			"componentType":5126,
			"count":141,
			"type":"VEC2"
		},
		{
			"bufferView":15,
			"componentType":5123,
			"count":684,
			"type":"SCALAR"
		},
		{
			"bufferView":16,
			"componentType":5126,
			"count":1724,
			"max":[
				1870.73486328125,
				9.624902725219727,
				-45.05370330810547
			],
			"min":[
				-2018.6256103515625,
				-472.7757263183594,
				-1176.535400390625
			],
			"type":"VEC3"
		},
		{
			"bufferView":17,
			"componentType":5126,
			"count":1724,
			"type":"VEC3"
		},
		{
			"bufferView":18,
			"componentType":5126,
			"count":1724,
			"type":"VEC2"
		},
		{
			"bufferView":19,
			"componentType":5123,
			"count":9369,
			"type":"SCALAR"
		},
		{
			"bufferView":20,
			"componentType":5126,
			"count":81,
			"max":[
				55.92516326904297,
				0.8525528907775879,
				52.730560302734375
			],
			"min":[
				-57.69300079345703,
				-395.2430419921875,
				-33.310455322265625
			],
			"type":"VEC3"
		},
		{
			"bufferView":21,
			"componentType":5126,
			"count":81,
			"type":"VEC3"
		},
		{
			"bufferView":22,
			"componentType":5126,
			"count":81,
			"type":"VEC2"
		},
		{
			"bufferView":23,
			"componentType":5123,
			"count":384,
			"type":"SCALAR"
		},
		{
			"bufferView":24,
			"componentType":5126,
			"count":81,
			"max":[
				57.69300842285156,
				0.8525528907775879,
				52.730560302734375
			],
			"min":[
				-55.9251594543457,
				-395.2430419921875,
				-33.310455322265625
			],
			"type":"VEC3"
		},
		{
			"bufferView":25,
			"componentType":5126,
			"count":81,
			"type":"VEC3"
		},
		{
			"bufferView":26,
			"componentType":5126,
			"count":81,
			"type":"VEC2"
		},
		{
			"bufferView":27,
			"componentType":5123,
			"count":384,
			"type":"SCALAR"
		},
		{
			"bufferView":28,
			"componentType":5126,
			"count":8709,
			"max":[
				113.78117370605469,
				235.1693115234375,
				126.0810546875
			],
			"min":[
				-113.78115844726562,
				-43.255706787109375,
				-126.08111572265625
			],
			"type":"VEC3"
		},
		{
			"bufferView":29,
			"componentType":5126,
			"count":8709,
			"type":"VEC3"
		},
		{
			"bufferView":30,
			"componentType":5126,
			"count":8709,
			"type":"VEC2"
		},
		{
			"bufferView":31,
			"componentType":5123,
			"count":21924,
			"type":"SCALAR"
		},
		{
			"bufferView":32,
			"componentType":5126,
			"count":1185,
			"max":[
				71.83134460449219,
				77.89617919921875,
				19.28057098388672
			],
			"min":[
				-71.83134460449219,
				-461.6037902832031,
				-196.12290954589844
			],
			"type":"VEC3"
		},
		{
			"bufferView":33,
			"componentType":5126,
			"count":1185,
			"type":"VEC3"
		},
		{
			"bufferView":34,
			"componentType":5126,
			"count":1185,
			"type":"VEC2"
		},
		{
			"bufferView":35,
			"componentType":5123,
			"count":4518,
			"type":"SCALAR"
		}
	],
	"bufferViews":[
		{
			"buffer":0,
			"byteLength":104508,
			"byteOffset":0,
			"target":34962
		},
		{
			"buffer":0,
			"byteLength":104508,
			"byteOffset":104508,
			"target":34962
		},
		{
			"buffer":0,
			"byteLength":69672,
			"byteOffset":209016,
			"target":34962
		},
		{
			"buffer":0,
			"byteLength":43848,
			"byteOffset":278688,
			"target":34963
		},
		{
			"buffer":0,
			"byteLength":3192,
			"byteOffset":322536,
			"target":34962
		},
		{
			"buffer":0,
			"byteLength":3192,
			"byteOffset":325728,
			"target":34962
		},
		{
			"buffer":0,
			"byteLength":2128,
			"byteOffset":328920,
			"target":34962
		},
		{
			"buffer":0,
			"byteLength":1992,
			"byteOffset":331048,
			"target":34963
		},
		{
			"buffer":0,
			"byteLength":110448,
			"byteOffset":333040,
			"target":34962
		},
		{
			"buffer":0,
			"byteLength":110448,
			"byteOffset":443488,
			"target":34962
		},
		{
			"buffer":0,
			"byteLength":73632,
			"byteOffset":553936,
			"target":34962
		},
		{
			"buffer":0,
			"byteLength":44472,
			"byteOffset":627568,
			"target":34963
		},
		{
			"buffer":0,
			"byteLength":1692,
			"byteOffset":672040,
			"target":34962
		},
		{
			"buffer":0,
			"byteLength":1692,
			"byteOffset":673732,
			"target":34962
		},
		{
			"buffer":0,
			"byteLength":1128,
			"byteOffset":675424,
			"target":34962
		},
		{
			"buffer":0,
			"byteLength":1368,
			"byteOffset":676552,
			"target":34963
		},
		{
			"buffer":0,
			"byteLength":20688,
			"byteOffset":677920,
			"target":34962
		},
		{
			"buffer":0,
			"byteLength":20688,
			"byteOffset":698608,
			"target":34962
		},
		{
			"buffer":0,
			"byteLength":13792,
			"byteOffset":719296,
			"target":34962
		},
		{
			"buffer":0,
			"byteLength":18738,
			"byteOffset":733088,
			"target":34963
		},
		{
			"buffer":0,
			"byteLength":972,
			"byteOffset":751828,
			"target":34962
		},
		{
			"buffer":0,
			"byteLength":972,
			"byteOffset":752800,
			"target":34962
		},
		{
			"buffer":0,
			"byteLength":648,
			"byteOffset":753772,
			"target":34962
		},
		{
			"buffer":0,
			"byteLength":768,
			"byteOffset":754420,
			"target":34963
		},
		{
			"buffer":0,
			"byteLength":972,
			"byteOffset":755188,
			"target":34962
		},
		{
			"buffer":0,
			"byteLength":972,
			"byteOffset":756160,
			"target":34962
		},
		{
			"buffer":0,
			"byteLength":648,
			"byteOffset":757132,
			"target":34962
		},
		{
			"buffer":0,
			"byteLength":768,
			"byteOffset":757780,
			"target":34963
		},
		{
			"buffer":0,
			"byteLength":104508,
			"byteOffset":758548,
			"target":34962
		},
		{
			"buffer":0,
			"byteLength":104508,
			"byteOffset":863056,
			"target":34962
		},
		{
			"buffer":0,
			"byteLength":69672,
			"byteOffset":967564,
			"target":34962
		},
		{
			"buffer":0,
			"byteLength":43848,
			"byteOffset":1037236,
			"target":34963
		},
		{
			"buffer":0,
			"byteLength":14220,
			"byteOffset":1081084,
			"target":34962
		},
		{
			"buffer":0,
			"byteLength":14220,
			"byteOffset":1095304,
			"target":34962
		},
		{
			"buffer":0,
			"byteLength":9480,
			"byteOffset":1109524,
			"target":34962
		},
		{
			"buffer":0,
			"byteLength":9036,
			"byteOffset":1119004,
			"target":34963
		}
	],
	"samplers":[
		{
			"magFilter":9729,
			"minFilter":9987
		}
	],
	"buffers":[
		{
			"byteLength":1128040,
			"uri":"Level1_FINAL.bin"
		}
	]
}
