{
	"asset":{
		"generator":"Khronos glTF Blender I/O v4.5.49",
		"version":"2.0"
	},
	"scene":0,
	"scenes":[
		{
			"extras":{
				"GodotPipelineProps":{
					"mesh_data":1,
					"global_UI":1,
					"export_UI":1,
					"string_setter_UI":1,
					"path_UI":1,
					"collision_UI":1,
					"save_path":"A:\\Godot Projects\\project_tidal\\scenes\\Level1FirstTowerCollision.gltf",
					"counter":29,
					"discard_mesh":0,
					"col_types":4,
					"body_types":0
				},
				"subrect_atlas1":{
					"name":"ExteriorTowerTexAtlas",
					"type":"Object"
				},
				"duv_hotspotmaterial1":{
					"name":"NewTowerMat",
					"type":"Material"
				},
				"trim_atlas":{},
				"uv_box":{},
				"uvtransferxmax":0.9687499403953552,
				"uvtransferxmin":0.9374999403953552,
				"uvtransferymax":0.75,
				"uvtransferymin":0.5,
				"subrect_atlas":{
					"name":"ExteriorTowerTexAtlas",
					"type":"Object"
				},
				"duv_hotspotmaterial":{
					"name":"NewTowerMat",
					"type":"Material"
				},
				"duv_usemirrory":1,
				"duv_useorientation":0
			},
			"name":"Scene",
			"nodes":[
				0
			]
		}
	],
	"nodes":[
		{
			"extras":{
				"collision":"trimesh"
			},
			"mesh":0,
			"name":"WatchTowerCollision",
			"translation":[
				0,
				1,
				3.6343936920166016
			]
		}
	],
	"materials":[
		{
			"doubleSided":true,
			"name":"StartTowerMat",
			"pbrMetallicRoughness":{
				"baseColorFactor":[
					0.800000011920929,
					0.800000011920929,
					0.800000011920929,
					1
				],
				"metallicFactor":0,
				"roughnessFactor":0.5
			}
		}
	],
	"meshes":[
		{
			"extras":{
				"collision":"trimesh"
			},
			"name":"Cube.006",
			"primitives":[
				{
					"attributes":{
						"POSITION":0,
						"NORMAL":1,
						"TEXCOORD_0":2
					},
					"indices":3,
					"material":0
				}
			]
		}
	],
	"accessors":[
		{
			"bufferView":0,
			"componentType":5126,
			"count":548,
			"max":[
				32.11341857910156,
				51.76225662231445,
				19.28057098388672
			],
			"min":[
				-32.11341857910156,
				-181.2490997314453,
				-196.12290954589844
			],
			"type":"VEC3"
		},
		{
			"bufferView":1,
			"componentType":5126,
			"count":548,
			"type":"VEC3"
		},
		{
			"bufferView":2,
			"componentType":5126,
			"count":548,
			"type":"VEC2"
		},
		{
			"bufferView":3,
			"componentType":5123,
			"count":1578,
			"type":"SCALAR"
		}
	],
	"bufferViews":[
		{
			"buffer":0,
			"byteLength":6576,
			"byteOffset":0,
			"target":34962
		},
		{
			"buffer":0,
			"byteLength":6576,
			"byteOffset":6576,
			"target":34962
		},
		{
			"buffer":0,
			"byteLength":4384,
			"byteOffset":13152,
			"target":34962
		},
		{
			"buffer":0,
			"byteLength":3156,
			"byteOffset":17536,
			"target":34963
		}
	],
	"buffers":[
		{
			"byteLength":20692,
			"uri":"Level1FirstTowerCollision.bin"
		}
	]
}
