{
	"asset":{
		"generator":"Khronos glTF Blender I/O v4.5.49",
		"version":"2.0"
	},
	"scene":0,
	"scenes":[
		{
			"extras":{
				"GodotPipelineProps":{
					"mesh_data":1,
					"global_UI":1,
					"export_UI":1,
					"string_setter_UI":1,
					"path_UI":1,
					"collision_UI":1,
					"save_path":"A:\\Godot Projects\\project_tidal\\scenes\\Level1_Nov12Ver.gltf",
					"counter":20,
					"discard_mesh":0,
					"col_types":4,
					"body_types":0
				},
				"subrect_atlas1":{
					"name":"ExteriorTowerTexAtlas",
					"type":"Object"
				},
				"duv_hotspotmaterial1":{
					"name":"NewTowerMat",
					"type":"Material"
				},
				"trim_atlas":{},
				"uv_box":{},
				"uvtransferxmax":0.9687499403953552,
				"uvtransferxmin":0.9374999403953552,
				"uvtransferymax":0.75,
				"uvtransferymin":0.5,
				"subrect_atlas":{
					"name":"ExteriorTowerTexAtlas",
					"type":"Object"
				},
				"duv_hotspotmaterial":{
					"name":"NewTowerMat",
					"type":"Material"
				},
				"duv_usemirrory":1,
				"duv_useorientation":0
			},
			"name":"Scene",
			"nodes":[
				0,
				1,
				2,
				3,
				4,
				5,
				6,
				7
			]
		}
	],
	"nodes":[
		{
			"extras":{
				"collision":"trimesh"
			},
			"mesh":0,
			"name":"WatchTower",
			"translation":[
				0,
				1,
				3.6343936920166016
			]
		},
		{
			"extras":{
				"collision":"trimesh"
			},
			"mesh":1,
			"name":"FirstTower",
			"translation":[
				-82.32479858398438,
				-178.74642944335938,
				-449.2918701171875
			]
		},
		{
			"extras":{
				"collision":"trimesh"
			},
			"mesh":2,
			"name":"BossTower",
			"translation":[
				0,
				1,
				3.6343936920166016
			]
		},
		{
			"extras":{
				"collision":"trimesh"
			},
			"mesh":3,
			"name":"BasaltCliff",
			"translation":[
				0,
				1,
				3.6343936920166016
			]
		},
		{
			"extras":{
				"collision":"trimesh"
			},
			"mesh":4,
			"name":"LevelTerrain",
			"translation":[
				0,
				1,
				3.6343936920166016
			]
		},
		{
			"extras":{
				"collision":"trimesh"
			},
			"mesh":5,
			"name":"WaterfallLeft",
			"translation":[
				-97.38370513916016,
				-6.270284652709961,
				-31.0609188079834
			]
		},
		{
			"extras":{
				"collision":"trimesh"
			},
			"mesh":6,
			"name":"WaterfallRight",
			"translation":[
				97.3836669921875,
				-6.270284652709961,
				-31.0609188079834
			]
		},
		{
			"extras":{
				"collision":"trimesh"
			},
			"mesh":7,
			"name":"SecondTower",
			"translation":[
				-294.99151611328125,
				-178.74642944335938,
				-816.175048828125
			]
		}
	],
	"materials":[
		{
			"doubleSided":true,
			"name":"StartTowerMat",
			"pbrMetallicRoughness":{
				"baseColorFactor":[
					0.800000011920929,
					0.800000011920929,
					0.800000011920929,
					1
				],
				"metallicFactor":0,
				"roughnessFactor":0.5
			}
		},
		{
			"doubleSided":true,
			"name":"NewTowerMat",
			"normalTexture":{
				"index":0
			},
			"pbrMetallicRoughness":{
				"baseColorTexture":{
					"index":1
				},
				"metallicRoughnessTexture":{
					"index":2
				}
			}
		},
		{
			"doubleSided":true,
			"name":"BasaltMat",
			"pbrMetallicRoughness":{
				"baseColorFactor":[
					0.800000011920929,
					0.800000011920929,
					0.800000011920929,
					1
				],
				"metallicFactor":0,
				"roughnessFactor":0.5
			}
		}
	],
	"meshes":[
		{
			"extras":{
				"collision":"trimesh"
			},
			"name":"Cube",
			"primitives":[
				{
					"attributes":{
						"POSITION":0,
						"NORMAL":1,
						"TEXCOORD_0":2
					},
					"indices":3,
					"material":0
				}
			]
		},
		{
			"extras":{
				"collision":"trimesh"
			},
			"name":"Cube.004",
			"primitives":[
				{
					"attributes":{
						"POSITION":4,
						"NORMAL":5,
						"TEXCOORD_0":6
					},
					"indices":7,
					"material":1
				}
			]
		},
		{
			"extras":{
				"collision":"trimesh"
			},
			"name":"Cube.020",
			"primitives":[
				{
					"attributes":{
						"POSITION":8,
						"NORMAL":9,
						"TEXCOORD_0":10
					},
					"indices":11
				}
			]
		},
		{
			"extras":{
				"collision":"trimesh"
			},
			"name":"Cube.022",
			"primitives":[
				{
					"attributes":{
						"POSITION":12,
						"NORMAL":13,
						"TEXCOORD_0":14
					},
					"indices":15,
					"material":2
				}
			]
		},
		{
			"extras":{
				"collision":"trimesh"
			},
			"name":"Cube.025",
			"primitives":[
				{
					"attributes":{
						"POSITION":16,
						"NORMAL":17,
						"TEXCOORD_0":18
					},
					"indices":19
				}
			]
		},
		{
			"extras":{
				"collision":"trimesh"
			},
			"name":"Cube.026",
			"primitives":[
				{
					"attributes":{
						"POSITION":20,
						"NORMAL":21,
						"TEXCOORD_0":22
					},
					"indices":23
				}
			]
		},
		{
			"extras":{
				"collision":"trimesh"
			},
			"name":"Cube.027",
			"primitives":[
				{
					"attributes":{
						"POSITION":24,
						"NORMAL":25,
						"TEXCOORD_0":26
					},
					"indices":27
				}
			]
		},
		{
			"extras":{
				"collision":"trimesh"
			},
			"name":"Cube.028",
			"primitives":[
				{
					"attributes":{
						"POSITION":28,
						"NORMAL":29,
						"TEXCOORD_0":30
					},
					"indices":31,
					"material":1
				}
			]
		}
	],
	"textures":[
		{
			"sampler":0,
			"source":0
		},
		{
			"sampler":0,
			"source":1
		},
		{
			"sampler":0,
			"source":2
		}
	],
	"images":[
		{
			"mimeType":"image/png",
			"name":"DefaultMaterial_Normal",
			"uri":"DefaultMaterial_Normal.png"
		},
		{
			"mimeType":"image/png",
			"name":"DefaultMaterial_BaseColor",
			"uri":"DefaultMaterial_BaseColor.png"
		},
		{
			"mimeType":"image/png",
			"name":"DefaultMaterial_Metallic-DefaultMaterial_Roughness",
			"uri":"DefaultMaterial_Metallic-DefaultMaterial_Roughness.png"
		}
	],
	"accessors":[
		{
			"bufferView":0,
			"componentType":5126,
			"count":3297,
			"max":[
				71.83134460449219,
				77.89617919921875,
				19.28057098388672
			],
			"min":[
				-71.83134460449219,
				-461.6037902832031,
				-196.12290954589844
			],
			"type":"VEC3"
		},
		{
			"bufferView":1,
			"componentType":5126,
			"count":3297,
			"type":"VEC3"
		},
		{
			"bufferView":2,
			"componentType":5126,
			"count":3297,
			"type":"VEC2"
		},
		{
			"bufferView":3,
			"componentType":5123,
			"count":8304,
			"type":"SCALAR"
		},
		{
			"bufferView":4,
			"componentType":5126,
			"count":8709,
			"max":[
				126.19627380371094,
				235.1693115234375,
				113.49014282226562
			],
			"min":[
				-126.19627380371094,
				-43.255706787109375,
				-113.4901123046875
			],
			"type":"VEC3"
		},
		{
			"bufferView":5,
			"componentType":5126,
			"count":8709,
			"type":"VEC3"
		},
		{
			"bufferView":6,
			"componentType":5126,
			"count":8709,
			"type":"VEC2"
		},
		{
			"bufferView":7,
			"componentType":5123,
			"count":21924,
			"type":"SCALAR"
		},
		{
			"bufferView":8,
			"componentType":5126,
			"count":1788,
			"max":[
				106.7758560180664,
				145.0265655517578,
				-1234.417236328125
			],
			"min":[
				-246.4110870361328,
				-193.10009765625,
				-1476.81201171875
			],
			"type":"VEC3"
		},
		{
			"bufferView":9,
			"componentType":5126,
			"count":1788,
			"type":"VEC3"
		},
		{
			"bufferView":10,
			"componentType":5126,
			"count":1788,
			"type":"VEC2"
		},
		{
			"bufferView":11,
			"componentType":5123,
			"count":4824,
			"type":"SCALAR"
		},
		{
			"bufferView":12,
			"componentType":5126,
			"count":9204,
			"max":[
				385.3392333984375,
				-1.648850440979004,
				8.384923934936523
			],
			"min":[
				-385.3392333984375,
				-476.7724609375,
				-51.79649353027344
			],
			"type":"VEC3"
		},
		{
			"bufferView":13,
			"componentType":5126,
			"count":9204,
			"type":"VEC3"
		},
		{
			"bufferView":14,
			"componentType":5126,
			"count":9204,
			"type":"VEC2"
		},
		{
			"bufferView":15,
			"componentType":5123,
			"count":22236,
			"type":"SCALAR"
		},
		{
			"bufferView":16,
			"componentType":5126,
			"count":2637,
			"max":[
				588.6079711914062,
				-3.890538215637207,
				-45.05369186401367
			],
			"min":[
				-697.1224975585938,
				-181.369873046875,
				-933.2306518554688
			],
			"type":"VEC3"
		},
		{
			"bufferView":17,
			"componentType":5126,
			"count":2637,
			"type":"VEC3"
		},
		{
			"bufferView":18,
			"componentType":5126,
			"count":2637,
			"type":"VEC2"
		},
		{
			"bufferView":19,
			"componentType":5123,
			"count":14838,
			"type":"SCALAR"
		},
		{
			"bufferView":20,
			"componentType":5126,
			"count":81,
			"max":[
				55.92516326904297,
				0.8525528907775879,
				52.730560302734375
			],
			"min":[
				-57.69300079345703,
				-395.2430419921875,
				-33.310455322265625
			],
			"type":"VEC3"
		},
		{
			"bufferView":21,
			"componentType":5126,
			"count":81,
			"type":"VEC3"
		},
		{
			"bufferView":22,
			"componentType":5126,
			"count":81,
			"type":"VEC2"
		},
		{
			"bufferView":23,
			"componentType":5123,
			"count":384,
			"type":"SCALAR"
		},
		{
			"bufferView":24,
			"componentType":5126,
			"count":81,
			"max":[
				57.69300842285156,
				0.8525528907775879,
				52.730560302734375
			],
			"min":[
				-55.9251594543457,
				-395.2430419921875,
				-33.310455322265625
			],
			"type":"VEC3"
		},
		{
			"bufferView":25,
			"componentType":5126,
			"count":81,
			"type":"VEC3"
		},
		{
			"bufferView":26,
			"componentType":5126,
			"count":81,
			"type":"VEC2"
		},
		{
			"bufferView":27,
			"componentType":5123,
			"count":384,
			"type":"SCALAR"
		},
		{
			"bufferView":28,
			"componentType":5126,
			"count":8709,
			"max":[
				113.78117370605469,
				235.1693115234375,
				126.0810546875
			],
			"min":[
				-113.78115844726562,
				-43.255706787109375,
				-126.08111572265625
			],
			"type":"VEC3"
		},
		{
			"bufferView":29,
			"componentType":5126,
			"count":8709,
			"type":"VEC3"
		},
		{
			"bufferView":30,
			"componentType":5126,
			"count":8709,
			"type":"VEC2"
		},
		{
			"bufferView":31,
			"componentType":5123,
			"count":21924,
			"type":"SCALAR"
		}
	],
	"bufferViews":[
		{
			"buffer":0,
			"byteLength":39564,
			"byteOffset":0,
			"target":34962
		},
		{
			"buffer":0,
			"byteLength":39564,
			"byteOffset":39564,
			"target":34962
		},
		{
			"buffer":0,
			"byteLength":26376,
			"byteOffset":79128,
			"target":34962
		},
		{
			"buffer":0,
			"byteLength":16608,
			"byteOffset":105504,
			"target":34963
		},
		{
			"buffer":0,
			"byteLength":104508,
			"byteOffset":122112,
			"target":34962
		},
		{
			"buffer":0,
			"byteLength":104508,
			"byteOffset":226620,
			"target":34962
		},
		{
			"buffer":0,
			"byteLength":69672,
			"byteOffset":331128,
			"target":34962
		},
		{
			"buffer":0,
			"byteLength":43848,
			"byteOffset":400800,
			"target":34963
		},
		{
			"buffer":0,
			"byteLength":21456,
			"byteOffset":444648,
			"target":34962
		},
		{
			"buffer":0,
			"byteLength":21456,
			"byteOffset":466104,
			"target":34962
		},
		{
			"buffer":0,
			"byteLength":14304,
			"byteOffset":487560,
			"target":34962
		},
		{
			"buffer":0,
			"byteLength":9648,
			"byteOffset":501864,
			"target":34963
		},
		{
			"buffer":0,
			"byteLength":110448,
			"byteOffset":511512,
			"target":34962
		},
		{
			"buffer":0,
			"byteLength":110448,
			"byteOffset":621960,
			"target":34962
		},
		{
			"buffer":0,
			"byteLength":73632,
			"byteOffset":732408,
			"target":34962
		},
		{
			"buffer":0,
			"byteLength":44472,
			"byteOffset":806040,
			"target":34963
		},
		{
			"buffer":0,
			"byteLength":31644,
			"byteOffset":850512,
			"target":34962
		},
		{
			"buffer":0,
			"byteLength":31644,
			"byteOffset":882156,
			"target":34962
		},
		{
			"buffer":0,
			"byteLength":21096,
			"byteOffset":913800,
			"target":34962
		},
		{
			"buffer":0,
			"byteLength":29676,
			"byteOffset":934896,
			"target":34963
		},
		{
			"buffer":0,
			"byteLength":972,
			"byteOffset":964572,
			"target":34962
		},
		{
			"buffer":0,
			"byteLength":972,
			"byteOffset":965544,
			"target":34962
		},
		{
			"buffer":0,
			"byteLength":648,
			"byteOffset":966516,
			"target":34962
		},
		{
			"buffer":0,
			"byteLength":768,
			"byteOffset":967164,
			"target":34963
		},
		{
			"buffer":0,
			"byteLength":972,
			"byteOffset":967932,
			"target":34962
		},
		{
			"buffer":0,
			"byteLength":972,
			"byteOffset":968904,
			"target":34962
		},
		{
			"buffer":0,
			"byteLength":648,
			"byteOffset":969876,
			"target":34962
		},
		{
			"buffer":0,
			"byteLength":768,
			"byteOffset":970524,
			"target":34963
		},
		{
			"buffer":0,
			"byteLength":104508,
			"byteOffset":971292,
			"target":34962
		},
		{
			"buffer":0,
			"byteLength":104508,
			"byteOffset":1075800,
			"target":34962
		},
		{
			"buffer":0,
			"byteLength":69672,
			"byteOffset":1180308,
			"target":34962
		},
		{
			"buffer":0,
			"byteLength":43848,
			"byteOffset":1249980,
			"target":34963
		}
	],
	"samplers":[
		{
			"magFilter":9729,
			"minFilter":9987
		}
	],
	"buffers":[
		{
			"byteLength":1293828,
			"uri":"Level1_Nov12Ver.bin"
		}
	]
}
