{
	"asset":{
		"generator":"Khronos glTF Blender I/O v3.6.27",
		"version":"2.0"
	},
	"scene":0,
	"scenes":[
		{
			"extras":{
				"GodotPipelineProps":{
					"global_UI":0,
					"collision_UI":1,
					"col_types":4,
					"string_setter_UI":0,
					"export_UI":1,
					"save_path":"//..\\Godot Projects\\project_tidal\\scenes\\level1_greybox_rev1.gltf",
					"counter":5,
					"mesh_data":0,
					"discard_mesh":0,
					"body_types":0,
					"path_UI":0
				}
			},
			"name":"Scene",
			"nodes":[
				0,
				1,
				2,
				3,
				4,
				5,
				6
			]
		}
	],
	"nodes":[
		{
			"extras":{
				"collision":"trimesh"
			},
			"mesh":0,
			"name":"Watchtower"
		},
		{
			"extras":{
				"collision":"trimesh"
			},
			"mesh":1,
			"name":"Plane",
			"translation":[
				0,
				-178.95541381835938,
				-340.38043212890625
			]
		},
		{
			"extras":{
				"collision":"trimesh"
			},
			"mesh":2,
			"name":"Cube",
			"translation":[
				-60.80312728881836,
				-139.96470642089844,
				-601.0455932617188
			]
		},
		{
			"extras":{
				"collision":"trimesh"
			},
			"mesh":3,
			"name":"Plane.001",
			"rotation":[
				0,
				1,
				0,
				7.549790126404332e-08
			],
			"translation":[
				-120.65143585205078,
				-186.19525146484375,
				-942.9811401367188
			]
		},
		{
			"extras":{
				"collision":"trimesh"
			},
			"mesh":4,
			"name":"Cube.001",
			"rotation":[
				0,
				-1,
				0,
				7.549790126404332e-08
			],
			"translation":[
				-123.05863952636719,
				-142.76707458496094,
				-1212.4593505859375
			]
		},
		{
			"extras":{
				"collision":"trimesh"
			},
			"mesh":5,
			"name":"Plane.002",
			"translation":[
				23.5428466796875,
				-180.92330932617188,
				-1525.9908447265625
			]
		},
		{
			"extras":{
				"collision":"trimesh"
			},
			"mesh":6,
			"name":"Cylinder",
			"translation":[
				51.23678970336914,
				-22.924850463867188,
				-1824.5938720703125
			]
		}
	],
	"materials":[
		{
			"doubleSided":true,
			"name":"Material",
			"pbrMetallicRoughness":{
				"baseColorFactor":[
					0.800000011920929,
					0.800000011920929,
					0.800000011920929,
					1
				],
				"metallicFactor":0,
				"roughnessFactor":0.5
			}
		}
	],
	"meshes":[
		{
			"name":"Cube",
			"primitives":[
				{
					"attributes":{
						"POSITION":0,
						"NORMAL":1,
						"TEXCOORD_0":2
					},
					"indices":3,
					"material":0
				}
			]
		},
		{
			"name":"Plane.001",
			"primitives":[
				{
					"attributes":{
						"POSITION":4,
						"NORMAL":5,
						"TEXCOORD_0":6
					},
					"indices":7
				}
			]
		},
		{
			"name":"Cube.001",
			"primitives":[
				{
					"attributes":{
						"POSITION":8,
						"NORMAL":9,
						"TEXCOORD_0":10
					},
					"indices":11
				}
			]
		},
		{
			"name":"Plane.002",
			"primitives":[
				{
					"attributes":{
						"POSITION":12,
						"NORMAL":13,
						"TEXCOORD_0":14
					},
					"indices":7
				}
			]
		},
		{
			"name":"Cube.002",
			"primitives":[
				{
					"attributes":{
						"POSITION":15,
						"NORMAL":16,
						"TEXCOORD_0":17
					},
					"indices":18
				}
			]
		},
		{
			"name":"Plane",
			"primitives":[
				{
					"attributes":{
						"POSITION":19,
						"NORMAL":20,
						"TEXCOORD_0":21
					},
					"indices":22
				}
			]
		},
		{
			"name":"Cylinder",
			"primitives":[
				{
					"attributes":{
						"POSITION":23,
						"NORMAL":24,
						"TEXCOORD_0":25
					},
					"indices":26
				}
			]
		}
	],
	"accessors":[
		{
			"bufferView":0,
			"componentType":5126,
			"count":2009,
			"max":[
				51.16132736206055,
				117.60248565673828,
				22.825193405151367
			],
			"min":[
				-50.375770568847656,
				-179.40521240234375,
				-192.48486328125
			],
			"type":"VEC3"
		},
		{
			"bufferView":1,
			"componentType":5126,
			"count":2009,
			"type":"VEC3"
		},
		{
			"bufferView":2,
			"componentType":5126,
			"count":2009,
			"type":"VEC2"
		},
		{
			"bufferView":3,
			"componentType":5123,
			"count":5334,
			"type":"SCALAR"
		},
		{
			"bufferView":4,
			"componentType":5126,
			"count":44891,
			"max":[
				204.9675750732422,
				56.197566986083984,
				195.7870330810547
			],
			"min":[
				-184.78787231445312,
				-3.640618085861206,
				-227.7042999267578
			],
			"type":"VEC3"
		},
		{
			"bufferView":5,
			"componentType":5126,
			"count":44891,
			"type":"VEC3"
		},
		{
			"bufferView":6,
			"componentType":5126,
			"count":44891,
			"type":"VEC2"
		},
		{
			"bufferView":7,
			"componentType":5123,
			"count":68478,
			"type":"SCALAR"
		},
		{
			"bufferView":8,
			"componentType":5126,
			"count":1525,
			"max":[
				126.1170654296875,
				236.22254943847656,
				45.4434814453125
			],
			"min":[
				-126.03326416015625,
				-44.075748443603516,
				-124.74092102050781
			],
			"type":"VEC3"
		},
		{
			"bufferView":9,
			"componentType":5126,
			"count":1525,
			"type":"VEC3"
		},
		{
			"bufferView":10,
			"componentType":5126,
			"count":1525,
			"type":"VEC2"
		},
		{
			"bufferView":11,
			"componentType":5123,
			"count":4236,
			"type":"SCALAR"
		},
		{
			"bufferView":12,
			"componentType":5126,
			"count":44891,
			"max":[
				204.9675750732422,
				56.197566986083984,
				195.7870330810547
			],
			"min":[
				-184.78787231445312,
				-3.640618085861206,
				-227.7042999267578
			],
			"type":"VEC3"
		},
		{
			"bufferView":13,
			"componentType":5126,
			"count":44891,
			"type":"VEC3"
		},
		{
			"bufferView":14,
			"componentType":5126,
			"count":44891,
			"type":"VEC2"
		},
		{
			"bufferView":15,
			"componentType":5126,
			"count":1525,
			"max":[
				126.1170654296875,
				236.22254943847656,
				45.4434814453125
			],
			"min":[
				-126.03326416015625,
				-44.075748443603516,
				-124.74092102050781
			],
			"type":"VEC3"
		},
		{
			"bufferView":16,
			"componentType":5126,
			"count":1525,
			"type":"VEC3"
		},
		{
			"bufferView":17,
			"componentType":5126,
			"count":1525,
			"type":"VEC2"
		},
		{
			"bufferView":18,
			"componentType":5123,
			"count":4236,
			"type":"SCALAR"
		},
		{
			"bufferView":19,
			"componentType":5126,
			"count":37548,
			"max":[
				294.2832946777344,
				100.49198150634766,
				297.1234130859375
			],
			"min":[
				-300.94036865234375,
				0,
				-286.7913513183594
			],
			"type":"VEC3"
		},
		{
			"bufferView":20,
			"componentType":5126,
			"count":37548,
			"type":"VEC3"
		},
		{
			"bufferView":21,
			"componentType":5126,
			"count":37548,
			"type":"VEC2"
		},
		{
			"bufferView":22,
			"componentType":5123,
			"count":61206,
			"type":"SCALAR"
		},
		{
			"bufferView":23,
			"componentType":5126,
			"count":1822,
			"max":[
				175.77169799804688,
				168.27618408203125,
				125.76643371582031
			],
			"min":[
				-175.77076721191406,
				-168.27618408203125,
				-115.4997329711914
			],
			"type":"VEC3"
		},
		{
			"bufferView":24,
			"componentType":5126,
			"count":1822,
			"type":"VEC3"
		},
		{
			"bufferView":25,
			"componentType":5126,
			"count":1822,
			"type":"VEC2"
		},
		{
			"bufferView":26,
			"componentType":5123,
			"count":4920,
			"type":"SCALAR"
		}
	],
	"bufferViews":[
		{
			"buffer":0,
			"byteLength":24108,
			"byteOffset":0,
			"target":34962
		},
		{
			"buffer":0,
			"byteLength":24108,
			"byteOffset":24108,
			"target":34962
		},
		{
			"buffer":0,
			"byteLength":16072,
			"byteOffset":48216,
			"target":34962
		},
		{
			"buffer":0,
			"byteLength":10668,
			"byteOffset":64288,
			"target":34963
		},
		{
			"buffer":0,
			"byteLength":538692,
			"byteOffset":74956,
			"target":34962
		},
		{
			"buffer":0,
			"byteLength":538692,
			"byteOffset":613648,
			"target":34962
		},
		{
			"buffer":0,
			"byteLength":359128,
			"byteOffset":1152340,
			"target":34962
		},
		{
			"buffer":0,
			"byteLength":136956,
			"byteOffset":1511468,
			"target":34963
		},
		{
			"buffer":0,
			"byteLength":18300,
			"byteOffset":1648424,
			"target":34962
		},
		{
			"buffer":0,
			"byteLength":18300,
			"byteOffset":1666724,
			"target":34962
		},
		{
			"buffer":0,
			"byteLength":12200,
			"byteOffset":1685024,
			"target":34962
		},
		{
			"buffer":0,
			"byteLength":8472,
			"byteOffset":1697224,
			"target":34963
		},
		{
			"buffer":0,
			"byteLength":538692,
			"byteOffset":1705696,
			"target":34962
		},
		{
			"buffer":0,
			"byteLength":538692,
			"byteOffset":2244388,
			"target":34962
		},
		{
			"buffer":0,
			"byteLength":359128,
			"byteOffset":2783080,
			"target":34962
		},
		{
			"buffer":0,
			"byteLength":18300,
			"byteOffset":3142208,
			"target":34962
		},
		{
			"buffer":0,
			"byteLength":18300,
			"byteOffset":3160508,
			"target":34962
		},
		{
			"buffer":0,
			"byteLength":12200,
			"byteOffset":3178808,
			"target":34962
		},
		{
			"buffer":0,
			"byteLength":8472,
			"byteOffset":3191008,
			"target":34963
		},
		{
			"buffer":0,
			"byteLength":450576,
			"byteOffset":3199480,
			"target":34962
		},
		{
			"buffer":0,
			"byteLength":450576,
			"byteOffset":3650056,
			"target":34962
		},
		{
			"buffer":0,
			"byteLength":300384,
			"byteOffset":4100632,
			"target":34962
		},
		{
			"buffer":0,
			"byteLength":122412,
			"byteOffset":4401016,
			"target":34963
		},
		{
			"buffer":0,
			"byteLength":21864,
			"byteOffset":4523428,
			"target":34962
		},
		{
			"buffer":0,
			"byteLength":21864,
			"byteOffset":4545292,
			"target":34962
		},
		{
			"buffer":0,
			"byteLength":14576,
			"byteOffset":4567156,
			"target":34962
		},
		{
			"buffer":0,
			"byteLength":9840,
			"byteOffset":4581732,
			"target":34963
		}
	],
	"buffers":[
		{
			"byteLength":4591572,
			"uri":"level1_greybox_rev1.bin"
		}
	]
}
