{
	"asset":{
		"generator":"Khronos glTF Blender I/O v3.6.27",
		"version":"2.0"
	},
	"scene":0,
	"scenes":[
		{
			"extras":{
				"GodotPipelineProps":{
					"global_UI":0,
					"collision_UI":1,
					"col_types":4,
					"string_setter_UI":0,
					"export_UI":1,
					"save_path":"//..\\Godot Projects\\project_tidal\\scenes\\level1_scene_test1.gltf",
					"counter":3
				}
			},
			"name":"Scene",
			"nodes":[
				0
			]
		}
	],
	"nodes":[
		{
			"extras":{
				"collision":"trimesh"
			},
			"mesh":0,
			"name":"Watchtower"
		}
	],
	"materials":[
		{
			"doubleSided":true,
			"name":"Material",
			"pbrMetallicRoughness":{
				"baseColorFactor":[
					0.800000011920929,
					0.800000011920929,
					0.800000011920929,
					1
				],
				"metallicFactor":0,
				"roughnessFactor":0.5
			}
		}
	],
	"meshes":[
		{
			"name":"Cube",
			"primitives":[
				{
					"attributes":{
						"POSITION":0,
						"NORMAL":1,
						"TEXCOORD_0":2
					},
					"indices":3,
					"material":0
				}
			]
		}
	],
	"accessors":[
		{
			"bufferView":0,
			"componentType":5126,
			"count":1729,
			"max":[
				34.94328308105469,
				117.60248565673828,
				22.825193405151367
			],
			"min":[
				-34.96445846557617,
				-178.0580291748047,
				-191.5604705810547
			],
			"type":"VEC3"
		},
		{
			"bufferView":1,
			"componentType":5126,
			"count":1729,
			"type":"VEC3"
		},
		{
			"bufferView":2,
			"componentType":5126,
			"count":1729,
			"type":"VEC2"
		},
		{
			"bufferView":3,
			"componentType":5123,
			"count":4746,
			"type":"SCALAR"
		}
	],
	"bufferViews":[
		{
			"buffer":0,
			"byteLength":20748,
			"byteOffset":0,
			"target":34962
		},
		{
			"buffer":0,
			"byteLength":20748,
			"byteOffset":20748,
			"target":34962
		},
		{
			"buffer":0,
			"byteLength":13832,
			"byteOffset":41496,
			"target":34962
		},
		{
			"buffer":0,
			"byteLength":9492,
			"byteOffset":55328,
			"target":34963
		}
	],
	"buffers":[
		{
			"byteLength":64820,
			"uri":"level1_scene_test1.bin"
		}
	]
}
