{
	"asset":{
		"generator":"Khronos glTF Blender I/O v4.5.47",
		"version":"2.0"
	},
	"scene":0,
	"scenes":[
		{
			"extras":{
				"vs":{
					"export_list":[
						{
							"name":"Collection.dmx",
							"collection":{
								"name":"Collection",
								"type":"Collection"
							},
							"ob_type":"COLLECTION",
							"icon":"GROUP"
						}
					]
				},
				"GodotPipelineProps":{
					"mesh_data":0,
					"global_UI":1,
					"collision_UI":1,
					"export_UI":1,
					"save_path":"E:\\game git repo\\project_tidal\\models\\Structures\\elevator\\elevator.gltf",
					"counter":2
				},
				"UVPackerProps":{
					"uvp_width":1024,
					"uvp_height":1024,
					"uvp_stats":"60.84% \u00a6 0.11s",
					"uvp_rotate":2
				},
				"texToolsSettings":{}
			},
			"name":"Scene",
			"nodes":[
				0,
				1,
				2,
				3
			]
		}
	],
	"nodes":[
		{
			"extras":{
				"collision":"box",
				"center_x":0.0,
				"center_z":0.0,
				"center_y":5.960464477539063e-08,
				"size_x":"10.0",
				"size_z":"10.0",
				"size_y":"1.0792"
			},
			"mesh":0,
			"name":"Cube"
		},
		{
			"extras":{
				"collision":"box",
				"center_x":0.0,
				"center_z":0.0,
				"center_y":1.0445300340652466,
				"size_x":"9.3614",
				"size_z":"6.9002",
				"size_y":"1.103"
			},
			"mesh":1,
			"name":"Cube.001"
		},
		{
			"extras":{
				"collision":"box",
				"center_x":0.0,
				"center_z":0.0,
				"center_y":1.0346905589103699,
				"size_x":"0.5984",
				"size_z":"0.5984",
				"size_y":"1.0706"
			},
			"mesh":2,
			"name":"Cube.002"
		},
		{
			"extras":{
				"collision":"box",
				"center_x":0.0,
				"center_z":0.0,
				"center_y":2.1046462059020996,
				"size_x":"0.4723",
				"size_z":"0.4723",
				"size_y":"0.0899"
			},
			"mesh":3,
			"name":"Cube.003",
			"translation":[
				0,
				-0.5387601852416992,
				0
			]
		}
	],
	"materials":[
		{
			"doubleSided":true,
			"emissiveFactor":[
				1,
				1,
				1
			],
			"emissiveTexture":{
				"index":0
			},
			"name":"Material",
			"normalTexture":{
				"index":1
			},
			"pbrMetallicRoughness":{
				"baseColorTexture":{
					"index":2
				},
				"metallicRoughnessTexture":{
					"index":3
				}
			}
		}
	],
	"meshes":[
		{
			"name":"Cube.001",
			"primitives":[
				{
					"attributes":{
						"POSITION":0,
						"NORMAL":1,
						"TEXCOORD_0":2
					},
					"indices":3,
					"material":0
				}
			]
		},
		{
			"name":"Cube.002",
			"primitives":[
				{
					"attributes":{
						"POSITION":4,
						"NORMAL":5,
						"TEXCOORD_0":6
					},
					"indices":7,
					"material":0
				}
			]
		},
		{
			"name":"Cube.003",
			"primitives":[
				{
					"attributes":{
						"POSITION":8,
						"NORMAL":9,
						"TEXCOORD_0":10
					},
					"indices":11,
					"material":0
				}
			]
		},
		{
			"name":"Cube.004",
			"primitives":[
				{
					"attributes":{
						"POSITION":12,
						"NORMAL":13,
						"TEXCOORD_0":14
					},
					"indices":15,
					"material":0
				}
			]
		}
	],
	"textures":[
		{
			"sampler":0,
			"source":0
		},
		{
			"sampler":0,
			"source":1
		},
		{
			"sampler":0,
			"source":0
		},
		{
			"sampler":0,
			"source":2
		}
	],
	"images":[
		{
			"mimeType":"image/png",
			"name":"elevator_basecolor",
			"uri":"elevator_basecolor.png"
		},
		{
			"mimeType":"image/png",
			"name":"elevator_normal",
			"uri":"elevator_normal.png"
		},
		{
			"mimeType":"image/png",
			"name":"elevator_metallic-elevator_rough",
			"uri":"elevator_metallic-elevator_rough.png"
		}
	],
	"accessors":[
		{
			"bufferView":0,
			"componentType":5126,
			"count":1064,
			"max":[
				5,
				0.5396075248718262,
				5
			],
			"min":[
				-5,
				-0.5396074056625366,
				-5
			],
			"type":"VEC3"
		},
		{
			"bufferView":1,
			"componentType":5126,
			"count":1064,
			"type":"VEC3"
		},
		{
			"bufferView":2,
			"componentType":5126,
			"count":1064,
			"type":"VEC2"
		},
		{
			"bufferView":3,
			"componentType":5123,
			"count":2352,
			"type":"SCALAR"
		},
		{
			"bufferView":4,
			"componentType":5126,
			"count":290,
			"max":[
				4.680714130401611,
				1.5960125923156738,
				3.450101375579834
			],
			"min":[
				-4.680714130401611,
				0.49304747581481934,
				-3.450101375579834
			],
			"type":"VEC3"
		},
		{
			"bufferView":5,
			"componentType":5126,
			"count":290,
			"type":"VEC3"
		},
		{
			"bufferView":6,
			"componentType":5126,
			"count":290,
			"type":"VEC2"
		},
		{
			"bufferView":7,
			"componentType":5123,
			"count":1080,
			"type":"SCALAR"
		},
		{
			"bufferView":8,
			"componentType":5126,
			"count":116,
			"max":[
				0.29920244216918945,
				1.5699942111968994,
				0.29920244216918945
			],
			"min":[
				-0.29920244216918945,
				0.49938690662384033,
				-0.29920244216918945
			],
			"type":"VEC3"
		},
		{
			"bufferView":9,
			"componentType":5126,
			"count":116,
			"type":"VEC3"
		},
		{
			"bufferView":10,
			"componentType":5126,
			"count":116,
			"type":"VEC2"
		},
		{
			"bufferView":11,
			"componentType":5123,
			"count":270,
			"type":"SCALAR"
		},
		{
			"bufferView":12,
			"componentType":5126,
			"count":66,
			"max":[
				0.23616155982017517,
				2.1496024131774902,
				0.23616155982017517
			],
			"min":[
				-0.23616155982017517,
				2.059689998626709,
				-0.23616155982017517
			],
			"type":"VEC3"
		},
		{
			"bufferView":13,
			"componentType":5126,
			"count":66,
			"type":"VEC3"
		},
		{
			"bufferView":14,
			"componentType":5126,
			"count":66,
			"type":"VEC2"
		},
		{
			"bufferView":15,
			"componentType":5123,
			"count":270,
			"type":"SCALAR"
		}
	],
	"bufferViews":[
		{
			"buffer":0,
			"byteLength":12768,
			"byteOffset":0,
			"target":34962
		},
		{
			"buffer":0,
			"byteLength":12768,
			"byteOffset":12768,
			"target":34962
		},
		{
			"buffer":0,
			"byteLength":8512,
			"byteOffset":25536,
			"target":34962
		},
		{
			"buffer":0,
			"byteLength":4704,
			"byteOffset":34048,
			"target":34963
		},
		{
			"buffer":0,
			"byteLength":3480,
			"byteOffset":38752,
			"target":34962
		},
		{
			"buffer":0,
			"byteLength":3480,
			"byteOffset":42232,
			"target":34962
		},
		{
			"buffer":0,
			"byteLength":2320,
			"byteOffset":45712,
			"target":34962
		},
		{
			"buffer":0,
			"byteLength":2160,
			"byteOffset":48032,
			"target":34963
		},
		{
			"buffer":0,
			"byteLength":1392,
			"byteOffset":50192,
			"target":34962
		},
		{
			"buffer":0,
			"byteLength":1392,
			"byteOffset":51584,
			"target":34962
		},
		{
			"buffer":0,
			"byteLength":928,
			"byteOffset":52976,
			"target":34962
		},
		{
			"buffer":0,
			"byteLength":540,
			"byteOffset":53904,
			"target":34963
		},
		{
			"buffer":0,
			"byteLength":792,
			"byteOffset":54444,
			"target":34962
		},
		{
			"buffer":0,
			"byteLength":792,
			"byteOffset":55236,
			"target":34962
		},
		{
			"buffer":0,
			"byteLength":528,
			"byteOffset":56028,
			"target":34962
		},
		{
			"buffer":0,
			"byteLength":540,
			"byteOffset":56556,
			"target":34963
		}
	],
	"samplers":[
		{
			"magFilter":9728,
			"minFilter":9984
		}
	],
	"buffers":[
		{
			"byteLength":57096,
			"uri":"elevator.bin"
		}
	]
}
