{
	"asset":{
		"generator":"Khronos glTF Blender I/O v4.5.47",
		"version":"2.0"
	},
	"scene":0,
	"scenes":[
		{
			"extras":{
				"vs":{
					"export_list":[
						{
							"name":"Exploded.dmx",
							"collection":{
								"name":"Exploded",
								"type":"Collection"
							},
							"ob_type":"COLLECTION",
							"icon":"GROUP"
						},
						{
							"name":"HP.dmx",
							"collection":{
								"name":"HP",
								"type":"Collection"
							},
							"ob_type":"COLLECTION",
							"icon":"GROUP"
						},
						{
							"name":"Unwrapped.dmx",
							"collection":{
								"name":"Unwrapped",
								"type":"Collection"
							},
							"ob_type":"COLLECTION",
							"icon":"GROUP"
						}
					]
				},
				"GodotPipelineProps":{
					"mesh_data":0,
					"export_UI":1,
					"save_path":"E:\\game git repo\\project_tidal\\models\\enemies\\boss\\boss_main.gltf",
					"counter":1
				},
				"UVPackerProps":{
					"uvp_width":2048,
					"uvp_height":2048,
					"uvp_stats":"68.45% \u00a6 0.33s"
				},
				"rflow_props":{}
			},
			"name":"Scene",
			"nodes":[
				0,
				1,
				2,
				3,
				4
			]
		}
	],
	"nodes":[
		{
			"mesh":0,
			"name":"Turret_Base",
			"translation":[
				0,
				5.248896598815918,
				-0.0019168853759765625
			]
		},
		{
			"mesh":1,
			"name":"Cube",
			"scale":[
				1.7444595098495483,
				1.7444595098495483,
				1.7444595098495483
			],
			"translation":[
				0,
				7.922248363494873,
				0
			]
		},
		{
			"mesh":2,
			"name":"Icosphere",
			"scale":[
				1.8915241956710815,
				1.8915241956710815,
				1.8915241956710815
			],
			"translation":[
				0,
				22.615558624267578,
				0
			]
		},
		{
			"mesh":3,
			"name":"Main gun",
			"scale":[
				1.6527715921401978,
				1.6527715921401978,
				2.1091067790985107
			],
			"translation":[
				0,
				22.615558624267578,
				0
			]
		},
		{
			"mesh":4,
			"name":"Gun back part",
			"scale":[
				2.6917388439178467,
				2.6917388439178467,
				1.758085012435913
			],
			"translation":[
				-9.280128479003906,
				29.958141326904297,
				2.990519533341285e-06
			]
		}
	],
	"materials":[
		{
			"doubleSided":true,
			"emissiveFactor":[
				1,
				1,
				1
			],
			"emissiveTexture":{
				"index":0
			},
			"name":"Material",
			"normalTexture":{
				"index":1
			},
			"pbrMetallicRoughness":{
				"baseColorTexture":{
					"index":2
				},
				"metallicRoughnessTexture":{
					"index":3
				}
			}
		}
	],
	"meshes":[
		{
			"name":"Cylinder",
			"primitives":[
				{
					"attributes":{
						"POSITION":0,
						"NORMAL":1,
						"TEXCOORD_0":2
					},
					"indices":3,
					"material":0
				}
			]
		},
		{
			"name":"Cube.001",
			"primitives":[
				{
					"attributes":{
						"POSITION":4,
						"NORMAL":5,
						"TEXCOORD_0":6
					},
					"indices":7,
					"material":0
				}
			]
		},
		{
			"name":"Icosphere",
			"primitives":[
				{
					"attributes":{
						"POSITION":8,
						"NORMAL":9,
						"TEXCOORD_0":10
					},
					"indices":11,
					"material":0
				}
			]
		},
		{
			"name":"Cube.003",
			"primitives":[
				{
					"attributes":{
						"POSITION":12,
						"NORMAL":13,
						"TEXCOORD_0":14
					},
					"indices":15,
					"material":0
				}
			]
		},
		{
			"name":"Cube.004",
			"primitives":[
				{
					"attributes":{
						"POSITION":16,
						"NORMAL":17,
						"TEXCOORD_0":18
					},
					"indices":19,
					"material":0
				}
			]
		}
	],
	"textures":[
		{
			"sampler":0,
			"source":0
		},
		{
			"sampler":0,
			"source":1
		},
		{
			"sampler":0,
			"source":0
		},
		{
			"sampler":0,
			"source":2
		}
	],
	"images":[
		{
			"mimeType":"image/png",
			"name":"boss_basecolor",
			"uri":"boss_basecolor.png"
		},
		{
			"mimeType":"image/png",
			"name":"boss_normal",
			"uri":"boss_normal.png"
		},
		{
			"mimeType":"image/png",
			"name":"boss_metallic-boss_rough",
			"uri":"boss_metallic-boss_rough.png"
		}
	],
	"accessors":[
		{
			"bufferView":0,
			"componentType":5126,
			"count":301,
			"max":[
				6.146284103393555,
				0,
				6.146283149719238
			],
			"min":[
				-6.146284103393555,
				-5.11234712600708,
				-6.146283149719238
			],
			"type":"VEC3"
		},
		{
			"bufferView":1,
			"componentType":5126,
			"count":301,
			"type":"VEC3"
		},
		{
			"bufferView":2,
			"componentType":5126,
			"count":301,
			"type":"VEC2"
		},
		{
			"bufferView":3,
			"componentType":5123,
			"count":924,
			"type":"SCALAR"
		},
		{
			"bufferView":4,
			"componentType":5126,
			"count":433,
			"max":[
				1.50294029712677,
				8.885343551635742,
				2.4566097259521484
			],
			"min":[
				-1.50294029712677,
				-1.5638411045074463,
				-2.4566097259521484
			],
			"type":"VEC3"
		},
		{
			"bufferView":5,
			"componentType":5126,
			"count":433,
			"type":"VEC3"
		},
		{
			"bufferView":6,
			"componentType":5126,
			"count":433,
			"type":"VEC2"
		},
		{
			"bufferView":7,
			"componentType":5123,
			"count":1218,
			"type":"SCALAR"
		},
		{
			"bufferView":8,
			"componentType":5126,
			"count":95,
			"max":[
				0.9510578513145447,
				1,
				1.5780644416809082
			],
			"min":[
				-0.9510578513145447,
				-1,
				-1.5780644416809082
			],
			"type":"VEC3"
		},
		{
			"bufferView":9,
			"componentType":5126,
			"count":95,
			"type":"VEC3"
		},
		{
			"bufferView":10,
			"componentType":5126,
			"count":95,
			"type":"VEC2"
		},
		{
			"bufferView":11,
			"componentType":5123,
			"count":348,
			"type":"SCALAR"
		},
		{
			"bufferView":12,
			"componentType":5126,
			"count":527,
			"max":[
				12.017769813537598,
				6.6229095458984375,
				2.1264216899871826
			],
			"min":[
				-3.745272636413574,
				-1.0511455535888672,
				-2.1264216899871826
			],
			"type":"VEC3"
		},
		{
			"bufferView":13,
			"componentType":5126,
			"count":527,
			"type":"VEC3"
		},
		{
			"bufferView":14,
			"componentType":5126,
			"count":527,
			"type":"VEC2"
		},
		{
			"bufferView":15,
			"componentType":5123,
			"count":1746,
			"type":"SCALAR"
		},
		{
			"bufferView":16,
			"componentType":5126,
			"count":90,
			"max":[
				3.025320291519165,
				1,
				1
			],
			"min":[
				-1,
				-2.415102958679199,
				-1
			],
			"type":"VEC3"
		},
		{
			"bufferView":17,
			"componentType":5126,
			"count":90,
			"type":"VEC3"
		},
		{
			"bufferView":18,
			"componentType":5126,
			"count":90,
			"type":"VEC2"
		},
		{
			"bufferView":19,
			"componentType":5123,
			"count":300,
			"type":"SCALAR"
		}
	],
	"bufferViews":[
		{
			"buffer":0,
			"byteLength":3612,
			"byteOffset":0,
			"target":34962
		},
		{
			"buffer":0,
			"byteLength":3612,
			"byteOffset":3612,
			"target":34962
		},
		{
			"buffer":0,
			"byteLength":2408,
			"byteOffset":7224,
			"target":34962
		},
		{
			"buffer":0,
			"byteLength":1848,
			"byteOffset":9632,
			"target":34963
		},
		{
			"buffer":0,
			"byteLength":5196,
			"byteOffset":11480,
			"target":34962
		},
		{
			"buffer":0,
			"byteLength":5196,
			"byteOffset":16676,
			"target":34962
		},
		{
			"buffer":0,
			"byteLength":3464,
			"byteOffset":21872,
			"target":34962
		},
		{
			"buffer":0,
			"byteLength":2436,
			"byteOffset":25336,
			"target":34963
		},
		{
			"buffer":0,
			"byteLength":1140,
			"byteOffset":27772,
			"target":34962
		},
		{
			"buffer":0,
			"byteLength":1140,
			"byteOffset":28912,
			"target":34962
		},
		{
			"buffer":0,
			"byteLength":760,
			"byteOffset":30052,
			"target":34962
		},
		{
			"buffer":0,
			"byteLength":696,
			"byteOffset":30812,
			"target":34963
		},
		{
			"buffer":0,
			"byteLength":6324,
			"byteOffset":31508,
			"target":34962
		},
		{
			"buffer":0,
			"byteLength":6324,
			"byteOffset":37832,
			"target":34962
		},
		{
			"buffer":0,
			"byteLength":4216,
			"byteOffset":44156,
			"target":34962
		},
		{
			"buffer":0,
			"byteLength":3492,
			"byteOffset":48372,
			"target":34963
		},
		{
			"buffer":0,
			"byteLength":1080,
			"byteOffset":51864,
			"target":34962
		},
		{
			"buffer":0,
			"byteLength":1080,
			"byteOffset":52944,
			"target":34962
		},
		{
			"buffer":0,
			"byteLength":720,
			"byteOffset":54024,
			"target":34962
		},
		{
			"buffer":0,
			"byteLength":600,
			"byteOffset":54744,
			"target":34963
		}
	],
	"samplers":[
		{
			"magFilter":9728,
			"minFilter":9984
		}
	],
	"buffers":[
		{
			"byteLength":55344,
			"uri":"boss_main.bin"
		}
	]
}
