{
	"asset":{
		"generator":"Khronos glTF Blender I/O v4.5.47",
		"version":"2.0"
	},
	"scene":0,
	"scenes":[
		{
			"extras":{
				"vs":{
					"export_list":[
						{
							"name":"High poly.dmx",
							"collection":{
								"name":"High poly",
								"type":"Collection"
							},
							"ob_type":"COLLECTION",
							"icon":"GROUP"
						},
						{
							"name":"Low Poly Moved For Baking.dmx",
							"collection":{
								"name":"Low Poly Moved For Baking",
								"type":"Collection"
							},
							"ob_type":"COLLECTION",
							"icon":"GROUP"
						},
						{
							"name":"Original positions.dmx",
							"collection":{
								"name":"Original positions",
								"type":"Collection"
							},
							"ob_type":"COLLECTION",
							"icon":"GROUP"
						}
					]
				},
				"GodotPipelineProps":{
					"mesh_data":0,
					"global_UI":1,
					"collision_UI":1,
					"col_types":6,
					"display_wire":0,
					"path_UI":0,
					"export_UI":1,
					"save_path":"E:\\game git repo\\project_tidal\\models\\enemies\\the enemy\\the_enemy.gltf",
					"counter":2
				},
				"UVPackerProps":{
					"uvp_width":1024,
					"uvp_height":1024,
					"uvp_padding":4.0,
					"uvp_stats":"63.33% \u00a6 0.18s"
				},
				"texToolsSettings":{}
			},
			"name":"Scene",
			"nodes":[
				0,
				1,
				2,
				3,
				4,
				5,
				6,
				7,
				8
			]
		}
	],
	"nodes":[
		{
			"extras":{
				"TT_CM_Scale":1.0,
				"vs":{}
			},
			"mesh":0,
			"name":"body_unwrapped",
			"scale":[
				0.5,
				0.5,
				0.5
			],
			"translation":[
				0.017052382230758667,
				1.5540990829467773,
				-0.20176558196544647
			]
		},
		{
			"extras":{
				"TT_CM_Scale":1.0,
				"vs":{}
			},
			"mesh":1,
			"name":"Larm1_unwrapped",
			"scale":[
				0.5,
				0.5,
				0.5
			],
			"translation":[
				1.145432710647583,
				2.302809238433838,
				-0.32642778754234314
			]
		},
		{
			"extras":{
				"TT_CM_Scale":1.0,
				"vs":{}
			},
			"mesh":2,
			"name":"Larm0_unwrapped",
			"scale":[
				0.5,
				0.5,
				0.5
			],
			"translation":[
				0.5136542320251465,
				2.308352470397949,
				-0.3275858163833618
			]
		},
		{
			"extras":{
				"vs":{}
			},
			"mesh":3,
			"name":"Rarm1_unwrapped",
			"scale":[
				0.5,
				0.5,
				0.5
			],
			"translation":[
				-1.0537739992141724,
				2.302809238433838,
				-0.3275858163833618
			]
		},
		{
			"extras":{
				"vs":{},
				"TT_CM_Scale":1.0
			},
			"mesh":4,
			"name":"head_unwrapped",
			"scale":[
				0.5,
				0.5,
				0.5
			],
			"translation":[
				0.01705235242843628,
				2.545337438583374,
				-0.21180759370326996
			]
		},
		{
			"extras":{
				"TT_CM_Scale":1.0,
				"vs":{}
			},
			"mesh":5,
			"name":"Rarm0_unwrapped",
			"rotation":[
				1,
				0,
				0,
				0
			],
			"scale":[
				-0.5,
				-0.5,
				-0.5
			],
			"translation":[
				-0.4795495271682739,
				2.308352470397949,
				-0.3275858163833618
			]
		},
		{
			"extras":{
				"vs":{}
			},
			"mesh":6,
			"name":"Larm2_unwrapped.002",
			"scale":[
				0.5,
				0.5,
				0.5
			],
			"translation":[
				1.873556137084961,
				2.3220744132995605,
				-0.31926244497299194
			]
		},
		{
			"extras":{
				"vs":{}
			},
			"mesh":7,
			"name":"Thruster2.003",
			"scale":[
				0.22351369261741638,
				0.2604403793811798,
				0.15785163640975952
			],
			"translation":[
				0.002318084239959717,
				0.4987318515777588,
				-0.11034054309129715
			]
		},
		{
			"extras":{
				"vs":{}
			},
			"mesh":8,
			"name":"Thruster1.003",
			"scale":[
				0.3345288634300232,
				0.3897963762283325,
				0.23625366389751434
			],
			"translation":[
				0.002318084239959717,
				0.36937570571899414,
				-0.11034054309129715
			]
		}
	],
	"materials":[
		{
			"doubleSided":true,
			"emissiveFactor":[
				1,
				1,
				1
			],
			"emissiveTexture":{
				"index":0
			},
			"name":"Material",
			"normalTexture":{
				"index":1
			},
			"pbrMetallicRoughness":{
				"baseColorTexture":{
					"index":2
				},
				"metallicRoughnessTexture":{
					"index":3
				}
			}
		}
	],
	"meshes":[
		{
			"name":"Cube.001",
			"primitives":[
				{
					"attributes":{
						"POSITION":0,
						"NORMAL":1,
						"TEXCOORD_0":2
					},
					"indices":3,
					"material":0
				}
			]
		},
		{
			"name":"Cube.002",
			"primitives":[
				{
					"attributes":{
						"POSITION":4,
						"NORMAL":5,
						"TEXCOORD_0":6
					},
					"indices":7,
					"material":0
				}
			]
		},
		{
			"name":"Cube.003",
			"primitives":[
				{
					"attributes":{
						"POSITION":8,
						"NORMAL":9,
						"TEXCOORD_0":10
					},
					"indices":11,
					"material":0
				}
			]
		},
		{
			"name":"Cube.005",
			"primitives":[
				{
					"attributes":{
						"POSITION":12,
						"NORMAL":13,
						"TEXCOORD_0":14
					},
					"indices":15,
					"material":0
				}
			]
		},
		{
			"name":"Cube.006",
			"primitives":[
				{
					"attributes":{
						"POSITION":16,
						"NORMAL":17,
						"TEXCOORD_0":18
					},
					"indices":19,
					"material":0
				}
			]
		},
		{
			"name":"Cube.007",
			"primitives":[
				{
					"attributes":{
						"POSITION":20,
						"NORMAL":21,
						"TEXCOORD_0":22
					},
					"indices":23,
					"material":0
				}
			]
		},
		{
			"name":"Circle.004",
			"primitives":[
				{
					"attributes":{
						"POSITION":24,
						"NORMAL":25,
						"TEXCOORD_0":26
					},
					"indices":27,
					"material":0
				}
			]
		},
		{
			"name":"Cylinder.008",
			"primitives":[
				{
					"attributes":{
						"POSITION":28,
						"NORMAL":29,
						"TEXCOORD_0":30
					},
					"indices":31
				}
			]
		},
		{
			"name":"Cylinder.009",
			"primitives":[
				{
					"attributes":{
						"POSITION":32,
						"NORMAL":33,
						"TEXCOORD_0":34
					},
					"indices":35
				}
			]
		}
	],
	"textures":[
		{
			"sampler":0,
			"source":0
		},
		{
			"sampler":0,
			"source":1
		},
		{
			"sampler":0,
			"source":0
		},
		{
			"sampler":0,
			"source":2
		}
	],
	"images":[
		{
			"mimeType":"image/png",
			"name":"enemy_basecolor",
			"uri":"enemy_basecolor.png"
		},
		{
			"mimeType":"image/png",
			"name":"enemy_normal",
			"uri":"enemy_normal.png"
		},
		{
			"mimeType":"image/png",
			"name":"enemy_metallic-enemy_rough",
			"uri":"enemy_metallic-enemy_rough.png"
		}
	],
	"accessors":[
		{
			"bufferView":0,
			"componentType":5126,
			"count":1167,
			"max":[
				1.158994436264038,
				2.1227025985717773,
				0.8765687346458435
			],
			"min":[
				-1.158994436264038,
				-2.1227025985717773,
				-0.8765687346458435
			],
			"type":"VEC3"
		},
		{
			"bufferView":1,
			"componentType":5126,
			"count":1167,
			"type":"VEC3"
		},
		{
			"bufferView":2,
			"componentType":5126,
			"count":1167,
			"type":"VEC2"
		},
		{
			"bufferView":3,
			"componentType":5123,
			"count":2928,
			"type":"SCALAR"
		},
		{
			"bufferView":4,
			"componentType":5126,
			"count":296,
			"max":[
				1.551018476486206,
				0.4035677909851074,
				0.21980918943881989
			],
			"min":[
				-0.17610907554626465,
				-0.2843489646911621,
				-0.21980918943881989
			],
			"type":"VEC3"
		},
		{
			"bufferView":5,
			"componentType":5126,
			"count":296,
			"type":"VEC3"
		},
		{
			"bufferView":6,
			"componentType":5126,
			"count":296,
			"type":"VEC2"
		},
		{
			"bufferView":7,
			"componentType":5123,
			"count":984,
			"type":"SCALAR"
		},
		{
			"bufferView":8,
			"componentType":5126,
			"count":120,
			"max":[
				1.3161617517471313,
				0.18056058883666992,
				0.18224778771400452
			],
			"min":[
				-0.19613075256347656,
				-0.18056058883666992,
				-0.18224778771400452
			],
			"type":"VEC3"
		},
		{
			"bufferView":9,
			"componentType":5126,
			"count":120,
			"type":"VEC3"
		},
		{
			"bufferView":10,
			"componentType":5126,
			"count":120,
			"type":"VEC2"
		},
		{
			"bufferView":11,
			"componentType":5123,
			"count":468,
			"type":"SCALAR"
		},
		{
			"bufferView":12,
			"componentType":5126,
			"count":502,
			"max":[
				0.5673679113388062,
				0.5374908447265625,
				0.1938970983028412
			],
			"min":[
				-1.6608166694641113,
				-0.5298671722412109,
				-0.1938970983028412
			],
			"type":"VEC3"
		},
		{
			"bufferView":13,
			"componentType":5126,
			"count":502,
			"type":"VEC3"
		},
		{
			"bufferView":14,
			"componentType":5126,
			"count":502,
			"type":"VEC2"
		},
		{
			"bufferView":15,
			"componentType":5123,
			"count":966,
			"type":"SCALAR"
		},
		{
			"bufferView":16,
			"componentType":5126,
			"count":246,
			"max":[
				0.49253353476524353,
				1.106701374053955,
				0.8446670770645142
			],
			"min":[
				-0.49253353476524353,
				-0.12275552749633789,
				-0.6794167757034302
			],
			"type":"VEC3"
		},
		{
			"bufferView":17,
			"componentType":5126,
			"count":246,
			"type":"VEC3"
		},
		{
			"bufferView":18,
			"componentType":5126,
			"count":246,
			"type":"VEC2"
		},
		{
			"bufferView":19,
			"componentType":5123,
			"count":948,
			"type":"SCALAR"
		},
		{
			"bufferView":20,
			"componentType":5126,
			"count":128,
			"max":[
				1.3161617517471313,
				0.18056058883666992,
				0.18224778771400452
			],
			"min":[
				-0.19613075256347656,
				-0.18056058883666992,
				-0.18224778771400452
			],
			"type":"VEC3"
		},
		{
			"bufferView":21,
			"componentType":5126,
			"count":128,
			"type":"VEC3"
		},
		{
			"bufferView":22,
			"componentType":5126,
			"count":128,
			"type":"VEC2"
		},
		{
			"bufferView":23,
			"componentType":5123,
			"count":516,
			"type":"SCALAR"
		},
		{
			"bufferView":24,
			"componentType":5126,
			"count":64,
			"max":[
				0.5603630542755127,
				0.5603632926940918,
				0.01961389183998108
			],
			"min":[
				-0.5603630542755127,
				-0.5603632926940918,
				-0.01961389183998108
			],
			"type":"VEC3"
		},
		{
			"bufferView":25,
			"componentType":5126,
			"count":64,
			"type":"VEC3"
		},
		{
			"bufferView":26,
			"componentType":5126,
			"count":64,
			"type":"VEC2"
		},
		{
			"bufferView":27,
			"componentType":5123,
			"count":192,
			"type":"SCALAR"
		},
		{
			"bufferView":28,
			"componentType":5126,
			"count":26,
			"max":[
				1,
				1,
				1
			],
			"min":[
				-1,
				-1,
				-1
			],
			"type":"VEC3"
		},
		{
			"bufferView":29,
			"componentType":5126,
			"count":26,
			"type":"VEC3"
		},
		{
			"bufferView":30,
			"componentType":5126,
			"count":26,
			"type":"VEC2"
		},
		{
			"bufferView":31,
			"componentType":5123,
			"count":72,
			"type":"SCALAR"
		},
		{
			"bufferView":32,
			"componentType":5126,
			"count":26,
			"max":[
				1,
				1,
				1
			],
			"min":[
				-1,
				-1,
				-1
			],
			"type":"VEC3"
		},
		{
			"bufferView":33,
			"componentType":5126,
			"count":26,
			"type":"VEC3"
		},
		{
			"bufferView":34,
			"componentType":5126,
			"count":26,
			"type":"VEC2"
		},
		{
			"bufferView":35,
			"componentType":5123,
			"count":72,
			"type":"SCALAR"
		}
	],
	"bufferViews":[
		{
			"buffer":0,
			"byteLength":14004,
			"byteOffset":0,
			"target":34962
		},
		{
			"buffer":0,
			"byteLength":14004,
			"byteOffset":14004,
			"target":34962
		},
		{
			"buffer":0,
			"byteLength":9336,
			"byteOffset":28008,
			"target":34962
		},
		{
			"buffer":0,
			"byteLength":5856,
			"byteOffset":37344,
			"target":34963
		},
		{
			"buffer":0,
			"byteLength":3552,
			"byteOffset":43200,
			"target":34962
		},
		{
			"buffer":0,
			"byteLength":3552,
			"byteOffset":46752,
			"target":34962
		},
		{
			"buffer":0,
			"byteLength":2368,
			"byteOffset":50304,
			"target":34962
		},
		{
			"buffer":0,
			"byteLength":1968,
			"byteOffset":52672,
			"target":34963
		},
		{
			"buffer":0,
			"byteLength":1440,
			"byteOffset":54640,
			"target":34962
		},
		{
			"buffer":0,
			"byteLength":1440,
			"byteOffset":56080,
			"target":34962
		},
		{
			"buffer":0,
			"byteLength":960,
			"byteOffset":57520,
			"target":34962
		},
		{
			"buffer":0,
			"byteLength":936,
			"byteOffset":58480,
			"target":34963
		},
		{
			"buffer":0,
			"byteLength":6024,
			"byteOffset":59416,
			"target":34962
		},
		{
			"buffer":0,
			"byteLength":6024,
			"byteOffset":65440,
			"target":34962
		},
		{
			"buffer":0,
			"byteLength":4016,
			"byteOffset":71464,
			"target":34962
		},
		{
			"buffer":0,
			"byteLength":1932,
			"byteOffset":75480,
			"target":34963
		},
		{
			"buffer":0,
			"byteLength":2952,
			"byteOffset":77412,
			"target":34962
		},
		{
			"buffer":0,
			"byteLength":2952,
			"byteOffset":80364,
			"target":34962
		},
		{
			"buffer":0,
			"byteLength":1968,
			"byteOffset":83316,
			"target":34962
		},
		{
			"buffer":0,
			"byteLength":1896,
			"byteOffset":85284,
			"target":34963
		},
		{
			"buffer":0,
			"byteLength":1536,
			"byteOffset":87180,
			"target":34962
		},
		{
			"buffer":0,
			"byteLength":1536,
			"byteOffset":88716,
			"target":34962
		},
		{
			"buffer":0,
			"byteLength":1024,
			"byteOffset":90252,
			"target":34962
		},
		{
			"buffer":0,
			"byteLength":1032,
			"byteOffset":91276,
			"target":34963
		},
		{
			"buffer":0,
			"byteLength":768,
			"byteOffset":92308,
			"target":34962
		},
		{
			"buffer":0,
			"byteLength":768,
			"byteOffset":93076,
			"target":34962
		},
		{
			"buffer":0,
			"byteLength":512,
			"byteOffset":93844,
			"target":34962
		},
		{
			"buffer":0,
			"byteLength":384,
			"byteOffset":94356,
			"target":34963
		},
		{
			"buffer":0,
			"byteLength":312,
			"byteOffset":94740,
			"target":34962
		},
		{
			"buffer":0,
			"byteLength":312,
			"byteOffset":95052,
			"target":34962
		},
		{
			"buffer":0,
			"byteLength":208,
			"byteOffset":95364,
			"target":34962
		},
		{
			"buffer":0,
			"byteLength":144,
			"byteOffset":95572,
			"target":34963
		},
		{
			"buffer":0,
			"byteLength":312,
			"byteOffset":95716,
			"target":34962
		},
		{
			"buffer":0,
			"byteLength":312,
			"byteOffset":96028,
			"target":34962
		},
		{
			"buffer":0,
			"byteLength":208,
			"byteOffset":96340,
			"target":34962
		},
		{
			"buffer":0,
			"byteLength":144,
			"byteOffset":96548,
			"target":34963
		}
	],
	"samplers":[
		{
			"magFilter":9728,
			"minFilter":9984
		}
	],
	"buffers":[
		{
			"byteLength":96692,
			"uri":"the_enemy.bin"
		}
	]
}
