{
	"asset":{
		"generator":"Khronos glTF Blender I/O v4.5.47",
		"version":"2.0"
	},
	"scene":0,
	"scenes":[
		{
			"extras":{
				"vs":{
					"export_list":[
						{
							"name":"Collection.dmx",
							"collection":{
								"name":"Collection",
								"type":"Collection"
							},
							"ob_type":"COLLECTION",
							"icon":"GROUP"
						},
						{
							"name":"Collection 2.dmx",
							"collection":{
								"name":"Collection 2",
								"type":"Collection"
							},
							"ob_type":"COLLECTION",
							"icon":"GROUP"
						},
						{
							"name":"Collection 3.dmx",
							"collection":{
								"name":"Collection 3",
								"type":"Collection"
							},
							"ob_type":"COLLECTION",
							"icon":"GROUP"
						}
					]
				},
				"GodotPipelineProps":{
					"mesh_data":0,
					"global_UI":1,
					"export_UI":1,
					"string_setter_UI":0,
					"path_UI":0,
					"collision_UI":1,
					"col_types":6,
					"body_types":0,
					"display_wire":0,
					"save_path":"E:\\game git repo\\project_tidal\\models\\weapons\\hands\\ar_hands.gltf",
					"counter":3,
					"discard_mesh":0
				},
				"UVPackerProps":{
					"uvp_width":1024,
					"uvp_height":1024,
					"uvp_stats":"71.5% \u00a6 0.12s",
					"uvp_prerotate":0,
					"uvp_rotate":0
				}
			},
			"name":"Scene",
			"nodes":[
				0,
				1
			]
		}
	],
	"nodes":[
		{
			"extras":{
				"collision":"bodyonly"
			},
			"mesh":0,
			"name":"Cube.004",
			"rotation":[
				-0.051816340535879135,
				-0.04594701528549194,
				0.9421536326408386,
				0.3279489278793335
			],
			"scale":[
				0.4602840840816498,
				0.46028417348861694,
				0.46028411388397217
			],
			"translation":[
				-0.9065060615539551,
				3.958345413208008,
				-4.015664100646973
			]
		},
		{
			"extras":{
				"collision":"bodyonly"
			},
			"mesh":1,
			"name":"Cube.005",
			"rotation":[
				0.6706424951553345,
				-0.7415634989738464,
				0.004207040183246136,
				0.01745246723294258
			],
			"scale":[
				-0.4602840840816498,
				-0.4602842330932617,
				-0.46028411388397217
			],
			"translation":[
				-0.1621096134185791,
				3.18082332611084,
				2.3208446502685547
			]
		}
	],
	"materials":[
		{
			"doubleSided":true,
			"name":"Material",
			"normalTexture":{
				"index":0
			},
			"pbrMetallicRoughness":{
				"baseColorTexture":{
					"index":1
				},
				"metallicRoughnessTexture":{
					"index":2
				}
			}
		}
	],
	"meshes":[
		{
			"name":"Cube.008",
			"primitives":[
				{
					"attributes":{
						"POSITION":0,
						"NORMAL":1,
						"TEXCOORD_0":2,
						"COLOR_0":3,
						"COLOR_1":4
					},
					"indices":5,
					"material":0
				}
			]
		},
		{
			"name":"Cube.009",
			"primitives":[
				{
					"attributes":{
						"POSITION":6,
						"NORMAL":7,
						"TEXCOORD_0":8,
						"COLOR_0":9,
						"COLOR_1":10
					},
					"indices":11,
					"material":0
				}
			]
		}
	],
	"textures":[
		{
			"sampler":0,
			"source":0
		},
		{
			"sampler":0,
			"source":1
		},
		{
			"sampler":0,
			"source":2
		}
	],
	"images":[
		{
			"mimeType":"image/png",
			"name":"hands_normal",
			"uri":"hands_normal.png"
		},
		{
			"mimeType":"image/png",
			"name":"hands_color",
			"uri":"hands_color.png"
		},
		{
			"mimeType":"image/png",
			"name":"hands_metallic-hands_rough",
			"uri":"hands_metallic-hands_rough.png"
		}
	],
	"accessors":[
		{
			"bufferView":0,
			"componentType":5126,
			"count":1205,
			"max":[
				1.8986443281173706,
				1.6753846406936646,
				16.4217472076416
			],
			"min":[
				-3.8387842178344727,
				-3.6047325134277344,
				-5.521961212158203
			],
			"type":"VEC3"
		},
		{
			"bufferView":1,
			"componentType":5126,
			"count":1205,
			"type":"VEC3"
		},
		{
			"bufferView":2,
			"componentType":5126,
			"count":1205,
			"type":"VEC2"
		},
		{
			"bufferView":3,
			"componentType":5121,
			"count":1205,
			"normalized":true,
			"type":"VEC4"
		},
		{
			"bufferView":4,
			"componentType":5123,
			"count":1205,
			"normalized":true,
			"type":"VEC4"
		},
		{
			"bufferView":5,
			"componentType":5123,
			"count":5526,
			"type":"SCALAR"
		},
		{
			"bufferView":6,
			"componentType":5126,
			"count":1205,
			"max":[
				2.4748589992523193,
				1.6753846406936646,
				16.42174530029297
			],
			"min":[
				-1.9452457427978516,
				-2.145557403564453,
				-3.7450103759765625
			],
			"type":"VEC3"
		},
		{
			"bufferView":7,
			"componentType":5126,
			"count":1205,
			"type":"VEC3"
		},
		{
			"bufferView":8,
			"componentType":5126,
			"count":1205,
			"type":"VEC2"
		},
		{
			"bufferView":9,
			"componentType":5121,
			"count":1205,
			"normalized":true,
			"type":"VEC4"
		},
		{
			"bufferView":10,
			"componentType":5123,
			"count":1205,
			"normalized":true,
			"type":"VEC4"
		},
		{
			"bufferView":11,
			"componentType":5123,
			"count":5526,
			"type":"SCALAR"
		}
	],
	"bufferViews":[
		{
			"buffer":0,
			"byteLength":14460,
			"byteOffset":0,
			"target":34962
		},
		{
			"buffer":0,
			"byteLength":14460,
			"byteOffset":14460,
			"target":34962
		},
		{
			"buffer":0,
			"byteLength":9640,
			"byteOffset":28920,
			"target":34962
		},
		{
			"buffer":0,
			"byteLength":4820,
			"byteOffset":38560,
			"target":34962
		},
		{
			"buffer":0,
			"byteLength":9640,
			"byteOffset":43380,
			"target":34962
		},
		{
			"buffer":0,
			"byteLength":11052,
			"byteOffset":53020,
			"target":34963
		},
		{
			"buffer":0,
			"byteLength":14460,
			"byteOffset":64072,
			"target":34962
		},
		{
			"buffer":0,
			"byteLength":14460,
			"byteOffset":78532,
			"target":34962
		},
		{
			"buffer":0,
			"byteLength":9640,
			"byteOffset":92992,
			"target":34962
		},
		{
			"buffer":0,
			"byteLength":4820,
			"byteOffset":102632,
			"target":34962
		},
		{
			"buffer":0,
			"byteLength":9640,
			"byteOffset":107452,
			"target":34962
		},
		{
			"buffer":0,
			"byteLength":11052,
			"byteOffset":117092,
			"target":34963
		}
	],
	"samplers":[
		{
			"magFilter":9728,
			"minFilter":9984
		}
	],
	"buffers":[
		{
			"byteLength":128144,
			"uri":"ar_hands.bin"
		}
	]
}
