{
	"asset":{
		"generator":"Khronos glTF Blender I/O v4.5.47",
		"version":"2.0"
	},
	"scene":0,
	"scenes":[
		{
			"extras":{
				"vs":{
					"export_list":[
						{
							"name":"Collection.dmx",
							"collection":{
								"name":"Collection",
								"type":"Collection"
							},
							"ob_type":"COLLECTION",
							"icon":"GROUP"
						}
					]
				},
				"GodotPipelineProps":{
					"discard_mesh":0,
					"col_types":0,
					"body_types":0,
					"mesh_data":1,
					"collision_UI":1,
					"path_UI":1,
					"export_UI":1,
					"set_path":"",
					"script_dropdown":0,
					"save_path":"E:\\game git repo\\project_tidal\\models\\Structures\\big window\\window.gltf",
					"counter":4
				},
				"UVPackerProps":{},
				"texToolsSettings":{},
				"td":{}
			},
			"name":"Scene",
			"nodes":[
				0
			]
		}
	],
	"nodes":[
		{
			"extras":{
				"collision":"trimesh",
				"TT_CM_Scale":1.0,
				"center_x":0.0,
				"center_z":6.495664596557617,
				"center_y":12.146431565284729
			},
			"mesh":0,
			"name":"Watchtower.002",
			"scale":[
				0.6000000238418579,
				0.6000000238418579,
				0.6000000238418579
			],
			"translation":[
				-2.4588394165039062,
				3.3469696044921875,
				16.6337890625
			]
		}
	],
	"materials":[
		{
			"alphaMode":"BLEND",
			"doubleSided":true,
			"name":"Material.002",
			"normalTexture":{
				"index":0
			},
			"pbrMetallicRoughness":{
				"baseColorTexture":{
					"index":1
				},
				"metallicRoughnessTexture":{
					"index":2
				}
			}
		}
	],
	"meshes":[
		{
			"extras":{
				"collision":"box",
				"size_x":"105.2807",
				"size_z":"12.9913",
				"size_y":"24.2932"
			},
			"name":"Cube.004",
			"primitives":[
				{
					"attributes":{
						"POSITION":0,
						"NORMAL":1,
						"TEXCOORD_0":2
					},
					"indices":3,
					"material":0
				}
			]
		}
	],
	"textures":[
		{
			"sampler":0,
			"source":0
		},
		{
			"sampler":0,
			"source":1
		},
		{
			"sampler":0,
			"source":2
		}
	],
	"images":[
		{
			"mimeType":"image/png",
			"name":"window_normal",
			"uri":"window_normal.png"
		},
		{
			"mimeType":"image/png",
			"name":"window_basecolor",
			"uri":"window_basecolor.png"
		},
		{
			"mimeType":"image/png",
			"name":"window_metallic-window_rough",
			"uri":"window_metallic-window_rough.png"
		}
	],
	"accessors":[
		{
			"bufferView":0,
			"componentType":5126,
			"count":1279,
			"max":[
				52.640350341796875,
				24.293039321899414,
				0
			],
			"min":[
				-52.640350341796875,
				-0.0001761913299560547,
				-12.991329193115234
			],
			"type":"VEC3"
		},
		{
			"bufferView":1,
			"componentType":5126,
			"count":1279,
			"type":"VEC3"
		},
		{
			"bufferView":2,
			"componentType":5126,
			"count":1279,
			"type":"VEC2"
		},
		{
			"bufferView":3,
			"componentType":5123,
			"count":2073,
			"type":"SCALAR"
		}
	],
	"bufferViews":[
		{
			"buffer":0,
			"byteLength":15348,
			"byteOffset":0,
			"target":34962
		},
		{
			"buffer":0,
			"byteLength":15348,
			"byteOffset":15348,
			"target":34962
		},
		{
			"buffer":0,
			"byteLength":10232,
			"byteOffset":30696,
			"target":34962
		},
		{
			"buffer":0,
			"byteLength":4146,
			"byteOffset":40928,
			"target":34963
		}
	],
	"samplers":[
		{
			"magFilter":9728,
			"minFilter":9984
		}
	],
	"buffers":[
		{
			"byteLength":45076,
			"uri":"window.bin"
		}
	]
}
