{
	"asset":{
		"generator":"Khronos glTF Blender I/O v4.5.47",
		"version":"2.0"
	},
	"scene":0,
	"scenes":[
		{
			"extras":{
				"GodotPipelineProps":{
					"mesh_data":1,
					"global_UI":1,
					"export_UI":1,
					"string_setter_UI":1,
					"path_UI":1,
					"collision_UI":1,
					"save_path":"E:\\game git repo\\project_tidal\\models\\Structures\\final_big_door\\final_big_door.gltf",
					"counter":28,
					"discard_mesh":0,
					"col_types":1,
					"body_types":0,
					"export_textures":0
				},
				"subrect_atlas1":{
					"name":"ExteriorTowerTexAtlas",
					"type":"Object"
				},
				"duv_hotspotmaterial1":{
					"name":"ExteriorTowerTexAtlas",
					"type":"Material"
				},
				"trim_atlas":{},
				"uv_box":{},
				"uvtransferxmax":0.9687499403953552,
				"uvtransferxmin":0.9374999403953552,
				"uvtransferymax":0.75,
				"uvtransferymin":0.5,
				"subrect_atlas":{
					"name":"ExteriorTowerTexAtlas",
					"type":"Object"
				},
				"duv_hotspotmaterial":{
					"name":"ExteriorTowerTexAtlas",
					"type":"Material"
				},
				"duv_usemirrory":1,
				"duv_useorientation":0,
				"vs":{
					"export_list":[
						{
							"name":"Collection.dmx",
							"collection":{
								"name":"Collection",
								"type":"Collection"
							},
							"ob_type":"COLLECTION",
							"icon":"GROUP"
						}
					]
				}
			},
			"name":"Scene",
			"nodes":[
				0,
				1
			]
		}
	],
	"nodes":[
		{
			"extras":{
				"collision":"trimesh"
			},
			"mesh":0,
			"name":"BossTower.001"
		},
		{
			"extras":{
				"center_x":0.0,
				"center_z":-0.47795820236206055,
				"center_y":10.44394302368164
			},
			"mesh":1,
			"name":"Cylinder"
		}
	],
	"materials":[
		{
			"doubleSided":true,
			"name":"Material",
			"pbrMetallicRoughness":{
				"baseColorFactor":[
					0.800000011920929,
					0.800000011920929,
					0.800000011920929,
					1
				]
			}
		}
	],
	"meshes":[
		{
			"extras":{
				"collision":"trimesh"
			},
			"name":"Cube.001",
			"primitives":[
				{
					"attributes":{
						"POSITION":0,
						"NORMAL":1,
						"TEXCOORD_0":2
					},
					"indices":3,
					"material":0
				}
			]
		},
		{
			"extras":{
				"collision":"cylinder",
				"height":"27.819",
				"radius":"16.8789"
			},
			"name":"Cylinder",
			"primitives":[
				{
					"attributes":{
						"POSITION":4,
						"NORMAL":5,
						"TEXCOORD_0":6
					},
					"indices":7
				}
			]
		}
	],
	"accessors":[
		{
			"bufferView":0,
			"componentType":5126,
			"count":320,
			"max":[
				19.80891227722168,
				24.35345458984375,
				2.680891513824463
			],
			"min":[
				-19.723207473754883,
				-3.4655675888061523,
				-2.3821983337402344
			],
			"type":"VEC3"
		},
		{
			"bufferView":1,
			"componentType":5126,
			"count":320,
			"type":"VEC3"
		},
		{
			"bufferView":2,
			"componentType":5126,
			"count":320,
			"type":"VEC2"
		},
		{
			"bufferView":3,
			"componentType":5123,
			"count":924,
			"type":"SCALAR"
		},
		{
			"bufferView":4,
			"componentType":5126,
			"count":194,
			"max":[
				16.878902435302734,
				24.35345458984375,
				1.8500218391418457
			],
			"min":[
				-16.878902435302734,
				-3.4655685424804688,
				-0.8941054344177246
			],
			"type":"VEC3"
		},
		{
			"bufferView":5,
			"componentType":5126,
			"count":194,
			"type":"VEC3"
		},
		{
			"bufferView":6,
			"componentType":5126,
			"count":194,
			"type":"VEC2"
		},
		{
			"bufferView":7,
			"componentType":5123,
			"count":510,
			"type":"SCALAR"
		}
	],
	"bufferViews":[
		{
			"buffer":0,
			"byteLength":3840,
			"byteOffset":0,
			"target":34962
		},
		{
			"buffer":0,
			"byteLength":3840,
			"byteOffset":3840,
			"target":34962
		},
		{
			"buffer":0,
			"byteLength":2560,
			"byteOffset":7680,
			"target":34962
		},
		{
			"buffer":0,
			"byteLength":1848,
			"byteOffset":10240,
			"target":34963
		},
		{
			"buffer":0,
			"byteLength":2328,
			"byteOffset":12088,
			"target":34962
		},
		{
			"buffer":0,
			"byteLength":2328,
			"byteOffset":14416,
			"target":34962
		},
		{
			"buffer":0,
			"byteLength":1552,
			"byteOffset":16744,
			"target":34962
		},
		{
			"buffer":0,
			"byteLength":1020,
			"byteOffset":18296,
			"target":34963
		}
	],
	"buffers":[
		{
			"byteLength":19316,
			"uri":"final_big_door.bin"
		}
	]
}
