{
	"asset":{
		"generator":"Khronos glTF Blender I/O v4.5.47",
		"version":"2.0"
	},
	"scene":0,
	"scenes":[
		{
			"extras":{
				"vs":{
					"export_list":[
						{
							"name":"Collection.dmx",
							"collection":{
								"name":"Collection",
								"type":"Collection"
							},
							"ob_type":"COLLECTION",
							"icon":"GROUP"
						}
					]
				},
				"GodotPipelineProps":{
					"discard_mesh":0,
					"col_types":4,
					"body_types":0,
					"mesh_data":1,
					"global_UI":1,
					"collision_UI":1,
					"export_UI":1,
					"save_path":"E:\\game git repo\\project_tidal\\models\\Structures\\bigdoor\\tooth_door.gltf",
					"counter":2
				},
				"texToolsSettings":{},
				"UVPackerProps":{
					"uvp_stats":"46.97% \u00a6 0.11s",
					"uvp_padding":8.0,
					"uvp_rescale":0
				},
				"td":{}
			},
			"name":"Scene",
			"nodes":[
				0,
				1
			]
		}
	],
	"nodes":[
		{
			"extras":{
				"collision":"trimesh"
			},
			"mesh":0,
			"name":"Watchtower.001",
			"scale":[
				0.6000000238418579,
				0.6000000238418579,
				0.6000000238418579
			],
			"translation":[
				0,
				-4.466922283172607,
				0
			]
		},
		{
			"extras":{
				"collision":"trimesh"
			},
			"mesh":1,
			"name":"Watchtower.002",
			"scale":[
				0.6000000238418579,
				0.6000000238418579,
				0.6000000238418579
			],
			"translation":[
				0,
				-17.867691040039062,
				0
			]
		}
	],
	"materials":[
		{
			"doubleSided":true,
			"name":"Material.001",
			"normalTexture":{
				"index":0
			},
			"pbrMetallicRoughness":{
				"baseColorTexture":{
					"index":1
				},
				"metallicRoughnessTexture":{
					"index":2
				}
			}
		}
	],
	"meshes":[
		{
			"extras":{
				"collision":"trimesh"
			},
			"name":"Cube.001",
			"primitives":[
				{
					"attributes":{
						"POSITION":0,
						"NORMAL":1,
						"TEXCOORD_0":2
					},
					"indices":3,
					"material":0
				}
			]
		},
		{
			"extras":{
				"collision":"trimesh"
			},
			"name":"Cube.002",
			"primitives":[
				{
					"attributes":{
						"POSITION":4,
						"NORMAL":5,
						"TEXCOORD_0":6
					},
					"indices":7,
					"material":0
				}
			]
		}
	],
	"textures":[
		{
			"sampler":0,
			"source":0
		},
		{
			"sampler":0,
			"source":1
		},
		{
			"sampler":0,
			"source":2
		}
	],
	"images":[
		{
			"mimeType":"image/png",
			"name":"toothdoor_normal",
			"uri":"toothdoor_normal.png"
		},
		{
			"mimeType":"image/png",
			"name":"toothdoor_basecolor",
			"uri":"toothdoor_basecolor.png"
		},
		{
			"mimeType":"image/png",
			"name":"toothdoor_metallic-toothdoor_rough",
			"uri":"toothdoor_metallic-toothdoor_rough.png"
		}
	],
	"accessors":[
		{
			"bufferView":0,
			"componentType":5126,
			"count":694,
			"max":[
				52.01866149902344,
				16.250965118408203,
				16.074440002441406
			],
			"min":[
				-52.00355529785156,
				0.5603880882263184,
				-6.06787109375
			],
			"type":"VEC3"
		},
		{
			"bufferView":1,
			"componentType":5126,
			"count":694,
			"type":"VEC3"
		},
		{
			"bufferView":2,
			"componentType":5126,
			"count":694,
			"type":"VEC2"
		},
		{
			"bufferView":3,
			"componentType":5123,
			"count":1266,
			"type":"SCALAR"
		},
		{
			"bufferView":4,
			"componentType":5126,
			"count":692,
			"max":[
				52.01866149902344,
				47.17865753173828,
				16.074440002441406
			],
			"min":[
				-52.00355529785156,
				28.671606063842773,
				-6.06787109375
			],
			"type":"VEC3"
		},
		{
			"bufferView":5,
			"componentType":5126,
			"count":692,
			"type":"VEC3"
		},
		{
			"bufferView":6,
			"componentType":5126,
			"count":692,
			"type":"VEC2"
		},
		{
			"bufferView":7,
			"componentType":5123,
			"count":1266,
			"type":"SCALAR"
		}
	],
	"bufferViews":[
		{
			"buffer":0,
			"byteLength":8328,
			"byteOffset":0,
			"target":34962
		},
		{
			"buffer":0,
			"byteLength":8328,
			"byteOffset":8328,
			"target":34962
		},
		{
			"buffer":0,
			"byteLength":5552,
			"byteOffset":16656,
			"target":34962
		},
		{
			"buffer":0,
			"byteLength":2532,
			"byteOffset":22208,
			"target":34963
		},
		{
			"buffer":0,
			"byteLength":8304,
			"byteOffset":24740,
			"target":34962
		},
		{
			"buffer":0,
			"byteLength":8304,
			"byteOffset":33044,
			"target":34962
		},
		{
			"buffer":0,
			"byteLength":5536,
			"byteOffset":41348,
			"target":34962
		},
		{
			"buffer":0,
			"byteLength":2532,
			"byteOffset":46884,
			"target":34963
		}
	],
	"samplers":[
		{
			"magFilter":9728,
			"minFilter":9984
		}
	],
	"buffers":[
		{
			"byteLength":49416,
			"uri":"tooth_door.bin"
		}
	]
}
