{
	"asset":{
		"generator":"Khronos glTF Blender I/O v4.5.47",
		"version":"2.0"
	},
	"scene":0,
	"scenes":[
		{
			"extras":{
				"GodotPipelineProps":{
					"mesh_data":0,
					"global_UI":1,
					"export_UI":1,
					"string_setter_UI":1,
					"path_UI":1,
					"collision_UI":1,
					"save_path":"E:\\game git repo\\project_tidal\\models\\props\\tower1interior\\tower_1_interior.gltf",
					"counter":29,
					"discard_mesh":0,
					"col_types":4,
					"body_types":0,
					"export_textures":0,
					"use_mat_slot":0,
					"individual_origins":0
				},
				"subrect_atlas1":{
					"name":"ExteriorTowerTexAtlas",
					"type":"Object"
				},
				"duv_hotspotmaterial1":{
					"name":"ExteriorTowerTexAtlas",
					"type":"Material"
				},
				"trim_atlas":{},
				"uv_box":{},
				"uvtransferxmax":0.9687499403953552,
				"uvtransferxmin":0.9374999403953552,
				"uvtransferymax":0.75,
				"uvtransferymin":0.5,
				"subrect_atlas":{
					"name":"ExteriorTowerTexAtlas",
					"type":"Object"
				},
				"duv_hotspotmaterial":{
					"name":"ExteriorTowerTexAtlas",
					"type":"Material"
				},
				"duv_usemirrory":1,
				"duv_useorientation":0,
				"vs":{
					"export_list":[
						{
							"name":"Collection.dmx",
							"collection":{
								"name":"Collection",
								"type":"Collection"
							},
							"ob_type":"COLLECTION",
							"icon":"GROUP"
						},
						{
							"name":"one.dmx",
							"collection":{
								"name":"one",
								"type":"Collection"
							},
							"ob_type":"COLLECTION",
							"icon":"GROUP"
						},
						{
							"name":"too.dmx",
							"collection":{
								"name":"too",
								"type":"Collection"
							},
							"ob_type":"COLLECTION",
							"icon":"GROUP"
						}
					]
				}
			},
			"name":"Scene",
			"nodes":[
				0,
				1,
				2,
				3,
				4,
				5,
				6,
				7
			]
		}
	],
	"nodes":[
		{
			"extras":{
				"vs":{}
			},
			"mesh":0,
			"name":"Fence.001",
			"scale":[
				0.2562532424926758,
				0.2562532424926758,
				0.2562532424926758
			],
			"translation":[
				20.92180633544922,
				3.9035167694091797,
				-40.059165954589844
			]
		},
		{
			"extras":{
				"vs":{}
			},
			"mesh":1,
			"name":"Gun back part.002",
			"rotation":[
				0.6616628766059875,
				-0.24940374493598938,
				0.24940374493598938,
				0.6616629362106323
			],
			"scale":[
				2.6917388439178467,
				2.6917388439178467,
				1.758085012435913
			],
			"translation":[
				8.468307495117188,
				2.7590367794036865,
				-38.1605224609375
			]
		},
		{
			"extras":{
				"vs":{}
			},
			"mesh":2,
			"name":"Gun back part.003",
			"rotation":[
				0.43008729815483093,
				-0.5612708330154419,
				0.5612708330154419,
				0.43008726835250854
			],
			"scale":[
				2.6917388439178467,
				2.6917388439178467,
				1.758085012435913
			],
			"translation":[
				-16.354034423828125,
				2.7590367794036865,
				27.662384033203125
			]
		},
		{
			"extras":{
				"vs":{}
			},
			"mesh":3,
			"name":"Main gun.001",
			"rotation":[
				-0.05479942634701729,
				0.9566127061843872,
				-0.01636596769094467,
				0.285694420337677
			],
			"scale":[
				1.6527717113494873,
				1.6527714729309082,
				2.1091067790985107
			],
			"translation":[
				12.849143981933594,
				3.544102191925049,
				26.268516540527344
			]
		},
		{
			"extras":{
				"vs":{}
			},
			"mesh":4,
			"name":"Stam master.005",
			"rotation":[
				0,
				0.7575194835662842,
				0,
				0.6528125405311584
			],
			"scale":[
				1.7444595098495483,
				1.7444595098495483,
				1.7444595098495483
			],
			"translation":[
				-15.676284790039062,
				-9.403460502624512,
				-4.976357936859131
			]
		},
		{
			"extras":{
				"vs":{}
			},
			"mesh":5,
			"name":"Stam master.006",
			"rotation":[
				0,
				0,
				0.7098985314369202,
				0.7043039798736572
			],
			"scale":[
				1.7444595098495483,
				1.7444595098495483,
				1.7444595098495483
			],
			"translation":[
				12.002815246582031,
				3.279898166656494,
				-14.02217960357666
			]
		},
		{
			"extras":{
				"vs":{}
			},
			"mesh":6,
			"name":"Stam master.007",
			"rotation":[
				0.6925813555717468,
				0.6871232986450195,
				0.15584273636341095,
				0.15461458265781403
			],
			"scale":[
				1.7444595098495483,
				1.7444593906402588,
				1.7444595098495483
			],
			"translation":[
				-14.940322875976562,
				3.1733107566833496,
				-32.28074264526367
			]
		},
		{
			"extras":{
				"vs":{}
			},
			"mesh":7,
			"name":"Stam master.008",
			"rotation":[
				0,
				-0.8293194770812988,
				0,
				0.5587748885154724
			],
			"scale":[
				1.7444595098495483,
				1.7444595098495483,
				1.7444595098495483
			],
			"translation":[
				-7.680915832519531,
				-9.30140495300293,
				-0.6110454797744751
			]
		}
	],
	"materials":[
		{
			"doubleSided":true,
			"emissiveFactor":[
				1,
				1,
				1
			],
			"name":"Material.002",
			"pbrMetallicRoughness":{
				"baseColorFactor":[
					0.800000011920929,
					0.800000011920929,
					0.800000011920929,
					1
				]
			}
		},
		{
			"doubleSided":true,
			"emissiveFactor":[
				1,
				1,
				1
			],
			"name":"Material.003",
			"pbrMetallicRoughness":{
				"baseColorFactor":[
					0.800000011920929,
					0.800000011920929,
					0.800000011920929,
					1
				]
			}
		},
		{
			"doubleSided":true,
			"emissiveFactor":[
				1,
				1,
				1
			],
			"name":"Material.001",
			"pbrMetallicRoughness":{
				"baseColorFactor":[
					0.800000011920929,
					0.800000011920929,
					0.800000011920929,
					1
				]
			}
		}
	],
	"meshes":[
		{
			"name":"Cube.013",
			"primitives":[
				{
					"attributes":{
						"POSITION":0,
						"NORMAL":1,
						"TEXCOORD_0":2
					},
					"indices":3
				}
			]
		},
		{
			"name":"Cube.018",
			"primitives":[
				{
					"attributes":{
						"POSITION":4,
						"NORMAL":5,
						"TEXCOORD_0":6
					},
					"indices":7,
					"material":0
				}
			]
		},
		{
			"name":"Cube.019",
			"primitives":[
				{
					"attributes":{
						"POSITION":8,
						"NORMAL":9,
						"TEXCOORD_0":10
					},
					"indices":7,
					"material":0
				}
			]
		},
		{
			"name":"Cube.021",
			"primitives":[
				{
					"attributes":{
						"POSITION":11,
						"NORMAL":12,
						"TEXCOORD_0":13
					},
					"indices":14,
					"material":1
				}
			]
		},
		{
			"name":"Cube.014",
			"primitives":[
				{
					"attributes":{
						"POSITION":15,
						"NORMAL":16,
						"TEXCOORD_0":17
					},
					"indices":18,
					"material":2
				}
			]
		},
		{
			"name":"Cube.015",
			"primitives":[
				{
					"attributes":{
						"POSITION":19,
						"NORMAL":20,
						"TEXCOORD_0":21
					},
					"indices":22,
					"material":2
				}
			]
		},
		{
			"name":"Cube.016",
			"primitives":[
				{
					"attributes":{
						"POSITION":23,
						"NORMAL":24,
						"TEXCOORD_0":25
					},
					"indices":22,
					"material":2
				}
			]
		},
		{
			"name":"Cube.017",
			"primitives":[
				{
					"attributes":{
						"POSITION":26,
						"NORMAL":27,
						"TEXCOORD_0":28
					},
					"indices":18,
					"material":2
				}
			]
		}
	],
	"accessors":[
		{
			"bufferView":0,
			"componentType":5126,
			"count":3006,
			"max":[
				1.4142135381698608,
				2.8284268379211426,
				336.62506103515625
			],
			"min":[
				-175.3624725341797,
				-10.579065322875977,
				-24.194984436035156
			],
			"type":"VEC3"
		},
		{
			"bufferView":1,
			"componentType":5126,
			"count":3006,
			"type":"VEC3"
		},
		{
			"bufferView":2,
			"componentType":5126,
			"count":3006,
			"type":"VEC2"
		},
		{
			"bufferView":3,
			"componentType":5123,
			"count":4212,
			"type":"SCALAR"
		},
		{
			"bufferView":4,
			"componentType":5126,
			"count":90,
			"max":[
				3.025320291519165,
				1,
				1
			],
			"min":[
				-1,
				-2.415102958679199,
				-1
			],
			"type":"VEC3"
		},
		{
			"bufferView":5,
			"componentType":5126,
			"count":90,
			"type":"VEC3"
		},
		{
			"bufferView":6,
			"componentType":5126,
			"count":90,
			"type":"VEC2"
		},
		{
			"bufferView":7,
			"componentType":5123,
			"count":300,
			"type":"SCALAR"
		},
		{
			"bufferView":8,
			"componentType":5126,
			"count":90,
			"max":[
				3.025320291519165,
				1,
				1
			],
			"min":[
				-1,
				-2.415102958679199,
				-1
			],
			"type":"VEC3"
		},
		{
			"bufferView":9,
			"componentType":5126,
			"count":90,
			"type":"VEC3"
		},
		{
			"bufferView":10,
			"componentType":5126,
			"count":90,
			"type":"VEC2"
		},
		{
			"bufferView":11,
			"componentType":5126,
			"count":527,
			"max":[
				12.017769813537598,
				6.6229095458984375,
				2.1264216899871826
			],
			"min":[
				-3.745272636413574,
				-1.0511455535888672,
				-2.1264216899871826
			],
			"type":"VEC3"
		},
		{
			"bufferView":12,
			"componentType":5126,
			"count":527,
			"type":"VEC3"
		},
		{
			"bufferView":13,
			"componentType":5126,
			"count":527,
			"type":"VEC2"
		},
		{
			"bufferView":14,
			"componentType":5123,
			"count":1746,
			"type":"SCALAR"
		},
		{
			"bufferView":15,
			"componentType":5126,
			"count":112,
			"max":[
				1.50294029712677,
				8.885343551635742,
				2.4566097259521484
			],
			"min":[
				-1.50294029712677,
				6.015617847442627,
				-2.4566097259521484
			],
			"type":"VEC3"
		},
		{
			"bufferView":16,
			"componentType":5126,
			"count":112,
			"type":"VEC3"
		},
		{
			"bufferView":17,
			"componentType":5126,
			"count":112,
			"type":"VEC2"
		},
		{
			"bufferView":18,
			"componentType":5123,
			"count":306,
			"type":"SCALAR"
		},
		{
			"bufferView":19,
			"componentType":5126,
			"count":329,
			"max":[
				1.50294029712677,
				6.015617847442627,
				2.4566097259521484
			],
			"min":[
				-1.50294029712677,
				-1.5638411045074463,
				-2.4566097259521484
			],
			"type":"VEC3"
		},
		{
			"bufferView":20,
			"componentType":5126,
			"count":329,
			"type":"VEC3"
		},
		{
			"bufferView":21,
			"componentType":5126,
			"count":329,
			"type":"VEC2"
		},
		{
			"bufferView":22,
			"componentType":5123,
			"count":948,
			"type":"SCALAR"
		},
		{
			"bufferView":23,
			"componentType":5126,
			"count":329,
			"max":[
				1.50294029712677,
				6.015617847442627,
				2.4566097259521484
			],
			"min":[
				-1.50294029712677,
				-1.5638411045074463,
				-2.4566097259521484
			],
			"type":"VEC3"
		},
		{
			"bufferView":24,
			"componentType":5126,
			"count":329,
			"type":"VEC3"
		},
		{
			"bufferView":25,
			"componentType":5126,
			"count":329,
			"type":"VEC2"
		},
		{
			"bufferView":26,
			"componentType":5126,
			"count":112,
			"max":[
				1.50294029712677,
				8.885343551635742,
				2.4566097259521484
			],
			"min":[
				-1.50294029712677,
				6.015617847442627,
				-2.4566097259521484
			],
			"type":"VEC3"
		},
		{
			"bufferView":27,
			"componentType":5126,
			"count":112,
			"type":"VEC3"
		},
		{
			"bufferView":28,
			"componentType":5126,
			"count":112,
			"type":"VEC2"
		}
	],
	"bufferViews":[
		{
			"buffer":0,
			"byteLength":36072,
			"byteOffset":0,
			"target":34962
		},
		{
			"buffer":0,
			"byteLength":36072,
			"byteOffset":36072,
			"target":34962
		},
		{
			"buffer":0,
			"byteLength":24048,
			"byteOffset":72144,
			"target":34962
		},
		{
			"buffer":0,
			"byteLength":8424,
			"byteOffset":96192,
			"target":34963
		},
		{
			"buffer":0,
			"byteLength":1080,
			"byteOffset":104616,
			"target":34962
		},
		{
			"buffer":0,
			"byteLength":1080,
			"byteOffset":105696,
			"target":34962
		},
		{
			"buffer":0,
			"byteLength":720,
			"byteOffset":106776,
			"target":34962
		},
		{
			"buffer":0,
			"byteLength":600,
			"byteOffset":107496,
			"target":34963
		},
		{
			"buffer":0,
			"byteLength":1080,
			"byteOffset":108096,
			"target":34962
		},
		{
			"buffer":0,
			"byteLength":1080,
			"byteOffset":109176,
			"target":34962
		},
		{
			"buffer":0,
			"byteLength":720,
			"byteOffset":110256,
			"target":34962
		},
		{
			"buffer":0,
			"byteLength":6324,
			"byteOffset":110976,
			"target":34962
		},
		{
			"buffer":0,
			"byteLength":6324,
			"byteOffset":117300,
			"target":34962
		},
		{
			"buffer":0,
			"byteLength":4216,
			"byteOffset":123624,
			"target":34962
		},
		{
			"buffer":0,
			"byteLength":3492,
			"byteOffset":127840,
			"target":34963
		},
		{
			"buffer":0,
			"byteLength":1344,
			"byteOffset":131332,
			"target":34962
		},
		{
			"buffer":0,
			"byteLength":1344,
			"byteOffset":132676,
			"target":34962
		},
		{
			"buffer":0,
			"byteLength":896,
			"byteOffset":134020,
			"target":34962
		},
		{
			"buffer":0,
			"byteLength":612,
			"byteOffset":134916,
			"target":34963
		},
		{
			"buffer":0,
			"byteLength":3948,
			"byteOffset":135528,
			"target":34962
		},
		{
			"buffer":0,
			"byteLength":3948,
			"byteOffset":139476,
			"target":34962
		},
		{
			"buffer":0,
			"byteLength":2632,
			"byteOffset":143424,
			"target":34962
		},
		{
			"buffer":0,
			"byteLength":1896,
			"byteOffset":146056,
			"target":34963
		},
		{
			"buffer":0,
			"byteLength":3948,
			"byteOffset":147952,
			"target":34962
		},
		{
			"buffer":0,
			"byteLength":3948,
			"byteOffset":151900,
			"target":34962
		},
		{
			"buffer":0,
			"byteLength":2632,
			"byteOffset":155848,
			"target":34962
		},
		{
			"buffer":0,
			"byteLength":1344,
			"byteOffset":158480,
			"target":34962
		},
		{
			"buffer":0,
			"byteLength":1344,
			"byteOffset":159824,
			"target":34962
		},
		{
			"buffer":0,
			"byteLength":896,
			"byteOffset":161168,
			"target":34962
		}
	],
	"buffers":[
		{
			"byteLength":162064,
			"uri":"tower_1_interior.bin"
		}
	]
}
