{
	"asset":{
		"generator":"Khronos glTF Blender I/O v4.5.47",
		"version":"2.0"
	},
	"scene":0,
	"scenes":[
		{
			"extras":{
				"GodotPipelineProps":{
					"mesh_data":0,
					"global_UI":1,
					"export_UI":1,
					"string_setter_UI":1,
					"path_UI":1,
					"collision_UI":1,
					"save_path":"E:\\game git repo\\project_tidal\\models\\props\\tower1interior\\tower_2_interior.gltf",
					"counter":30,
					"discard_mesh":0,
					"col_types":4,
					"body_types":0,
					"export_textures":0,
					"use_mat_slot":0,
					"individual_origins":0
				},
				"subrect_atlas1":{
					"name":"ExteriorTowerTexAtlas",
					"type":"Object"
				},
				"duv_hotspotmaterial1":{
					"name":"ExteriorTowerTexAtlas",
					"type":"Material"
				},
				"trim_atlas":{},
				"uv_box":{},
				"uvtransferxmax":0.9687499403953552,
				"uvtransferxmin":0.9374999403953552,
				"uvtransferymax":0.75,
				"uvtransferymin":0.5,
				"subrect_atlas":{
					"name":"ExteriorTowerTexAtlas",
					"type":"Object"
				},
				"duv_hotspotmaterial":{
					"name":"ExteriorTowerTexAtlas",
					"type":"Material"
				},
				"duv_usemirrory":1,
				"duv_useorientation":0,
				"vs":{
					"export_list":[
						{
							"name":"Collection.dmx",
							"collection":{
								"name":"Collection",
								"type":"Collection"
							},
							"ob_type":"COLLECTION",
							"icon":"GROUP"
						},
						{
							"name":"one.dmx",
							"collection":{
								"name":"one",
								"type":"Collection"
							},
							"ob_type":"COLLECTION",
							"icon":"GROUP"
						},
						{
							"name":"too.dmx",
							"collection":{
								"name":"too",
								"type":"Collection"
							},
							"ob_type":"COLLECTION",
							"icon":"GROUP"
						}
					]
				}
			},
			"name":"Scene",
			"nodes":[
				0,
				1,
				2,
				3,
				4,
				5,
				6,
				7,
				8
			]
		}
	],
	"nodes":[
		{
			"extras":{
				"vs":{}
			},
			"mesh":0,
			"name":"Cube",
			"scale":[
				0.3597415089607239,
				1,
				1
			],
			"translation":[
				-22.361183166503906,
				2.261213541030884,
				37.11046600341797
			]
		},
		{
			"extras":{
				"vs":{}
			},
			"mesh":1,
			"name":"Fence",
			"scale":[
				0.2562532424926758,
				0.2562532424926758,
				0.2562532424926758
			],
			"translation":[
				22.699010848999023,
				3.9035167694091797,
				-40.059165954589844
			]
		},
		{
			"extras":{
				"vs":{}
			},
			"mesh":2,
			"name":"Gun back part",
			"rotation":[
				0.6616628766059875,
				-0.24940374493598938,
				0.24940374493598938,
				0.6616629362106323
			],
			"scale":[
				2.6917388439178467,
				2.6917388439178467,
				1.758085012435913
			],
			"translation":[
				11.260387420654297,
				2.7590367794036865,
				18.165477752685547
			]
		},
		{
			"extras":{
				"vs":{}
			},
			"mesh":3,
			"name":"Main gun",
			"rotation":[
				-0.14988218247890472,
				0.7765776515007019,
				0.5766006708145142,
				0.2049247771501541
			],
			"scale":[
				1.6527715921401978,
				1.6527717113494873,
				2.1091067790985107
			],
			"translation":[
				13.35773754119873,
				3.5909194946289062,
				2.0381855964660645
			]
		},
		{
			"extras":{
				"vs":{}
			},
			"mesh":4,
			"name":"Stam master.001",
			"rotation":[
				0,
				0.7575194835662842,
				0,
				0.6528125405311584
			],
			"scale":[
				1.7444595098495483,
				1.7444595098495483,
				1.7444595098495483
			],
			"translation":[
				12.741592407226562,
				-9.84253215789795,
				-35.80342483520508
			]
		},
		{
			"extras":{
				"vs":{}
			},
			"mesh":5,
			"name":"Stam master.002",
			"rotation":[
				-0.09656932204961777,
				-0.09580827504396439,
				0.7032996416091919,
				0.6977570056915283
			],
			"scale":[
				1.7444595098495483,
				1.7444595098495483,
				1.7444595098495483
			],
			"translation":[
				-8.674263000488281,
				3.279898166656494,
				-23.66356658935547
			]
		},
		{
			"extras":{
				"vs":{}
			},
			"mesh":6,
			"name":"Stam master.003",
			"rotation":[
				0.3390941619873047,
				0.33642181754112244,
				0.6236754655838013,
				0.6187604069709778
			],
			"scale":[
				1.7444595098495483,
				1.744459629058838,
				1.7444595098495483
			],
			"translation":[
				11.955230712890625,
				3.1733107566833496,
				-20.102148056030273
			]
		},
		{
			"extras":{
				"vs":{}
			},
			"mesh":7,
			"name":"Stam master.004",
			"rotation":[
				0,
				0.8194579482078552,
				0,
				0.5731393098831177
			],
			"scale":[
				1.7444595098495483,
				1.7444595098495483,
				1.7444595098495483
			],
			"translation":[
				-15.037666320800781,
				-9.30140495300293,
				18.037429809570312
			]
		},
		{
			"extras":{
				"vs":{}
			},
			"mesh":8,
			"name":"Turret_Base",
			"rotation":[
				0,
				-0.2118387669324875,
				0,
				0.9773046374320984
			],
			"translation":[
				-11.417433738708496,
				6.267578601837158,
				34.75782012939453
			]
		}
	],
	"materials":[
		{
			"doubleSided":true,
			"emissiveFactor":[
				1,
				1,
				1
			],
			"name":"Material.002",
			"pbrMetallicRoughness":{
				"baseColorFactor":[
					0.800000011920929,
					0.800000011920929,
					0.800000011920929,
					1
				]
			}
		},
		{
			"doubleSided":true,
			"emissiveFactor":[
				1,
				1,
				1
			],
			"name":"Material.003",
			"pbrMetallicRoughness":{
				"baseColorFactor":[
					0.800000011920929,
					0.800000011920929,
					0.800000011920929,
					1
				]
			}
		},
		{
			"doubleSided":true,
			"emissiveFactor":[
				1,
				1,
				1
			],
			"name":"Material.001",
			"pbrMetallicRoughness":{
				"baseColorFactor":[
					0.800000011920929,
					0.800000011920929,
					0.800000011920929,
					1
				]
			}
		},
		{
			"doubleSided":true,
			"emissiveFactor":[
				1,
				1,
				1
			],
			"name":"Material.004",
			"pbrMetallicRoughness":{
				"baseColorFactor":[
					0.800000011920929,
					0.800000011920929,
					0.800000011920929,
					1
				]
			}
		}
	],
	"meshes":[
		{
			"name":"Cube",
			"primitives":[
				{
					"attributes":{
						"POSITION":0,
						"NORMAL":1,
						"TEXCOORD_0":2
					},
					"indices":3
				}
			]
		},
		{
			"name":"Cube.002",
			"primitives":[
				{
					"attributes":{
						"POSITION":4,
						"NORMAL":5,
						"TEXCOORD_0":6
					},
					"indices":7
				}
			]
		},
		{
			"name":"Cube.010",
			"primitives":[
				{
					"attributes":{
						"POSITION":8,
						"NORMAL":9,
						"TEXCOORD_0":10
					},
					"indices":11,
					"material":0
				}
			]
		},
		{
			"name":"Cube.012",
			"primitives":[
				{
					"attributes":{
						"POSITION":12,
						"NORMAL":13,
						"TEXCOORD_0":14
					},
					"indices":15,
					"material":1
				}
			]
		},
		{
			"name":"Cube.005",
			"primitives":[
				{
					"attributes":{
						"POSITION":16,
						"NORMAL":17,
						"TEXCOORD_0":18
					},
					"indices":19,
					"material":2
				}
			]
		},
		{
			"name":"Cube.006",
			"primitives":[
				{
					"attributes":{
						"POSITION":20,
						"NORMAL":21,
						"TEXCOORD_0":22
					},
					"indices":23,
					"material":2
				}
			]
		},
		{
			"name":"Cube.007",
			"primitives":[
				{
					"attributes":{
						"POSITION":24,
						"NORMAL":25,
						"TEXCOORD_0":26
					},
					"indices":23,
					"material":2
				}
			]
		},
		{
			"name":"Cube.009",
			"primitives":[
				{
					"attributes":{
						"POSITION":27,
						"NORMAL":28,
						"TEXCOORD_0":29
					},
					"indices":19,
					"material":2
				}
			]
		},
		{
			"name":"Cylinder",
			"primitives":[
				{
					"attributes":{
						"POSITION":30,
						"NORMAL":31,
						"TEXCOORD_0":32
					},
					"indices":33,
					"material":3
				}
			]
		}
	],
	"accessors":[
		{
			"bufferView":0,
			"componentType":5126,
			"count":24,
			"max":[
				1,
				1,
				1.0086746215820312
			],
			"min":[
				-1,
				-1,
				-8.894159317016602
			],
			"type":"VEC3"
		},
		{
			"bufferView":1,
			"componentType":5126,
			"count":24,
			"type":"VEC3"
		},
		{
			"bufferView":2,
			"componentType":5126,
			"count":24,
			"type":"VEC2"
		},
		{
			"bufferView":3,
			"componentType":5123,
			"count":36,
			"type":"SCALAR"
		},
		{
			"bufferView":4,
			"componentType":5126,
			"count":3006,
			"max":[
				1.4142135381698608,
				2.8284268379211426,
				336.62506103515625
			],
			"min":[
				-175.3624725341797,
				-10.579065322875977,
				-24.194984436035156
			],
			"type":"VEC3"
		},
		{
			"bufferView":5,
			"componentType":5126,
			"count":3006,
			"type":"VEC3"
		},
		{
			"bufferView":6,
			"componentType":5126,
			"count":3006,
			"type":"VEC2"
		},
		{
			"bufferView":7,
			"componentType":5123,
			"count":4212,
			"type":"SCALAR"
		},
		{
			"bufferView":8,
			"componentType":5126,
			"count":90,
			"max":[
				3.025320291519165,
				1,
				1
			],
			"min":[
				-1,
				-2.415102958679199,
				-1
			],
			"type":"VEC3"
		},
		{
			"bufferView":9,
			"componentType":5126,
			"count":90,
			"type":"VEC3"
		},
		{
			"bufferView":10,
			"componentType":5126,
			"count":90,
			"type":"VEC2"
		},
		{
			"bufferView":11,
			"componentType":5123,
			"count":300,
			"type":"SCALAR"
		},
		{
			"bufferView":12,
			"componentType":5126,
			"count":527,
			"max":[
				12.017769813537598,
				6.6229095458984375,
				2.1264216899871826
			],
			"min":[
				-3.745272636413574,
				-1.0511455535888672,
				-2.1264216899871826
			],
			"type":"VEC3"
		},
		{
			"bufferView":13,
			"componentType":5126,
			"count":527,
			"type":"VEC3"
		},
		{
			"bufferView":14,
			"componentType":5126,
			"count":527,
			"type":"VEC2"
		},
		{
			"bufferView":15,
			"componentType":5123,
			"count":1746,
			"type":"SCALAR"
		},
		{
			"bufferView":16,
			"componentType":5126,
			"count":112,
			"max":[
				1.50294029712677,
				8.885343551635742,
				2.4566097259521484
			],
			"min":[
				-1.50294029712677,
				6.015617847442627,
				-2.4566097259521484
			],
			"type":"VEC3"
		},
		{
			"bufferView":17,
			"componentType":5126,
			"count":112,
			"type":"VEC3"
		},
		{
			"bufferView":18,
			"componentType":5126,
			"count":112,
			"type":"VEC2"
		},
		{
			"bufferView":19,
			"componentType":5123,
			"count":306,
			"type":"SCALAR"
		},
		{
			"bufferView":20,
			"componentType":5126,
			"count":329,
			"max":[
				1.50294029712677,
				6.015617847442627,
				2.4566097259521484
			],
			"min":[
				-1.50294029712677,
				-1.5638411045074463,
				-2.4566097259521484
			],
			"type":"VEC3"
		},
		{
			"bufferView":21,
			"componentType":5126,
			"count":329,
			"type":"VEC3"
		},
		{
			"bufferView":22,
			"componentType":5126,
			"count":329,
			"type":"VEC2"
		},
		{
			"bufferView":23,
			"componentType":5123,
			"count":948,
			"type":"SCALAR"
		},
		{
			"bufferView":24,
			"componentType":5126,
			"count":329,
			"max":[
				1.50294029712677,
				6.015617847442627,
				2.4566097259521484
			],
			"min":[
				-1.50294029712677,
				-1.5638411045074463,
				-2.4566097259521484
			],
			"type":"VEC3"
		},
		{
			"bufferView":25,
			"componentType":5126,
			"count":329,
			"type":"VEC3"
		},
		{
			"bufferView":26,
			"componentType":5126,
			"count":329,
			"type":"VEC2"
		},
		{
			"bufferView":27,
			"componentType":5126,
			"count":112,
			"max":[
				1.50294029712677,
				8.885343551635742,
				2.4566097259521484
			],
			"min":[
				-1.50294029712677,
				6.015617847442627,
				-2.4566097259521484
			],
			"type":"VEC3"
		},
		{
			"bufferView":28,
			"componentType":5126,
			"count":112,
			"type":"VEC3"
		},
		{
			"bufferView":29,
			"componentType":5126,
			"count":112,
			"type":"VEC2"
		},
		{
			"bufferView":30,
			"componentType":5126,
			"count":301,
			"max":[
				6.146284103393555,
				0,
				6.146283149719238
			],
			"min":[
				-6.146284103393555,
				-5.11234712600708,
				-6.146283149719238
			],
			"type":"VEC3"
		},
		{
			"bufferView":31,
			"componentType":5126,
			"count":301,
			"type":"VEC3"
		},
		{
			"bufferView":32,
			"componentType":5126,
			"count":301,
			"type":"VEC2"
		},
		{
			"bufferView":33,
			"componentType":5123,
			"count":924,
			"type":"SCALAR"
		}
	],
	"bufferViews":[
		{
			"buffer":0,
			"byteLength":288,
			"byteOffset":0,
			"target":34962
		},
		{
			"buffer":0,
			"byteLength":288,
			"byteOffset":288,
			"target":34962
		},
		{
			"buffer":0,
			"byteLength":192,
			"byteOffset":576,
			"target":34962
		},
		{
			"buffer":0,
			"byteLength":72,
			"byteOffset":768,
			"target":34963
		},
		{
			"buffer":0,
			"byteLength":36072,
			"byteOffset":840,
			"target":34962
		},
		{
			"buffer":0,
			"byteLength":36072,
			"byteOffset":36912,
			"target":34962
		},
		{
			"buffer":0,
			"byteLength":24048,
			"byteOffset":72984,
			"target":34962
		},
		{
			"buffer":0,
			"byteLength":8424,
			"byteOffset":97032,
			"target":34963
		},
		{
			"buffer":0,
			"byteLength":1080,
			"byteOffset":105456,
			"target":34962
		},
		{
			"buffer":0,
			"byteLength":1080,
			"byteOffset":106536,
			"target":34962
		},
		{
			"buffer":0,
			"byteLength":720,
			"byteOffset":107616,
			"target":34962
		},
		{
			"buffer":0,
			"byteLength":600,
			"byteOffset":108336,
			"target":34963
		},
		{
			"buffer":0,
			"byteLength":6324,
			"byteOffset":108936,
			"target":34962
		},
		{
			"buffer":0,
			"byteLength":6324,
			"byteOffset":115260,
			"target":34962
		},
		{
			"buffer":0,
			"byteLength":4216,
			"byteOffset":121584,
			"target":34962
		},
		{
			"buffer":0,
			"byteLength":3492,
			"byteOffset":125800,
			"target":34963
		},
		{
			"buffer":0,
			"byteLength":1344,
			"byteOffset":129292,
			"target":34962
		},
		{
			"buffer":0,
			"byteLength":1344,
			"byteOffset":130636,
			"target":34962
		},
		{
			"buffer":0,
			"byteLength":896,
			"byteOffset":131980,
			"target":34962
		},
		{
			"buffer":0,
			"byteLength":612,
			"byteOffset":132876,
			"target":34963
		},
		{
			"buffer":0,
			"byteLength":3948,
			"byteOffset":133488,
			"target":34962
		},
		{
			"buffer":0,
			"byteLength":3948,
			"byteOffset":137436,
			"target":34962
		},
		{
			"buffer":0,
			"byteLength":2632,
			"byteOffset":141384,
			"target":34962
		},
		{
			"buffer":0,
			"byteLength":1896,
			"byteOffset":144016,
			"target":34963
		},
		{
			"buffer":0,
			"byteLength":3948,
			"byteOffset":145912,
			"target":34962
		},
		{
			"buffer":0,
			"byteLength":3948,
			"byteOffset":149860,
			"target":34962
		},
		{
			"buffer":0,
			"byteLength":2632,
			"byteOffset":153808,
			"target":34962
		},
		{
			"buffer":0,
			"byteLength":1344,
			"byteOffset":156440,
			"target":34962
		},
		{
			"buffer":0,
			"byteLength":1344,
			"byteOffset":157784,
			"target":34962
		},
		{
			"buffer":0,
			"byteLength":896,
			"byteOffset":159128,
			"target":34962
		},
		{
			"buffer":0,
			"byteLength":3612,
			"byteOffset":160024,
			"target":34962
		},
		{
			"buffer":0,
			"byteLength":3612,
			"byteOffset":163636,
			"target":34962
		},
		{
			"buffer":0,
			"byteLength":2408,
			"byteOffset":167248,
			"target":34962
		},
		{
			"buffer":0,
			"byteLength":1848,
			"byteOffset":169656,
			"target":34963
		}
	],
	"buffers":[
		{
			"byteLength":171504,
			"uri":"tower_2_interior.bin"
		}
	]
}
