{
	"asset":{
		"generator":"Khronos glTF Blender I/O v4.5.47",
		"version":"2.0"
	},
	"scene":0,
	"scenes":[
		{
			"extras":{
				"vs":{
					"export_list":[
						{
							"name":"Collection.dmx",
							"collection":{
								"name":"Collection",
								"type":"Collection"
							},
							"ob_type":"COLLECTION",
							"icon":"GROUP"
						}
					]
				},
				"GodotPipelineProps":{
					"mesh_data":0,
					"global_UI":1,
					"collision_UI":1,
					"path_UI":0,
					"export_UI":1,
					"string_setter_UI":0,
					"save_path":"E:\\game git repo\\project_tidal\\models\\Structures\\control_panel\\control_panel.gltf",
					"counter":2
				},
				"UVPackerProps":{
					"uvp_width":1024,
					"uvp_height":1024,
					"uvp_stats":"66.57% \u00a6 0.08s"
				}
			},
			"name":"Scene",
			"nodes":[
				0,
				1
			]
		}
	],
	"nodes":[
		{
			"extras":{
				"center_x":0.0,
				"center_z":-0.4564034342765808,
				"center_y":-0.4098284840583801,
				"collision":"box",
				"size_x":"5.9338",
				"size_z":"2.1736",
				"size_y":"1.6161"
			},
			"mesh":0,
			"name":"LP",
			"translation":[
				0.12978248298168182,
				0.09088596701622009,
				-0.08128754794597626
			]
		},
		{
			"extras":{
				"center_x":1.4901161193847656e-08,
				"center_z":7.450580596923828e-09,
				"center_y":-0.03017556667327881,
				"collision":"box",
				"size_x":"0.3613",
				"size_z":"0.359",
				"size_y":"0.172"
			},
			"mesh":1,
			"name":"buttonLP",
			"translation":[
				0.3893474340438843,
				0.2726579010486603,
				-0.24386264383792877
			]
		}
	],
	"materials":[
		{
			"doubleSided":true,
			"emissiveFactor":[
				0.7309364080429077,
				0,
				0.0017381346551701427
			],
			"name":"Material",
			"normalTexture":{
				"index":0
			},
			"pbrMetallicRoughness":{
				"baseColorTexture":{
					"index":1
				},
				"metallicRoughnessTexture":{
					"index":2
				}
			}
		}
	],
	"meshes":[
		{
			"name":"Cube.002",
			"primitives":[
				{
					"attributes":{
						"POSITION":0,
						"NORMAL":1,
						"TEXCOORD_0":2
					},
					"indices":3,
					"material":0
				}
			]
		},
		{
			"name":"Cube.026",
			"primitives":[
				{
					"attributes":{
						"POSITION":4,
						"NORMAL":5,
						"TEXCOORD_0":6
					},
					"indices":7,
					"material":0
				}
			]
		}
	],
	"textures":[
		{
			"sampler":0,
			"source":0
		},
		{
			"sampler":0,
			"source":1
		},
		{
			"sampler":0,
			"source":2
		}
	],
	"images":[
		{
			"mimeType":"image/png",
			"name":"control_panel_normal",
			"uri":"control_panel_normal.png"
		},
		{
			"mimeType":"image/png",
			"name":"control_panel_base",
			"uri":"control_panel_base.png"
		},
		{
			"mimeType":"image/png",
			"name":"control_panel_metallic-control_panel_rough",
			"uri":"control_panel_metallic-control_panel_rough.png"
		}
	],
	"accessors":[
		{
			"bufferView":0,
			"componentType":5126,
			"count":894,
			"max":[
				2.9669196605682373,
				0.3982316255569458,
				1.5432208776474
			],
			"min":[
				-2.9669196605682373,
				-1.217888593673706,
				-0.6304140090942383
			],
			"type":"VEC3"
		},
		{
			"bufferView":1,
			"componentType":5126,
			"count":894,
			"type":"VEC3"
		},
		{
			"bufferView":2,
			"componentType":5126,
			"count":894,
			"type":"VEC2"
		},
		{
			"bufferView":3,
			"componentType":5123,
			"count":1995,
			"type":"SCALAR"
		},
		{
			"bufferView":4,
			"componentType":5126,
			"count":87,
			"max":[
				0.18063539266586304,
				0.0558440126478672,
				0.17950618267059326
			],
			"min":[
				-0.18063536286354065,
				-0.11619514226913452,
				-0.17950619757175446
			],
			"type":"VEC3"
		},
		{
			"bufferView":5,
			"componentType":5126,
			"count":87,
			"type":"VEC3"
		},
		{
			"bufferView":6,
			"componentType":5126,
			"count":87,
			"type":"VEC2"
		},
		{
			"bufferView":7,
			"componentType":5123,
			"count":252,
			"type":"SCALAR"
		}
	],
	"bufferViews":[
		{
			"buffer":0,
			"byteLength":10728,
			"byteOffset":0,
			"target":34962
		},
		{
			"buffer":0,
			"byteLength":10728,
			"byteOffset":10728,
			"target":34962
		},
		{
			"buffer":0,
			"byteLength":7152,
			"byteOffset":21456,
			"target":34962
		},
		{
			"buffer":0,
			"byteLength":3990,
			"byteOffset":28608,
			"target":34963
		},
		{
			"buffer":0,
			"byteLength":1044,
			"byteOffset":32600,
			"target":34962
		},
		{
			"buffer":0,
			"byteLength":1044,
			"byteOffset":33644,
			"target":34962
		},
		{
			"buffer":0,
			"byteLength":696,
			"byteOffset":34688,
			"target":34962
		},
		{
			"buffer":0,
			"byteLength":504,
			"byteOffset":35384,
			"target":34963
		}
	],
	"samplers":[
		{
			"magFilter":9728,
			"minFilter":9984
		}
	],
	"buffers":[
		{
			"byteLength":35888,
			"uri":"control_panel.bin"
		}
	]
}
