<?xml version="1.0"?>
<svg xmlns="http://www.w3.org/2000/svg" xmlns:xlink="http://www.w3.org/1999/xlink" version="1.1" id="Layer_1" x="0px" y="0px" width="100%" viewBox="0 0 500 500" enable-background="new 0 0 500 500" xml:space="preserve" style="background-color:transparent;">
<path fill="none" opacity="1.000000" stroke="none" d=" M1.000000,240.000000   C1.000000,160.368866 1.000000,80.737740 1.000000,1.053307   C167.556763,1.053307 334.113556,1.053307 501.000000,1.053307   C501.000000,80.354462 501.000000,159.709381 500.531372,239.532288   C493.136200,240.000259 486.209595,240.000259 478.999817,240.000259   C478.999817,237.446762 478.999908,235.633499 478.999847,233.820236   C478.999146,215.326721 479.034393,196.833115 478.983856,178.339722   C478.954315,167.519775 476.492279,156.979141 469.098511,149.164902   C456.880890,136.252472 443.538269,124.404549 431.473999,112.876549   C426.350311,118.012108 420.400482,123.975693 414.197052,130.193512   C423.772583,139.724899 433.694305,149.819122 443.870789,159.649673   C450.113586,165.680313 453.042603,172.619873 453.006134,181.417572   C452.809418,228.900101 452.863800,276.383972 452.962891,323.867126   C452.978424,331.307159 450.619385,337.521423 445.397125,342.741943   C411.108856,377.018951 376.831573,411.306976 342.542389,445.583099   C337.455139,450.668427 331.350464,453.033936 324.092987,452.944092   C310.932953,452.781219 297.769440,452.898254 284.607391,452.898376   C282.852661,452.898407 281.097961,452.898407 279.416779,452.898407   C279.416779,462.033997 279.416779,470.416565 279.416779,478.999634   C294.653503,478.999634 309.474579,478.989166 324.295624,479.002625   C338.641815,479.015656 350.829224,474.111847 361.046844,463.838745   C395.236420,429.463562 429.525055,395.186340 463.890839,360.987213   C474.156097,350.771729 479.051910,338.587585 479.012115,324.220123   C478.960876,305.726746 478.999756,287.233124 478.999817,268.739594   C478.999817,266.966858 478.999817,265.194122 478.999817,263.000000   C486.742310,263.000000 493.871155,263.000000 501.000000,263.000000   C501.000000,342.297913 501.000000,421.595856 501.000000,500.946899   C334.443146,500.946899 167.886292,500.946899 1.000000,500.946899   C1.000000,421.978882 1.000000,342.957275 1.468645,263.467773   C9.530536,262.999847 17.123783,262.999847 25.000408,262.999847   C25.000408,265.557312 25.000301,267.371338 25.000425,269.185333   C25.001726,288.181732 24.876005,307.179291 25.049076,326.174133   C25.164377,338.828705 29.374550,350.084991 38.382004,359.126160   C73.782112,394.658722 109.273720,430.100189 144.767227,465.539581   C150.666962,471.430267 157.700699,475.507141 165.897400,477.203857   C170.267410,478.108429 174.753738,478.853973 179.198654,478.919647   C193.638748,479.133026 208.083954,478.999451 222.652313,478.999451   C222.652313,470.040131 222.652313,461.654510 222.652313,452.898132   C208.336700,452.898132 194.363174,452.750427 180.394867,452.956879   C172.762100,453.069672 166.436493,450.595581 161.078888,445.232697   C127.043121,411.163422 92.992874,377.108551 58.918381,343.078033   C53.566154,337.732697 51.017044,331.467590 51.034031,323.824371   C51.140305,276.000336 51.147560,228.175766 51.027691,180.351791   C51.008045,172.513428 53.626007,166.128860 59.141750,160.686829   C68.156563,151.792480 77.073036,142.798355 86.013931,133.829315   C87.147408,132.692261 88.178169,131.452820 89.042564,130.497299   C82.869926,124.356659 76.986389,118.503609 70.823471,112.372620   C60.743767,122.448975 50.336205,132.976562 39.788452,143.361771   C29.733788,153.261459 25.034420,165.295883 25.008938,179.266830   C24.975504,197.596634 25.000523,215.926544 25.000406,234.256409   C25.000395,236.029739 25.000402,237.803070 25.000402,240.000000   C16.592716,240.000000 8.796358,240.000000 1.000000,240.000000  M387.649811,66.830154   C378.582916,57.765408 369.472931,48.743279 360.460815,39.624374   C350.691589,29.739368 338.813934,25.054489 325.027100,25.010132   C311.373779,24.966204 297.720215,24.992275 284.066742,25.011127   C282.471008,25.013330 280.875427,25.164717 279.426086,25.239401   C279.426086,34.127102 279.426086,42.508099 279.426086,51.101879   C294.164368,51.101879 308.482666,51.327778 322.789307,51.017300   C331.394958,50.830544 338.224213,53.811821 344.131104,59.917313   C352.697266,68.771484 361.512268,77.385139 370.240448,86.082047   C371.369537,87.207092 372.613556,88.216843 373.644440,89.137260   C379.806549,82.940002 385.650482,77.062706 392.387512,70.287231   C391.161926,69.431465 389.654083,68.378624 387.649811,66.830154  M134.340134,48.840057   C126.565689,56.572479 118.791245,64.304901 111.516945,71.539886   C117.747185,77.769562 123.690651,83.712494 129.827759,89.849052   C130.652420,89.071190 131.871216,87.976440 133.029114,86.820686   C142.215286,77.651474 151.448380,68.528175 160.546295,59.272079   C166.108505,53.613159 172.615189,50.870098 180.632065,51.037151   C192.607697,51.286690 204.592361,51.111458 216.573151,51.091156   C218.315750,51.088203 220.058105,50.942471 221.709808,50.866959   C221.709808,41.970200 221.709808,33.716816 221.709808,25.000223   C207.820740,25.000223 194.215134,25.119583 180.612549,24.968340   C165.492584,24.800228 152.632843,29.796991 142.241104,40.916367   C139.856506,43.467934 137.311218,45.869320 134.340134,48.840057  z"/>
<path fill="#8F8F8F" opacity="1.000000" stroke="none" d=" M501.000000,262.531372   C493.871155,263.000000 486.742310,263.000000 478.999817,263.000000   C478.999817,265.194122 478.999817,266.966858 478.999817,268.739594   C478.999756,287.233124 478.960876,305.726746 479.012115,324.220123   C479.051910,338.587585 474.156097,350.771729 463.890839,360.987213   C429.525055,395.186340 395.236420,429.463562 361.046844,463.838745   C350.829224,474.111847 338.641815,479.015656 324.295624,479.002625   C309.474579,478.989166 294.653503,478.999634 279.416779,478.999634   C279.416779,470.416565 279.416779,462.033997 279.416779,452.898407   C281.097961,452.898407 282.852661,452.898407 284.607391,452.898376   C297.769440,452.898254 310.932953,452.781219 324.092987,452.944092   C331.350464,453.033936 337.455139,450.668427 342.542389,445.583099   C376.831573,411.306976 411.108856,377.018951 445.397125,342.741943   C450.619385,337.521423 452.978424,331.307159 452.962891,323.867126   C452.863800,276.383972 452.809418,228.900101 453.006134,181.417572   C453.042603,172.619873 450.113586,165.680313 443.870789,159.649673   C433.694305,149.819122 423.772583,139.724899 414.197052,130.193512   C420.400482,123.975693 426.350311,118.012108 431.473999,112.876549   C443.538269,124.404549 456.880890,136.252472 469.098511,149.164902   C476.492279,156.979141 478.954315,167.519775 478.983856,178.339722   C479.034393,196.833115 478.999146,215.326721 478.999847,233.820236   C478.999908,235.633499 478.999817,237.446762 478.999817,240.000259   C486.209595,240.000259 493.136200,240.000259 500.531372,240.000122   C501.000000,247.354248 501.000000,254.708496 501.000000,262.531372  z"/>
<path fill="#8F8F8F" opacity="1.000000" stroke="none" d=" M1.000000,240.468628   C8.796358,240.000000 16.592716,240.000000 25.000402,240.000000   C25.000402,237.803070 25.000395,236.029739 25.000406,234.256409   C25.000523,215.926544 24.975504,197.596634 25.008938,179.266830   C25.034420,165.295883 29.733788,153.261459 39.788452,143.361771   C50.336205,132.976562 60.743767,122.448975 70.823471,112.372620   C76.986389,118.503609 82.869926,124.356659 89.042564,130.497299   C88.178169,131.452820 87.147408,132.692261 86.013931,133.829315   C77.073036,142.798355 68.156563,151.792480 59.141750,160.686829   C53.626007,166.128860 51.008045,172.513428 51.027691,180.351791   C51.147560,228.175766 51.140305,276.000336 51.034031,323.824371   C51.017044,331.467590 53.566154,337.732697 58.918381,343.078033   C92.992874,377.108551 127.043121,411.163422 161.078888,445.232697   C166.436493,450.595581 172.762100,453.069672 180.394867,452.956879   C194.363174,452.750427 208.336700,452.898132 222.652313,452.898132   C222.652313,461.654510 222.652313,470.040131 222.652313,478.999451   C208.083954,478.999451 193.638748,479.133026 179.198654,478.919647   C174.753738,478.853973 170.267410,478.108429 165.897400,477.203857   C157.700699,475.507141 150.666962,471.430267 144.767227,465.539581   C109.273720,430.100189 73.782112,394.658722 38.382004,359.126160   C29.374550,350.084991 25.164377,338.828705 25.049076,326.174133   C24.876005,307.179291 25.001726,288.181732 25.000425,269.185333   C25.000301,267.371338 25.000408,265.557312 25.000408,262.999847   C17.123783,262.999847 9.530536,262.999847 1.468645,262.999939   C1.000000,255.645752 1.000000,248.291504 1.000000,240.468628  z"/>
<path fill="#8F8F8F" opacity="1.000000" stroke="none" d=" M387.898010,67.077965   C389.654083,68.378624 391.161926,69.431465 392.387512,70.287231   C385.650482,77.062706 379.806549,82.940002 373.644440,89.137260   C372.613556,88.216843 371.369537,87.207092 370.240448,86.082047   C361.512268,77.385139 352.697266,68.771484 344.131104,59.917313   C338.224213,53.811821 331.394958,50.830544 322.789307,51.017300   C308.482666,51.327778 294.164368,51.101879 279.426086,51.101879   C279.426086,42.508099 279.426086,34.127102 279.426086,25.239401   C280.875427,25.164717 282.471008,25.013330 284.066742,25.011127   C297.720215,24.992275 311.373779,24.966204 325.027100,25.010132   C338.813934,25.054489 350.691589,29.739368 360.460815,39.624374   C369.472931,48.743279 378.582916,57.765408 387.898010,67.077965  z"/>
<path fill="#8F8F8F" opacity="1.000000" stroke="none" d=" M134.590012,48.589943   C137.311218,45.869320 139.856506,43.467934 142.241104,40.916367   C152.632843,29.796991 165.492584,24.800228 180.612549,24.968340   C194.215134,25.119583 207.820740,25.000223 221.709808,25.000223   C221.709808,33.716816 221.709808,41.970200 221.709808,50.866959   C220.058105,50.942471 218.315750,51.088203 216.573151,51.091156   C204.592361,51.111458 192.607697,51.286690 180.632065,51.037151   C172.615189,50.870098 166.108505,53.613159 160.546295,59.272079   C151.448380,68.528175 142.215286,77.651474 133.029114,86.820686   C131.871216,87.976440 130.652420,89.071190 129.827759,89.849052   C123.690651,83.712494 117.747185,77.769562 111.516945,71.539886   C118.791245,64.304901 126.565689,56.572479 134.590012,48.589943  z"/>
</svg>
