{
	"asset":{
		"generator":"Khronos glTF Blender I/O v4.5.49",
		"version":"2.0"
	},
	"scene":0,
	"scenes":[
		{
			"extras":{
				"GodotPipelineProps":{
					"mesh_data":1,
					"global_UI":1,
					"export_UI":1,
					"string_setter_UI":1,
					"path_UI":1,
					"collision_UI":1,
					"save_path":"A:\\Godot Projects\\project_tidal\\models\\Structures\\Level1_Nov12Ver.gltf",
					"counter":18,
					"discard_mesh":0,
					"col_types":4,
					"body_types":0
				},
				"subrect_atlas1":{
					"name":"ExteriorTowerTexAtlas",
					"type":"Object"
				},
				"duv_hotspotmaterial1":{
					"name":"NewTowerMat",
					"type":"Material"
				},
				"trim_atlas":{},
				"uv_box":{},
				"uvtransferxmax":0.9687499403953552,
				"uvtransferxmin":0.9374999403953552,
				"uvtransferymax":0.75,
				"uvtransferymin":0.5,
				"subrect_atlas":{
					"name":"ExteriorTowerTexAtlas",
					"type":"Object"
				},
				"duv_hotspotmaterial":{
					"name":"NewTowerMat",
					"type":"Material"
				},
				"duv_usemirrory":1,
				"duv_useorientation":0
			},
			"name":"Scene",
			"nodes":[
				0,
				1,
				2,
				3,
				4,
				5,
				6,
				7
			]
		}
	],
	"nodes":[
		{
			"mesh":0,
			"name":"MidTowerOne",
			"rotation":[
				0,
				0.31162992119789124,
				0,
				0.9502036571502686
			],
			"translation":[
				-359.10284423828125,
				-203.74008178710938,
				-113.30489349365234
			]
		},
		{
			"extras":{
				"collision":"trimesh"
			},
			"mesh":1,
			"name":"StartTower",
			"translation":[
				-217.7537841796875,
				114.23072814941406,
				468.1561279296875
			]
		},
		{
			"extras":{
				"collision":"trimesh"
			},
			"mesh":2,
			"name":"BossTower",
			"translation":[
				-337.62841796875,
				-226.66796875,
				-1663.192138671875
			]
		},
		{
			"mesh":3,
			"name":"BasaltCliff",
			"translation":[
				-217.7537841796875,
				-202.9647674560547,
				697.4593505859375
			]
		},
		{
			"mesh":4,
			"name":"LevelTerrain",
			"translation":[
				-207.1324920654297,
				-205.95948791503906,
				-402.80181884765625
			]
		},
		{
			"mesh":5,
			"name":"WaterfallRight",
			"translation":[
				-217.7537841796875,
				-202.96478271484375,
				697.4593505859375
			]
		},
		{
			"mesh":6,
			"name":"WaterfallLeft",
			"translation":[
				-217.7537841796875,
				-202.96478271484375,
				697.4593505859375
			]
		},
		{
			"mesh":7,
			"name":"MidTowerTwo",
			"rotation":[
				0,
				-0.44936084747314453,
				0,
				0.8933504819869995
			],
			"translation":[
				-724.244873046875,
				-203.74008178710938,
				-743.2318115234375
			]
		}
	],
	"materials":[
		{
			"doubleSided":true,
			"name":"NewTowerMat",
			"normalTexture":{
				"index":0
			},
			"pbrMetallicRoughness":{
				"baseColorTexture":{
					"index":1
				},
				"metallicRoughnessTexture":{
					"index":2
				}
			}
		},
		{
			"doubleSided":true,
			"name":"StartTowerMat",
			"pbrMetallicRoughness":{
				"baseColorFactor":[
					0.800000011920929,
					0.800000011920929,
					0.800000011920929,
					1
				],
				"metallicFactor":0,
				"roughnessFactor":0.5
			}
		},
		{
			"doubleSided":true,
			"name":"BasaltMat",
			"pbrMetallicRoughness":{
				"baseColorFactor":[
					0.800000011920929,
					0.800000011920929,
					0.800000011920929,
					1
				],
				"metallicFactor":0,
				"roughnessFactor":0.5
			}
		}
	],
	"meshes":[
		{
			"extras":{
				"collision":"trimesh"
			},
			"name":"Plane.001",
			"primitives":[
				{
					"attributes":{
						"POSITION":0,
						"NORMAL":1,
						"TEXCOORD_0":2
					},
					"indices":3,
					"material":0
				}
			]
		},
		{
			"extras":{
				"collision":"trimesh"
			},
			"name":"Cube",
			"primitives":[
				{
					"attributes":{
						"POSITION":4,
						"NORMAL":5,
						"TEXCOORD_0":6
					},
					"indices":7,
					"material":1
				}
			]
		},
		{
			"extras":{
				"collision":"trimesh"
			},
			"name":"Cylinder",
			"primitives":[
				{
					"attributes":{
						"POSITION":8,
						"NORMAL":9,
						"TEXCOORD_0":10
					},
					"indices":11
				}
			]
		},
		{
			"extras":{
				"collision":"trimesh"
			},
			"name":"Cylinder.003",
			"primitives":[
				{
					"attributes":{
						"POSITION":12,
						"NORMAL":13,
						"TEXCOORD_0":14
					},
					"indices":15,
					"material":2
				}
			]
		},
		{
			"extras":{
				"collision":"trimesh"
			},
			"name":"Plane.094",
			"primitives":[
				{
					"attributes":{
						"POSITION":16,
						"NORMAL":17,
						"TEXCOORD_0":18
					},
					"indices":19
				}
			]
		},
		{
			"extras":{
				"collision":"trimesh"
			},
			"name":"Plane.005",
			"primitives":[
				{
					"attributes":{
						"POSITION":20,
						"NORMAL":21,
						"TEXCOORD_0":22
					},
					"indices":23
				}
			]
		},
		{
			"extras":{
				"collision":"trimesh"
			},
			"name":"Plane.006",
			"primitives":[
				{
					"attributes":{
						"POSITION":24,
						"NORMAL":25,
						"TEXCOORD_0":26
					},
					"indices":27
				}
			]
		},
		{
			"extras":{
				"collision":"trimesh"
			},
			"name":"Plane.007",
			"primitives":[
				{
					"attributes":{
						"POSITION":28,
						"NORMAL":29,
						"TEXCOORD_0":30
					},
					"indices":3,
					"material":0
				}
			]
		}
	],
	"textures":[
		{
			"sampler":0,
			"source":0
		},
		{
			"sampler":0,
			"source":1
		},
		{
			"sampler":0,
			"source":2
		}
	],
	"images":[
		{
			"mimeType":"image/png",
			"name":"DefaultMaterial_Normal",
			"uri":"DefaultMaterial_Normal.png"
		},
		{
			"mimeType":"image/png",
			"name":"DefaultMaterial_BaseColor",
			"uri":"DefaultMaterial_BaseColor.png"
		},
		{
			"mimeType":"image/png",
			"name":"DefaultMaterial_Metallic-DefaultMaterial_Roughness",
			"uri":"DefaultMaterial_Metallic-DefaultMaterial_Roughness.png"
		}
	],
	"accessors":[
		{
			"bufferView":0,
			"componentType":5126,
			"count":8709,
			"max":[
				198.26644897460938,
				403.77825927734375,
				96.10752868652344
			],
			"min":[
				-198.26644897460938,
				-74.26872253417969,
				-96.10752868652344
			],
			"type":"VEC3"
		},
		{
			"bufferView":1,
			"componentType":5126,
			"count":8709,
			"type":"VEC3"
		},
		{
			"bufferView":2,
			"componentType":5126,
			"count":8709,
			"type":"VEC2"
		},
		{
			"bufferView":3,
			"componentType":5123,
			"count":21924,
			"type":"SCALAR"
		},
		{
			"bufferView":4,
			"componentType":5126,
			"count":3281,
			"max":[
				123.3321533203125,
				124.3934097290039,
				229.30322265625
			],
			"min":[
				-123.3321533203125,
				-801.9111328125,
				-142.106689453125
			],
			"type":"VEC3"
		},
		{
			"bufferView":5,
			"componentType":5126,
			"count":3281,
			"type":"VEC3"
		},
		{
			"bufferView":6,
			"componentType":5126,
			"count":3281,
			"type":"VEC2"
		},
		{
			"bufferView":7,
			"componentType":5123,
			"count":8412,
			"type":"SCALAR"
		},
		{
			"bufferView":8,
			"componentType":5126,
			"count":1796,
			"max":[
				303.2054443359375,
				580.5528564453125,
				208.092041015625
			],
			"min":[
				-303.20538330078125,
				0,
				-208.092041015625
			],
			"type":"VEC3"
		},
		{
			"bufferView":9,
			"componentType":5126,
			"count":1796,
			"type":"VEC3"
		},
		{
			"bufferView":10,
			"componentType":5126,
			"count":1796,
			"type":"VEC2"
		},
		{
			"bufferView":11,
			"componentType":5123,
			"count":4824,
			"type":"SCALAR"
		},
		{
			"bufferView":12,
			"componentType":5126,
			"count":9204,
			"max":[
				661.6153564453125,
				305.0125732421875,
				-18.707530975341797
			],
			"min":[
				-661.6153564453125,
				-510.7596740722656,
				-122.0371322631836
			],
			"type":"VEC3"
		},
		{
			"bufferView":13,
			"componentType":5126,
			"count":9204,
			"type":"VEC3"
		},
		{
			"bufferView":14,
			"componentType":5126,
			"count":9204,
			"type":"VEC2"
		},
		{
			"bufferView":15,
			"componentType":5123,
			"count":22236,
			"type":"SCALAR"
		},
		{
			"bufferView":16,
			"componentType":5126,
			"count":2637,
			"max":[
				1000,
				304.15838623046875,
				989.80126953125
			],
			"min":[
				-1207.55859375,
				-0.568023681640625,
				-535.1705322265625
			],
			"type":"VEC3"
		},
		{
			"bufferView":17,
			"componentType":5126,
			"count":2637,
			"type":"VEC3"
		},
		{
			"bufferView":18,
			"componentType":5126,
			"count":2637,
			"type":"VEC2"
		},
		{
			"bufferView":19,
			"componentType":5123,
			"count":14838,
			"type":"SCALAR"
		},
		{
			"bufferView":20,
			"componentType":5126,
			"count":81,
			"max":[
				-71.1829833984375,
				296.8245544433594,
				-2.1382293701171875
			],
			"min":[
				-266.26177978515625,
				-383.2591552734375,
				-149.86795043945312
			],
			"type":"VEC3"
		},
		{
			"bufferView":21,
			"componentType":5126,
			"count":81,
			"type":"VEC3"
		},
		{
			"bufferView":22,
			"componentType":5126,
			"count":81,
			"type":"VEC2"
		},
		{
			"bufferView":23,
			"componentType":5123,
			"count":384,
			"type":"SCALAR"
		},
		{
			"bufferView":24,
			"componentType":5126,
			"count":81,
			"max":[
				266.26177978515625,
				296.8245544433594,
				-2.1382293701171875
			],
			"min":[
				71.1829833984375,
				-383.2591552734375,
				-149.86795043945312
			],
			"type":"VEC3"
		},
		{
			"bufferView":25,
			"componentType":5126,
			"count":81,
			"type":"VEC3"
		},
		{
			"bufferView":26,
			"componentType":5126,
			"count":81,
			"type":"VEC2"
		},
		{
			"bufferView":27,
			"componentType":5123,
			"count":384,
			"type":"SCALAR"
		},
		{
			"bufferView":28,
			"componentType":5126,
			"count":8709,
			"max":[
				198.26644897460938,
				403.77825927734375,
				96.10752868652344
			],
			"min":[
				-198.26644897460938,
				-74.26872253417969,
				-96.10752868652344
			],
			"type":"VEC3"
		},
		{
			"bufferView":29,
			"componentType":5126,
			"count":8709,
			"type":"VEC3"
		},
		{
			"bufferView":30,
			"componentType":5126,
			"count":8709,
			"type":"VEC2"
		}
	],
	"bufferViews":[
		{
			"buffer":0,
			"byteLength":104508,
			"byteOffset":0,
			"target":34962
		},
		{
			"buffer":0,
			"byteLength":104508,
			"byteOffset":104508,
			"target":34962
		},
		{
			"buffer":0,
			"byteLength":69672,
			"byteOffset":209016,
			"target":34962
		},
		{
			"buffer":0,
			"byteLength":43848,
			"byteOffset":278688,
			"target":34963
		},
		{
			"buffer":0,
			"byteLength":39372,
			"byteOffset":322536,
			"target":34962
		},
		{
			"buffer":0,
			"byteLength":39372,
			"byteOffset":361908,
			"target":34962
		},
		{
			"buffer":0,
			"byteLength":26248,
			"byteOffset":401280,
			"target":34962
		},
		{
			"buffer":0,
			"byteLength":16824,
			"byteOffset":427528,
			"target":34963
		},
		{
			"buffer":0,
			"byteLength":21552,
			"byteOffset":444352,
			"target":34962
		},
		{
			"buffer":0,
			"byteLength":21552,
			"byteOffset":465904,
			"target":34962
		},
		{
			"buffer":0,
			"byteLength":14368,
			"byteOffset":487456,
			"target":34962
		},
		{
			"buffer":0,
			"byteLength":9648,
			"byteOffset":501824,
			"target":34963
		},
		{
			"buffer":0,
			"byteLength":110448,
			"byteOffset":511472,
			"target":34962
		},
		{
			"buffer":0,
			"byteLength":110448,
			"byteOffset":621920,
			"target":34962
		},
		{
			"buffer":0,
			"byteLength":73632,
			"byteOffset":732368,
			"target":34962
		},
		{
			"buffer":0,
			"byteLength":44472,
			"byteOffset":806000,
			"target":34963
		},
		{
			"buffer":0,
			"byteLength":31644,
			"byteOffset":850472,
			"target":34962
		},
		{
			"buffer":0,
			"byteLength":31644,
			"byteOffset":882116,
			"target":34962
		},
		{
			"buffer":0,
			"byteLength":21096,
			"byteOffset":913760,
			"target":34962
		},
		{
			"buffer":0,
			"byteLength":29676,
			"byteOffset":934856,
			"target":34963
		},
		{
			"buffer":0,
			"byteLength":972,
			"byteOffset":964532,
			"target":34962
		},
		{
			"buffer":0,
			"byteLength":972,
			"byteOffset":965504,
			"target":34962
		},
		{
			"buffer":0,
			"byteLength":648,
			"byteOffset":966476,
			"target":34962
		},
		{
			"buffer":0,
			"byteLength":768,
			"byteOffset":967124,
			"target":34963
		},
		{
			"buffer":0,
			"byteLength":972,
			"byteOffset":967892,
			"target":34962
		},
		{
			"buffer":0,
			"byteLength":972,
			"byteOffset":968864,
			"target":34962
		},
		{
			"buffer":0,
			"byteLength":648,
			"byteOffset":969836,
			"target":34962
		},
		{
			"buffer":0,
			"byteLength":768,
			"byteOffset":970484,
			"target":34963
		},
		{
			"buffer":0,
			"byteLength":104508,
			"byteOffset":971252,
			"target":34962
		},
		{
			"buffer":0,
			"byteLength":104508,
			"byteOffset":1075760,
			"target":34962
		},
		{
			"buffer":0,
			"byteLength":69672,
			"byteOffset":1180268,
			"target":34962
		}
	],
	"samplers":[
		{
			"magFilter":9729,
			"minFilter":9987
		}
	],
	"buffers":[
		{
			"byteLength":1249940,
			"uri":"Level1_Nov12Ver.bin"
		}
	]
}
