{
	"asset":{
		"generator":"Khronos glTF Blender I/O v4.5.48",
		"version":"2.0"
	},
	"scene":0,
	"scenes":[
		{
			"extras":{
				"GodotPipelineProps":{
					"mesh_data":1,
					"global_UI":1,
					"export_UI":1,
					"string_setter_UI":1,
					"path_UI":1,
					"collision_UI":1,
					"save_path":"C:\\Users\\1027604\\Documents\\GitHub\\project_tidal\\models\\Structures\\towerv2test.gltf",
					"counter":16,
					"discard_mesh":0,
					"col_types":4,
					"body_types":0
				}
			},
			"name":"Scene",
			"nodes":[
				0,
				1,
				2,
				3,
				4,
				5,
				6,
				7
			]
		}
	],
	"nodes":[
		{
			"mesh":0,
			"name":"TextureAtlas",
			"translation":[
				36.50400924682617,
				32.820098876953125,
				114.51762390136719
			]
		},
		{
			"mesh":1,
			"name":"Tower",
			"translation":[
				-324.5194396972656,
				-144.92044067382812,
				-347.67041015625
			]
		},
		{
			"extras":{
				"collision":"trimesh"
			},
			"mesh":2,
			"name":"Watchtower",
			"translation":[
				-242.25233459472656,
				0,
				0
			]
		},
		{
			"extras":{
				"collision":"trimesh"
			},
			"mesh":3,
			"name":"Plane.002",
			"translation":[
				-218.70948791503906,
				-180.92330932617188,
				-1525.9908447265625
			]
		},
		{
			"extras":{
				"collision":"trimesh"
			},
			"mesh":4,
			"name":"Plane.003",
			"rotation":[
				0,
				1,
				0,
				7.549790126404332e-08
			],
			"translation":[
				-362.9037780761719,
				-186.19525146484375,
				-942.9811401367188
			]
		},
		{
			"extras":{
				"collision":"trimesh"
			},
			"mesh":5,
			"name":"Plane.004",
			"translation":[
				-242.25233459472656,
				-178.95541381835938,
				-340.38043212890625
			]
		},
		{
			"extras":{
				"collision":"trimesh"
			},
			"mesh":6,
			"name":"Cylinder",
			"translation":[
				-191.0155487060547,
				-22.924850463867188,
				-1824.5938720703125
			]
		},
		{
			"extras":{
				"collision":"trimesh"
			},
			"mesh":7,
			"name":"Cube.001",
			"rotation":[
				0,
				-1,
				0,
				7.549790126404332e-08
			],
			"translation":[
				-365.31097412109375,
				-142.76707458496094,
				-1212.4593505859375
			]
		}
	],
	"materials":[
		{
			"doubleSided":true,
			"name":"Material",
			"pbrMetallicRoughness":{
				"baseColorFactor":[
					0.800000011920929,
					0.800000011920929,
					0.800000011920929,
					1
				],
				"metallicFactor":0,
				"roughnessFactor":0.5
			}
		}
	],
	"meshes":[
		{
			"extras":{
				"collision":"trimesh"
			},
			"name":"Plane",
			"primitives":[
				{
					"attributes":{
						"POSITION":0,
						"NORMAL":1,
						"TEXCOORD_0":2
					},
					"indices":3
				}
			]
		},
		{
			"extras":{
				"collision":"trimesh"
			},
			"name":"Plane.001",
			"primitives":[
				{
					"attributes":{
						"POSITION":4,
						"NORMAL":5,
						"TEXCOORD_0":6
					},
					"indices":7
				}
			]
		},
		{
			"extras":{
				"collision":"trimesh"
			},
			"name":"Cube",
			"primitives":[
				{
					"attributes":{
						"POSITION":8,
						"NORMAL":9,
						"TEXCOORD_0":10
					},
					"indices":11,
					"material":0
				}
			]
		},
		{
			"extras":{
				"collision":"trimesh"
			},
			"name":"Plane.002",
			"primitives":[
				{
					"attributes":{
						"POSITION":12,
						"NORMAL":13,
						"TEXCOORD_0":14
					},
					"indices":15
				}
			]
		},
		{
			"extras":{
				"collision":"trimesh"
			},
			"name":"Plane.003",
			"primitives":[
				{
					"attributes":{
						"POSITION":16,
						"NORMAL":17,
						"TEXCOORD_0":18
					},
					"indices":19
				}
			]
		},
		{
			"extras":{
				"collision":"trimesh"
			},
			"name":"Plane.004",
			"primitives":[
				{
					"attributes":{
						"POSITION":20,
						"NORMAL":21,
						"TEXCOORD_0":22
					},
					"indices":19
				}
			]
		},
		{
			"extras":{
				"collision":"trimesh"
			},
			"name":"Cylinder",
			"primitives":[
				{
					"attributes":{
						"POSITION":23,
						"NORMAL":24,
						"TEXCOORD_0":25
					},
					"indices":26
				}
			]
		},
		{
			"extras":{
				"collision":"trimesh"
			},
			"name":"Cube.002",
			"primitives":[
				{
					"attributes":{
						"POSITION":27,
						"NORMAL":28,
						"TEXCOORD_0":29
					},
					"indices":30
				}
			]
		}
	],
	"accessors":[
		{
			"bufferView":0,
			"componentType":5126,
			"count":4,
			"max":[
				250.93655395507812,
				126.94841003417969,
				767.9468383789062
			],
			"min":[
				197.26528930664062,
				126.94841003417969,
				714.2755737304688
			],
			"type":"VEC3"
		},
		{
			"bufferView":1,
			"componentType":5126,
			"count":4,
			"type":"VEC3"
		},
		{
			"bufferView":2,
			"componentType":5126,
			"count":4,
			"type":"VEC2"
		},
		{
			"bufferView":3,
			"componentType":5123,
			"count":6,
			"type":"SCALAR"
		},
		{
			"bufferView":4,
			"componentType":5126,
			"count":1173,
			"max":[
				109.29994201660156,
				162.8788604736328,
				45.72479248046875
			],
			"min":[
				-109.26539611816406,
				-127.01634216308594,
				-46.03167724609375
			],
			"type":"VEC3"
		},
		{
			"bufferView":5,
			"componentType":5126,
			"count":1173,
			"type":"VEC3"
		},
		{
			"bufferView":6,
			"componentType":5126,
			"count":1173,
			"type":"VEC2"
		},
		{
			"bufferView":7,
			"componentType":5123,
			"count":3390,
			"type":"SCALAR"
		},
		{
			"bufferView":8,
			"componentType":5126,
			"count":2009,
			"max":[
				110.25587463378906,
				306.01812744140625,
				697.4593505859375
			],
			"min":[
				-64.8956298828125,
				-206.32015991210938,
				326.0494384765625
			],
			"type":"VEC3"
		},
		{
			"bufferView":9,
			"componentType":5126,
			"count":2009,
			"type":"VEC3"
		},
		{
			"bufferView":10,
			"componentType":5126,
			"count":2009,
			"type":"VEC2"
		},
		{
			"bufferView":11,
			"componentType":5123,
			"count":5334,
			"type":"SCALAR"
		},
		{
			"bufferView":12,
			"componentType":5126,
			"count":37548,
			"max":[
				546.7097778320312,
				145.33309936523438,
				64.28033447265625
			],
			"min":[
				-480.051025390625,
				-28.01557159423828,
				-942.97265625
			],
			"type":"VEC3"
		},
		{
			"bufferView":13,
			"componentType":5126,
			"count":37548,
			"type":"VEC3"
		},
		{
			"bufferView":14,
			"componentType":5126,
			"count":37548,
			"type":"VEC2"
		},
		{
			"bufferView":15,
			"componentType":5123,
			"count":61206,
			"type":"SCALAR"
		},
		{
			"bufferView":16,
			"componentType":5126,
			"count":44891,
			"max":[
				419.0388488769531,
				65.10307312011719,
				363.3081359863281
			],
			"min":[
				-253.28933715820312,
				-38.1177978515625,
				-367.21441650390625
			],
			"type":"VEC3"
		},
		{
			"bufferView":17,
			"componentType":5126,
			"count":44891,
			"type":"VEC3"
		},
		{
			"bufferView":18,
			"componentType":5126,
			"count":44891,
			"type":"VEC2"
		},
		{
			"bufferView":19,
			"componentType":5123,
			"count":68478,
			"type":"SCALAR"
		},
		{
			"bufferView":20,
			"componentType":5126,
			"count":44891,
			"max":[
				375.5716552734375,
				70.35195922851562,
				749.0426635742188
			],
			"min":[
				-296.75653076171875,
				-32.86891174316406,
				18.5201416015625
			],
			"type":"VEC3"
		},
		{
			"bufferView":21,
			"componentType":5126,
			"count":44891,
			"type":"VEC3"
		},
		{
			"bufferView":22,
			"componentType":5126,
			"count":44891,
			"type":"VEC2"
		},
		{
			"bufferView":23,
			"componentType":5126,
			"count":1822,
			"max":[
				362.35546875,
				376.8097229003906,
				-447.7977294921875
			],
			"min":[
				-244.05532836914062,
				-203.74310302734375,
				-863.9818115234375
			],
			"type":"VEC3"
		},
		{
			"bufferView":24,
			"componentType":5126,
			"count":1822,
			"type":"VEC3"
		},
		{
			"bufferView":25,
			"componentType":5126,
			"count":1822,
			"type":"VEC2"
		},
		{
			"bufferView":26,
			"componentType":5123,
			"count":4920,
			"type":"SCALAR"
		},
		{
			"bufferView":27,
			"componentType":5126,
			"count":1527,
			"max":[
				284.766845703125,
				407.131591796875,
				299.337158203125
			],
			"min":[
				-150.19247436523438,
				-76.38296508789062,
				5.769073486328125
			],
			"type":"VEC3"
		},
		{
			"bufferView":28,
			"componentType":5126,
			"count":1527,
			"type":"VEC3"
		},
		{
			"bufferView":29,
			"componentType":5126,
			"count":1527,
			"type":"VEC2"
		},
		{
			"bufferView":30,
			"componentType":5123,
			"count":4236,
			"type":"SCALAR"
		}
	],
	"bufferViews":[
		{
			"buffer":0,
			"byteLength":48,
			"byteOffset":0,
			"target":34962
		},
		{
			"buffer":0,
			"byteLength":48,
			"byteOffset":48,
			"target":34962
		},
		{
			"buffer":0,
			"byteLength":32,
			"byteOffset":96,
			"target":34962
		},
		{
			"buffer":0,
			"byteLength":12,
			"byteOffset":128,
			"target":34963
		},
		{
			"buffer":0,
			"byteLength":14076,
			"byteOffset":140,
			"target":34962
		},
		{
			"buffer":0,
			"byteLength":14076,
			"byteOffset":14216,
			"target":34962
		},
		{
			"buffer":0,
			"byteLength":9384,
			"byteOffset":28292,
			"target":34962
		},
		{
			"buffer":0,
			"byteLength":6780,
			"byteOffset":37676,
			"target":34963
		},
		{
			"buffer":0,
			"byteLength":24108,
			"byteOffset":44456,
			"target":34962
		},
		{
			"buffer":0,
			"byteLength":24108,
			"byteOffset":68564,
			"target":34962
		},
		{
			"buffer":0,
			"byteLength":16072,
			"byteOffset":92672,
			"target":34962
		},
		{
			"buffer":0,
			"byteLength":10668,
			"byteOffset":108744,
			"target":34963
		},
		{
			"buffer":0,
			"byteLength":450576,
			"byteOffset":119412,
			"target":34962
		},
		{
			"buffer":0,
			"byteLength":450576,
			"byteOffset":569988,
			"target":34962
		},
		{
			"buffer":0,
			"byteLength":300384,
			"byteOffset":1020564,
			"target":34962
		},
		{
			"buffer":0,
			"byteLength":122412,
			"byteOffset":1320948,
			"target":34963
		},
		{
			"buffer":0,
			"byteLength":538692,
			"byteOffset":1443360,
			"target":34962
		},
		{
			"buffer":0,
			"byteLength":538692,
			"byteOffset":1982052,
			"target":34962
		},
		{
			"buffer":0,
			"byteLength":359128,
			"byteOffset":2520744,
			"target":34962
		},
		{
			"buffer":0,
			"byteLength":136956,
			"byteOffset":2879872,
			"target":34963
		},
		{
			"buffer":0,
			"byteLength":538692,
			"byteOffset":3016828,
			"target":34962
		},
		{
			"buffer":0,
			"byteLength":538692,
			"byteOffset":3555520,
			"target":34962
		},
		{
			"buffer":0,
			"byteLength":359128,
			"byteOffset":4094212,
			"target":34962
		},
		{
			"buffer":0,
			"byteLength":21864,
			"byteOffset":4453340,
			"target":34962
		},
		{
			"buffer":0,
			"byteLength":21864,
			"byteOffset":4475204,
			"target":34962
		},
		{
			"buffer":0,
			"byteLength":14576,
			"byteOffset":4497068,
			"target":34962
		},
		{
			"buffer":0,
			"byteLength":9840,
			"byteOffset":4511644,
			"target":34963
		},
		{
			"buffer":0,
			"byteLength":18324,
			"byteOffset":4521484,
			"target":34962
		},
		{
			"buffer":0,
			"byteLength":18324,
			"byteOffset":4539808,
			"target":34962
		},
		{
			"buffer":0,
			"byteLength":12216,
			"byteOffset":4558132,
			"target":34962
		},
		{
			"buffer":0,
			"byteLength":8472,
			"byteOffset":4570348,
			"target":34963
		}
	],
	"buffers":[
		{
			"byteLength":4578820,
			"uri":"towerv2test.bin"
		}
	]
}
